<svg width="130" height="130" viewBox="0 0 130 130" fill="none" xmlns="http://www.w3.org/2000/svg">
<path d="M0 65C0 100.899 29.1015 130 65 130C100.899 130 130 100.899 130 65C130 29.1015 100.899 0 65 0C29.1015 0 0 29.1015 0 65Z" fill="url(#paint0_linear)"/>
<path d="M50.5412 62.465C50.5171 63.2672 50.6233 64.0681 50.8555 64.8364C51.085 65.4982 51.3718 66.1387 51.7126 66.7507C51.8344 66.9279 51.9037 67.1359 51.9126 67.3507C51.8976 67.5156 51.843 67.6744 51.7535 67.8137C51.6639 67.953 51.5421 68.0686 51.3983 68.1507L49.7126 69.265C49.5121 69.4082 49.2732 69.4878 49.0269 69.4935C48.875 69.4911 48.7253 69.4567 48.5875 69.3927C48.4497 69.3287 48.3268 69.2366 48.2269 69.1221C47.8568 68.7514 47.5309 68.3391 47.2555 67.8935C46.9983 67.4364 46.7412 66.9221 46.4555 66.3221C45.5183 67.4931 44.3255 68.434 42.9686 69.0728C41.6117 69.7117 40.1265 70.0315 38.6269 70.0078C37.6581 70.0602 36.6887 69.9177 35.7759 69.5889C34.8631 69.2601 34.0255 68.7517 33.3126 68.0935C32.6494 67.4242 32.1338 66.6232 31.7992 65.7423C31.4645 64.8614 31.3183 63.9202 31.3698 62.9793C31.3351 61.9437 31.5327 60.9136 31.948 59.9644C32.3633 59.0151 32.9857 58.1709 33.7698 57.4935C35.6317 56.0421 37.9551 55.3116 40.3126 55.4364C41.2686 55.4322 42.2236 55.499 43.1698 55.6364C44.1698 55.7793 45.1698 55.9793 46.2269 56.2078V54.265C46.3795 52.7362 45.9284 51.2084 44.9698 50.0078C43.7345 49.0541 42.1787 48.614 40.6269 48.7793C39.6645 48.7838 38.7059 48.8988 37.7698 49.1221C36.7954 49.3533 35.8402 49.659 34.9126 50.0364L33.9698 50.3793H33.5698C33.1698 50.3793 32.9983 50.0935 32.9983 49.5507V48.2364C32.973 47.9218 33.0322 47.6062 33.1698 47.3221C33.3823 47.0779 33.6456 46.8829 33.9412 46.7507C35.0109 46.236 36.1312 45.8339 37.284 45.5507C38.6372 45.2022 40.0296 45.0294 41.4269 45.0364C43.9457 44.8168 46.4497 45.5968 48.3983 47.2078C49.1985 48.0863 49.8073 49.1216 50.1861 50.248C50.5648 51.3744 50.7052 52.5672 50.5983 53.7507L50.5412 62.465ZM39.7412 66.5221C40.7142 66.5236 41.6804 66.3593 42.5983 66.0364C43.576 65.7027 44.4449 65.1103 45.1126 64.3221C45.5534 63.8454 45.8678 63.2659 46.0269 62.6364C46.2115 61.8792 46.2979 61.1014 46.284 60.3221V59.1221C45.4446 58.9477 44.5955 58.8236 43.7412 58.7507C42.884 58.7507 42.0555 58.7507 41.2269 58.7507C39.8301 58.6386 38.4374 59.012 37.284 59.8078C36.8383 60.183 36.4871 60.6579 36.2588 61.1939C36.0305 61.7299 35.9315 62.3122 35.9698 62.8935C35.9227 63.4112 35.9849 63.9331 36.1522 64.4252C36.3196 64.9174 36.5883 65.3689 36.9412 65.7507C37.7356 66.3684 38.7425 66.6459 39.7412 66.5221ZM61.1412 69.3793C60.7791 69.4129 60.4163 69.3222 60.1126 69.1221C59.8225 68.8334 59.6238 68.4658 59.5412 68.065L53.3126 47.4935C53.186 47.1441 53.1091 46.7786 53.084 46.4078C53.084 45.9793 53.284 45.7507 53.7126 45.7507H56.3412C56.7033 45.717 57.0661 45.8077 57.3698 46.0078C57.6481 46.3011 57.8364 46.6679 57.9126 47.065L62.3983 64.8364L66.5983 47.0935C66.6421 46.6922 66.8239 46.3186 67.1126 46.0364C67.4269 45.8362 67.7986 45.7458 68.1698 45.7793H70.3126C70.6928 45.7458 71.0736 45.836 71.3983 46.0364C71.6662 46.3331 71.8446 46.6996 71.9126 47.0935L76.0555 64.8364L80.6555 47.0078C80.7316 46.6108 80.92 46.2439 81.1983 45.9507C81.502 45.7506 81.8648 45.6599 82.2269 45.6935H84.7126C84.8011 45.6846 84.8905 45.6955 84.9743 45.7254C85.0581 45.7552 85.1341 45.8034 85.197 45.8663C85.2599 45.9292 85.3081 46.0052 85.3379 46.089C85.3678 46.1728 85.3787 46.2622 85.3698 46.3507C85.3805 46.4933 85.3805 46.6366 85.3698 46.7793C85.3698 46.7793 85.3698 47.1507 85.1983 47.4364L78.7412 68.0078C78.665 68.4049 78.4766 68.7717 78.1983 69.065C77.8913 69.2572 77.5312 69.3472 77.1698 69.3221H74.884C74.5084 69.3621 74.1313 69.2602 73.8269 69.0364C73.5438 68.7502 73.363 68.3786 73.3126 67.9793L69.1698 50.8364L65.0555 67.9793C65.0051 68.3786 64.8243 68.7502 64.5412 69.0364C64.2345 69.2553 63.8593 69.3567 63.484 69.3221L61.1412 69.3793ZM95.4269 70.065C94.0424 70.0716 92.6618 69.9182 91.3126 69.6078C90.2506 69.3947 89.2223 69.0391 88.2555 68.5507C87.9137 68.3878 87.626 68.1299 87.4269 67.8078C87.3159 67.5657 87.2575 67.3028 87.2555 67.0364V65.6935C87.2555 65.1507 87.4555 64.865 87.8555 64.865C88.0258 64.8377 88.1994 64.8377 88.3698 64.865L89.0269 65.1507C89.9426 65.5599 90.9009 65.8665 91.884 66.065C92.926 66.2919 93.9891 66.4068 95.0555 66.4078C96.4089 66.492 97.7579 66.1845 98.9412 65.5221C99.3708 65.2608 99.7239 64.8907 99.9647 64.4492C100.205 64.0077 100.325 63.5105 100.313 63.0078C100.326 62.666 100.27 62.3249 100.147 62.0056C100.024 61.6863 99.8375 61.3954 99.5983 61.1507C98.8249 60.4804 97.905 60.0009 96.9126 59.7507L93.0555 58.5221C91.3868 58.1026 89.8955 57.1618 88.7983 55.8364C87.9355 54.7241 87.4636 53.3584 87.4555 51.9507C87.4398 50.9523 87.6861 49.9672 88.1697 49.0935C88.6477 48.2349 89.2997 47.4856 90.084 46.8935C90.9429 46.2628 91.9118 45.7977 92.9412 45.5221C94.0368 45.2065 95.1725 45.0525 96.3126 45.065C96.9023 45.0233 97.4943 45.0233 98.084 45.065L99.8269 45.3507L101.341 45.7793L102.455 46.2364C102.754 46.413 103.024 46.6346 103.255 46.8935C103.415 47.1609 103.494 47.4682 103.484 47.7793V49.0364C103.484 49.6078 103.284 49.8935 102.884 49.8935C102.521 49.852 102.171 49.7352 101.855 49.5507C100.234 48.8459 98.4805 48.4952 96.7126 48.5221C95.4876 48.4627 94.2677 48.7185 93.1697 49.265C92.762 49.5132 92.4296 49.8677 92.2081 50.2905C91.9867 50.7133 91.8845 51.1885 91.9126 51.665C91.9113 52.0171 91.9816 52.3658 92.1191 52.6899C92.2566 53.0141 92.4585 53.3069 92.7126 53.5507C93.556 54.2256 94.5282 54.7215 95.5697 55.0078L99.3412 56.2078C100.94 56.632 102.374 57.5281 103.455 58.7793C104.275 59.8531 104.707 61.1718 104.684 62.5221C104.701 63.5903 104.466 64.6474 103.998 65.6078C103.539 66.5278 102.875 67.3295 102.055 67.9507C101.208 68.6322 100.238 69.1461 99.1983 69.465C97.9512 69.866 96.6511 70.0778 95.3412 70.0935L95.4269 70.065Z" fill="#232F3E"/>
<path fill-rule="evenodd" clip-rule="evenodd" d="M100.37 83.2078C90.8068 89.7063 79.5029 93.1622 67.9411 93.1221C53.3229 93.2012 39.2015 87.8216 28.3411 78.0364C27.5125 77.2936 28.3411 76.265 29.2554 76.8364C41.3092 83.7427 54.9632 87.368 68.8554 87.3507C79.2401 87.3085 89.5137 85.211 99.084 81.1793C100.57 80.5507 101.827 82.1507 100.37 83.2078Z" fill="#232F3E"/>
<path fill-rule="evenodd" clip-rule="evenodd" d="M104.027 79.1221C102.884 77.6649 96.5983 78.4364 93.7697 78.7792C92.9126 78.7792 92.7983 78.1221 93.5697 77.5792C98.5697 74.0649 106.798 75.0649 107.855 76.2649C108.913 77.4649 107.598 85.6935 102.884 89.6364C102.17 90.2364 101.484 89.8935 101.798 89.1221C102.77 86.4078 105.141 80.4935 104.027 79.1221Z" fill="#232F3E"/>
<defs>
<linearGradient id="paint0_linear" x1="-26.9239" y1="156.929" x2="156.924" y2="-26.9187" gradientUnits="userSpaceOnUse">
<stop stop-color="#48D145" stop-opacity="0.31"/>
<stop offset="1" stop-color="#027200"/>
</linearGradient>
</defs>
</svg>
