<svg width="130" height="130" viewBox="0 0 130 130" fill="none" xmlns="http://www.w3.org/2000/svg">
<path d="M0 65C0 100.899 29.1015 130 65 130C100.899 130 130 100.899 130 65C130 29.1015 100.899 0 65 0C29.1015 0 0 29.1015 0 65Z" fill="url(#paint0_linear)"/>
<path d="M99.5714 48.7714V45.9143H92.8571V37.7143H84.2857V31H81.4286V37.7143H75.2857V31H72.4286V37.7143H66.3714V31H63.5143V37.7143H57.4V31H54.5429V37.7143H48.4286V31H45.5714V37.7143H37.7143V45.9143H31V48.7714H37.7143V54.8857H31V57.7429H37.7143V63.8571H31V66.7143H37.7143V72.8286H31V75.6857H37.7143V81.8H31V84.6571H37.7143V92.8571H45.5714V99.5714H48.4286V92.8571H54.5429V99.5714H57.4V92.8571H63.5143V99.5714H66.3714V92.8571H72.4286V99.5714H75.2857V92.8571H81.4V99.5714H84.2571V92.8571H92.8286V84.6571H99.5714V81.8H92.8571V75.6857H99.5714V72.8286H92.8571V66.7143H99.5714V63.8571H92.8571V57.7429H99.5714V54.8857H92.8571V48.7714H99.5714ZM90 90H40.5714V40.5714H90V90Z" fill="#232F3E"/>
<defs>
<linearGradient id="paint0_linear" x1="-26.9239" y1="156.929" x2="156.924" y2="-26.9187" gradientUnits="userSpaceOnUse">
<stop stop-color="#48D145" stop-opacity="0.31"/>
<stop offset="1" stop-color="#027200"/>
</linearGradient>
</defs>
</svg>
