<svg width="130" height="130" viewBox="0 0 130 130" fill="none" xmlns="http://www.w3.org/2000/svg">
<path d="M0 65C0 100.899 29.1015 130 65 130C100.899 130 130 100.899 130 65C130 29.1015 100.899 0 65 0C29.1015 0 0 29.1015 0 65Z" fill="url(#paint0_linear)"/>
<path d="M67.6166 98.9991C58.6808 98.9991 44.5429 97.179 44.3611 92.2958L38.0263 50.1052C37.954 49.7723 38.032 49.4272 38.2431 49.1459C38.4542 48.8645 38.7812 48.67 39.1521 48.6051C39.5229 48.5402 39.9074 48.6102 40.2208 48.7997C40.5341 48.9892 40.7508 49.2827 40.8232 49.6156C41.5224 52.0383 52.0803 55.4277 67.6725 55.4277C83.2648 55.4277 93.8088 52.0383 94.508 49.6156C94.5803 49.2827 94.797 48.9892 95.1104 48.7997C95.4238 48.6102 95.8082 48.5402 96.1791 48.6051C96.5499 48.67 96.8769 48.8645 97.088 49.1459C97.2991 49.4272 97.3771 49.7723 97.3048 50.1052L90.8581 92.2958C90.8581 93.9528 89.1521 95.3713 85.9497 96.5136C84.5285 96.9996 83.0704 97.3939 81.5867 97.6936C76.9969 98.5843 72.3124 99.0221 67.6166 98.9991ZM41.3685 53.5196L47.102 92.095C47.102 92.095 47.102 92.208 47.102 92.2582C47.102 93.7394 55.0589 96.5513 67.5607 96.5513C72.0454 96.5731 76.5192 96.1521 80.9015 95.296C82.2483 95.0078 83.5708 94.6345 84.859 94.1788C87.446 93.2624 88.0193 92.4339 88.0193 92.1954C88.013 92.1412 88.013 92.0865 88.0193 92.0322L93.7948 53.5196C88.3969 56.4068 77.5173 57.9383 67.5467 57.9383C57.5761 57.9383 46.7524 56.4068 41.3685 53.5196Z" fill="black"/>
<path d="M67.6166 57.9382C54.3737 57.9382 39.5087 55.2393 38.0683 50.2558C38.0633 50.2015 38.0633 50.1469 38.0683 50.0926V49.5779C38.0619 49.5237 38.0619 49.469 38.0683 49.4148C38.0683 43.8663 53.7025 40 67.7425 40C81.7825 40 97.2908 43.8663 97.2908 49.4148C97.2908 49.4148 97.2908 49.5152 97.2908 49.5779L97.2069 50.0926C97.2126 50.1469 97.2126 50.2015 97.2069 50.2558C95.7106 55.2393 80.8455 57.9382 67.6166 57.9382ZM40.7812 49.6784C41.6482 52.1011 52.1642 55.4276 67.6166 55.4276C83.069 55.4276 93.571 52.1011 94.438 49.6784V49.3394C94.2842 46.9042 83.2648 42.5106 67.6166 42.5106C51.9685 42.5106 40.935 46.9042 40.7393 49.3394L40.7812 49.6784Z" fill="black"/>
<path d="M97.3467 75.299C90.6903 75.299 76.1189 69.3865 67.0013 65.3696L68.2319 63.11C80.8176 68.671 95.6407 73.8052 98.1718 72.8386C97.976 72.4746 97.0391 71.3448 92.5781 69.1731L92.3544 69.0476L93.7528 66.8634L93.9626 66.9764C98.4515 69.1982 100.591 70.9054 100.955 72.5122C101.026 72.8476 101.013 73.1931 100.916 73.5233C100.819 73.8535 100.641 74.16 100.395 74.4203C99.9862 74.7534 99.5026 75.0041 98.9768 75.1556C98.4511 75.3072 97.8953 75.3561 97.3467 75.299Z" fill="black"/>
<path d="M67.6166 66.9889C67.0164 66.9889 66.4297 66.8291 65.9307 66.5298C65.4317 66.2305 65.0427 65.8051 64.8131 65.3073C64.5834 64.8096 64.5233 64.2619 64.6404 63.7335C64.7575 63.2051 65.0465 62.7197 65.4709 62.3387C65.8953 61.9578 66.436 61.6983 67.0246 61.5932C67.6132 61.4881 68.2234 61.5421 68.7779 61.7483C69.3324 61.9544 69.8063 62.3036 70.1397 62.7515C70.4732 63.1995 70.6512 63.7261 70.6512 64.2649C70.6475 64.9863 70.3266 65.6773 69.7583 66.1874C69.19 66.6975 68.4203 66.9856 67.6166 66.9889ZM67.6166 64.0515C67.5842 64.0498 67.5518 64.054 67.5213 64.064C67.4909 64.0739 67.463 64.0894 67.4394 64.1094C67.4158 64.1294 67.397 64.1535 67.3842 64.1802C67.3714 64.207 67.3648 64.2358 67.3649 64.2649C67.3649 64.5034 67.8543 64.5034 67.8543 64.2649C67.8583 64.2348 67.8551 64.2044 67.8449 64.1755C67.8348 64.1466 67.8179 64.1201 67.7954 64.0975C67.7729 64.0749 67.7454 64.0569 67.7145 64.0447C67.6837 64.0324 67.6503 64.0262 67.6166 64.0264V64.0515Z" fill="black"/>
<defs>
<linearGradient id="paint0_linear" x1="-26.9239" y1="156.929" x2="156.924" y2="-26.9187" gradientUnits="userSpaceOnUse">
<stop stop-color="#48D145" stop-opacity="0.31"/>
<stop offset="1" stop-color="#027200"/>
</linearGradient>
</defs>
</svg>
