<svg width="388" height="225" viewBox="0 0 388 225" fill="none" xmlns="http://www.w3.org/2000/svg">
<path d="M90.3599 21.2709C90.2202 20.018 89.9377 18.791 89.5194 17.6206C89.4661 17.3993 89.3727 17.193 89.2452 17.0149C89.1177 16.8367 88.9589 16.6907 88.779 16.586C88.5384 16.5151 88.2862 16.5119 88.0442 16.5767L84.2721 17.2315C83.9564 17.2478 83.6541 17.3811 83.4115 17.6109C82.9202 18.197 83.4039 19.1409 83.3889 19.9495C83.372 20.8588 82.6598 21.5969 81.8875 21.8411C81.0992 22.0218 80.286 22.0104 79.5018 21.8076L74.2273 20.8777C75.7807 20.3151 77.1634 19.2683 78.2175 17.8569C78.9116 16.9241 79.2809 15.1825 78.2778 14.7407C77.9797 14.648 77.6689 14.6196 77.3616 14.6573C74.9719 14.6784 73.0914 12.4148 70.8542 11.4615C69.4223 10.8908 67.8681 10.8483 66.4136 11.3402C64.9592 11.832 63.6791 12.833 62.7565 14.2L65.5663 14.3537C65.8306 14.3372 66.0927 14.4165 66.3147 14.5802C66.9305 15.1541 66.1649 16.2566 66.2517 17.1553C66.3644 18.323 67.731 18.5723 68.7612 18.6904C69.7915 18.8085 71.0984 19.7581 70.6028 20.7895C65.4249 22.8128 60.1558 16.8343 54.7179 17.5702C53.3416 17.7565 52.042 18.3699 50.6982 18.7556C42.4898 21.1117 34.0037 14.8254 25.6183 16.1567C23.7542 16.5172 21.922 17.0654 20.1436 17.7947C19.0023 18.2198 17.8119 18.6792 16.9827 19.6651C16.1534 20.6511 15.8378 22.3371 16.6234 23.368C14.4582 23.5703 12.2784 23.3353 10.1856 22.6738C10.7515 23.0307 11.2224 23.5538 11.5486 24.1883C11.8749 24.8229 12.0446 25.5453 12.0399 26.2799C8.65911 26.9053 5.36786 28.0437 2.25466 29.6647C2.8357 30.7608 3.51436 31.7864 4.27997 32.7254L0 35.8447C1.44598 36.258 2.19358 38.4948 1.3527 39.8919C2.85201 39.1352 3.78121 37.1777 5.38448 36.7808C6.43483 36.5208 7.50359 37.0083 8.50001 37.4662C9.49643 37.9241 10.5916 38.3681 11.6231 38.0245C12.6546 37.6808 13.4154 36.1634 12.76 35.1967C17.1689 33.7374 21.7254 32.9298 26.3166 32.7939C26.6708 32.7435 27.0301 32.8208 27.3433 33.015C27.941 33.4854 27.7838 34.5014 27.7516 35.3258C27.7194 36.1502 28.2858 37.2337 28.9353 36.8621C28.1711 37.6138 28.8243 39.0289 29.5574 39.8193C30.2905 40.6098 31.1741 41.7005 30.7253 42.7287C30.6082 42.9971 30.4095 43.2118 30.2968 43.4826C29.9641 44.2819 30.4923 45.2138 31.1154 45.7446C31.7384 46.2754 32.5016 46.6464 32.9344 47.3814C33.3672 48.1165 33.1706 49.4031 32.3967 49.5057L30.197 46.3373C29.4455 47.2214 28.9302 48.329 28.7111 49.5318C31.0437 51.695 31.3945 56.0981 29.4417 58.7008C28.4437 60.0309 27.0246 60.8391 25.786 61.8765C24.5474 62.914 23.4012 64.3913 23.4044 66.1379C23.4097 69.1554 23.1924 71.9589 24.1891 74.7566C26.0271 79.9153 28.1492 84.9378 30.5427 89.7944C31.1712 91.0697 31.9836 92.4675 33.2569 92.6871C31.6477 88.2428 30.1991 83.7294 28.9111 79.1468C29.75 79.1505 30.7194 79.2261 31.2112 79.9971C31.6184 80.6356 31.531 81.5037 31.6575 82.2786C31.8184 83.0293 32.0868 83.7451 32.4519 84.3973L40.1364 99.9261C40.7734 101.213 41.5041 102.595 42.7216 103.117C43.5 103.45 44.4006 103.387 45.1171 103.867C45.6786 104.243 46.0569 104.911 46.6294 105.265C48.2482 106.267 50.4992 104.345 52.012 105.542C52.4445 105.884 52.7197 106.427 53.1183 106.818C54.5155 108.191 56.8074 107.273 58.4203 108.297C59.4598 108.957 59.9986 110.277 60.553 111.473C61.9418 114.469 64.189 117.404 67.1654 117.642C68.1003 117.717 69.0553 117.516 69.9692 117.752C70.8831 117.988 71.7827 118.893 71.636 119.943C71.3845 121.743 72.1686 123.715 71.958 125.522C71.5745 128.814 67.4587 130.26 67.1051 133.556C67.0277 134.278 67.1489 135.023 66.9974 135.729C66.8117 136.595 66.2386 137.3 66.0349 138.161C65.649 139.791 66.6789 141.414 67.8103 142.512C68.9418 143.609 70.2913 144.555 70.9099 146.091C71.5637 147.714 71.2426 149.607 71.4552 151.375C71.9194 155.236 74.8587 158.098 77.8837 159.943C78.8053 160.506 79.7949 161.05 80.3914 162.025C81.17 163.298 81.0925 164.977 81.3525 166.498C81.9892 170.223 84.7536 173.293 84.8321 177.086C84.8879 179.783 83.5667 182.229 82.7774 184.773C82.0375 187.211 81.7697 189.801 81.9924 192.367C82.2151 194.932 82.923 197.414 84.0678 199.641C84.6582 200.772 85.3643 201.838 85.782 203.064C86.5273 205.252 86.2855 207.739 86.9727 209.952C87.8812 212.876 90.3777 215.292 90.1388 218.382C91.2722 221.052 93.7749 222.364 96.2916 223.158L100.802 224.583C101.666 224.855 102.568 225.13 103.447 224.933C104.327 224.735 105.166 223.907 105.143 222.89C102.932 222.324 100.649 221.723 98.8255 220.194C97.0022 218.665 95.7532 215.942 96.445 213.492C96.7658 212.356 97.4483 211.045 96.7994 210.106C96.428 209.569 95.7487 209.428 95.3296 208.938C94.6761 208.173 94.9006 206.888 95.3705 205.966C95.8403 205.044 96.5194 204.22 96.709 203.177C96.8046 202.593 96.7407 201.99 96.5258 201.449C96.3108 200.908 95.9551 200.454 95.5064 200.149C96.3427 199.79 97.1033 199.237 97.7389 198.524C98.326 197.763 98.5972 196.59 98.1353 195.726C99.5068 195.923 101.126 196.02 102.026 194.83C102.745 193.879 102.696 192.458 102.412 191.248C102.128 190.038 101.648 188.862 101.633 187.61C104.796 187.78 107.967 187.658 111.113 187.245C110.658 185.507 109.624 184.038 108.231 183.15C109.656 182.877 110.954 180.941 111.404 179.383C111.854 177.825 111.74 176.128 111.461 174.519C111.354 174.105 111.34 173.667 111.419 173.245C111.579 172.665 112.081 172.311 112.546 172.008L119.619 167.4C120.041 167.16 120.424 166.84 120.75 166.453C121.491 165.465 121.382 163.975 121.002 162.751C120.623 161.528 120.015 160.378 119.869 159.091C119.432 155.245 123.061 152.485 124.286 148.864C124.767 147.443 124.865 145.898 124.958 144.38C125.058 142.749 125.065 140.854 123.962 139.803C122.904 138.796 121.25 139.021 120.143 138.084C119.128 137.225 118.778 135.556 117.669 134.862C116.662 134.232 115.399 134.633 114.279 134.336C112.307 133.814 111.066 131.236 109.052 130.997C107.916 130.863 106.63 131.493 105.698 130.742C104.878 130.08 104.845 128.751 104.688 127.622C104.415 125.869 103.674 124.253 102.566 122.991C101.457 121.73 100.035 120.885 98.4904 120.568C97.3187 120.355 96.0434 120.436 95.0467 119.706C94.0374 118.966 93.5746 117.581 92.7818 116.557C91.504 114.906 89.4916 114.32 87.6065 113.817L79.9385 111.772C78.5773 111.409 76.8227 111.216 76.0922 112.569C75.876 113.084 75.7229 113.63 75.6372 114.192C75.3635 115.209 74.8127 116.101 74.0639 116.741C73.3151 117.38 72.4069 117.734 71.4698 117.751C70.8272 116.507 69.786 115.593 68.5636 115.2C67.7861 114.954 66.9538 114.927 66.2122 114.565C65.8084 114.341 65.449 114.027 65.1561 113.64C64.8631 113.253 64.6429 112.803 64.5087 112.316C64.3745 111.83 64.3293 111.317 64.3758 110.81C64.4223 110.303 64.5595 109.812 64.7791 109.367C65.2212 108.474 65.3919 107.441 65.2649 106.427C65.1379 105.413 64.7203 104.475 64.0765 103.757C62.7725 102.429 60.8861 102.108 59.1376 102.241C58.6797 101.107 59.4454 99.828 60.2705 99.0042C61.0957 98.1804 62.0976 97.3705 62.2773 96.1403C62.56 94.2052 60.3835 92.7354 58.731 93.3124C57.0785 93.8894 56.0238 95.7103 55.3266 97.5053C54.9265 98.5351 54.5864 99.6196 53.9554 100.488C53.3244 101.356 52.3083 101.978 51.3471 101.699C49.9864 101.305 49.4609 99.471 49.1597 97.9147C48.7557 95.8268 48.3493 93.7099 48.4339 91.5744C48.5186 89.4388 49.1532 87.2461 50.5413 85.8005C52.8032 83.4447 56.2731 83.6756 59.3258 84.0514C58.6046 83.1296 58.7828 81.576 59.5545 80.7083C59.9618 80.2977 60.4513 80.006 60.9805 79.8585C61.5097 79.7111 62.0626 79.7122 62.5913 79.8619C63.5111 80.0792 64.3398 80.6412 64.9439 81.4577C65.8113 82.6575 66.058 84.2775 66.7137 85.6394C67.3694 87.0013 68.8438 88.1629 70.0506 87.4323C71.0929 86.8012 71.2583 85.1615 70.9989 83.8539C70.7395 82.5462 70.1885 81.2747 70.2825 79.9385C70.4618 77.3891 72.7914 75.8545 74.8471 74.8045C76.9028 73.7546 79.2566 72.3425 79.5823 69.8118C79.5935 69.3163 79.6759 68.8262 79.8263 68.3608C80.0542 67.9498 80.3711 67.6117 80.7467 67.3789C86.7463 62.8808 92.8457 58.3279 99.703 55.8701C100.06 55.7422 100.102 55.8843 100.465 55.7841C100.974 55.4505 100.637 54.5276 100.149 54.1558C99.6611 53.784 99.009 53.4988 98.8853 52.847C98.7943 52.3679 99.0431 51.8975 99.1078 51.4129C99.2666 50.222 98.0109 49.1226 97.0357 49.5987C96.4849 48.7711 97.5748 47.8095 98.4561 47.5342C101.103 46.708 103.819 46.2045 106.56 46.0325C106.876 45.9754 107.2 46.0379 107.482 46.2104C107.942 46.5721 107.883 47.4018 107.557 47.9181C107.231 48.4344 106.723 48.7586 106.317 49.1954C105.873 49.6863 105.556 50.3061 105.401 50.9873C105.246 51.6684 105.259 52.3847 105.439 53.058C106.87 53.8837 108.425 54.7336 110.01 54.4427C111.594 54.1518 113.001 52.132 112.256 50.5189C111.562 49.0167 109.479 48.6779 109.121 47.0315C108.701 45.1039 111.106 43.3896 110.565 41.5016C110.327 40.6746 109.601 40.188 109.043 39.5909C108.385 38.8589 107.937 37.9181 107.759 36.8921C107.58 35.8661 107.679 34.8028 108.043 33.8419C107.135 34.0232 106.202 33.9547 105.322 33.6424C104.442 33.33 103.641 32.7828 102.986 32.0467C101.777 30.662 100.812 28.4775 99.0944 28.5395C97.5182 28.5963 96.1607 30.6824 94.6869 30.0459C94.3243 29.8894 93.942 29.5707 93.5907 29.7574C93.4756 29.8422 93.379 29.9556 93.3081 30.089C93.2373 30.2224 93.1941 30.3723 93.1818 30.5274C92.8073 32.5588 93.4516 34.8732 92.4757 36.6286C91.4137 38.5387 88.9573 38.8036 87.6698 40.5261C86.9709 41.4611 86.7002 42.721 86.0578 43.7068C85.4154 44.6926 84.0519 45.3193 83.281 44.4603C83.6599 43.5766 83.7634 42.5733 83.5745 41.6144C83.3857 40.6554 82.9157 39.7974 82.2413 39.1807C81.5256 38.651 80.754 38.2252 79.9448 37.9135C79.0406 37.4793 78.1804 36.9354 77.3792 36.2914C76.9779 36.0167 76.6518 35.6209 76.4374 35.1481C76.2678 34.5561 76.2906 33.9148 76.5018 33.3402C76.8927 32.0687 77.5823 30.9425 78.4962 30.0832C79.4101 29.2239 80.5136 28.6641 81.6874 28.4643C82.7138 28.3058 83.9085 28.3617 84.5878 27.4744C84.9472 27.005 85.1358 26.2952 85.6575 26.1045C85.9912 26.0285 86.3377 26.0769 86.6451 26.2425L90.4763 27.7724C90.9038 27.9913 91.3743 28.0796 91.8412 28.0284C92.0726 27.9931 92.2838 27.8597 92.4322 27.6551C92.5806 27.4505 92.6553 27.1897 92.6413 26.9252C92.5189 26.2035 91.5399 25.8571 91.629 25.1291C91.6788 24.8931 91.7907 24.6799 91.9496 24.5176C93.3322 22.8481 95.0231 21.5461 96.9013 20.7047C98.7794 19.8633 100.798 19.5034 102.813 19.6508C103.297 20.5517 102.532 21.6187 101.896 22.3878C101.259 23.1569 100.748 24.5312 101.518 25.1232C101.833 25.3058 102.184 25.3955 102.538 25.3839C103.481 25.5287 104.398 25.8441 105.253 26.3181C106.577 26.9717 107.875 27.6869 109.148 28.4636C109.036 27.5113 108.929 26.5081 109.247 25.6177C109.565 24.7273 110.469 24.0289 111.259 24.3757C112.02 24.7098 112.411 25.8532 113.221 25.958C114.303 26.0977 114.73 24.2847 114.278 23.161C113.826 22.0373 112.932 21.0963 112.857 19.8641C112.807 19.0328 113.086 18.0018 112.5 17.4984C112.292 17.3473 112.056 17.2532 111.81 17.2237L97.1943 14.1726C96.3264 13.9914 95.0724 14.1302 95.034 15.1304C95.0125 15.6887 95.4521 16.241 95.2574 16.7543C95.0496 17.3021 94.3669 17.252 93.8697 17.4458C93.0982 17.7465 92.7111 18.7857 92.7852 19.7073C92.9209 20.623 93.2335 21.4934 93.7006 22.2559C92.75 21.8048 91.3105 21.7219 90.3599 21.2709Z" fill="#3F3D56" fill-opacity="0.15"/>
<path d="M78.1509 7.25744C77.2913 6.9298 76.365 6.91454 75.4976 7.21372C74.6302 7.51291 73.8636 8.11207 73.3019 8.92998C73.0774 9.27036 72.8889 9.73958 73.0768 10.1082C73.3462 10.6366 74.0327 10.4279 74.5388 10.2388C75.2827 9.93275 76.0923 9.9105 76.848 10.1754C77.3232 10.3633 77.7484 10.6954 78.2257 10.8762C78.458 10.9882 78.7125 11.0251 78.9617 10.9832C79.2109 10.9413 79.4455 10.822 79.6403 10.6382C79.9678 10.2534 79.9884 9.65518 79.989 9.11629C80.0117 8.93597 79.9992 8.75208 79.9523 8.57805C79.9055 8.40402 79.8255 8.24422 79.7182 8.11033C79.5271 7.98288 79.3124 7.90975 79.0919 7.89699C78.5981 7.79171 78.1516 7.49125 77.8295 7.04743" fill="#3F3D56" fill-opacity="0.15"/>
<path d="M83.4885 5.00191C83.2466 4.98989 83.0055 5.03484 82.7882 5.13245C82.5709 5.23006 82.3848 5.37704 82.2477 5.55925C82.1107 5.74146 82.0273 5.95277 82.0057 6.17288C81.984 6.39298 82.0247 6.61447 82.124 6.81605C82.8667 7.00086 83.6427 7.04703 84.4054 6.95178C84.7858 6.89789 85.1403 6.74245 85.424 6.50506C85.7078 6.26766 85.9082 5.95894 86 5.61779C85.102 5.7669 84.1753 5.60542 83.4008 5.16484" fill="#3F3D56" fill-opacity="0.15"/>
<path d="M100.929 2.76323C99.2256 3.1683 97.5713 3.79701 96 4.63629C96.7407 4.95481 97.3704 5.5311 97.7962 6.28024C98.222 7.02938 98.4215 7.91173 98.3652 8.79726C98.2987 9.13723 98.3064 9.4901 98.3876 9.82604C98.5686 10.317 99.0932 10.5012 99.5543 10.6272C100.383 10.9093 101.248 11.0328 102.113 10.9926C102.546 10.9672 102.966 10.8216 103.336 10.5687C103.706 10.3159 104.014 9.9639 104.231 9.54456C104.357 9.14657 104.504 8.75756 104.672 8.37972C105.777 6.49644 109.061 8.77361 110.248 6.95339C110.666 6.31219 110.628 5.34702 111.173 4.83893C111.454 4.61756 111.781 4.47808 112.123 4.43304C114.51 3.90258 116.921 3.51848 119.345 3.28245C120.493 3.17063 121.99 2.70925 122 1.4195C117.674 0.468971 113.188 1.14407 109.24 3.33986C107.818 4.13687 105.936 5.8134 104.566 4.75676C104.053 4.36113 104.079 3.29581 103.372 2.85094C102.651 2.39611 101.695 2.5811 100.929 2.76323Z" fill="#3F3D56" fill-opacity="0.15"/>
<path d="M115.721 5.16382L117.763 5.61784C117.387 5.59858 117.012 5.67228 116.663 5.83405C116.314 5.99582 115.998 6.24193 115.737 6.55595C115.477 6.86997 115.277 7.24469 115.152 7.65511C115.026 8.06552 114.978 8.5022 115.01 8.93599C116.922 9.67518 119.006 8.95587 121.021 9.05413C123.035 9.15239 125.379 10.8173 125.035 13.1161C124.931 13.8111 124.584 14.5057 124.764 15.1795C124.891 15.6517 125.251 15.9868 125.454 16.4218C125.877 17.3281 125.539 18.4745 125.004 19.2984C124.47 20.1222 123.751 20.7796 123.282 21.6552C122.115 23.8328 122.778 26.6481 123.473 29.0809C123.674 30.0002 124.045 30.8579 124.561 31.5948C125.591 32.862 127.269 32.9722 128.772 32.9976C129.867 33.016 131.12 32.9535 131.812 31.9726C132.715 30.6921 132.083 28.6941 132.678 27.1912C133.218 25.8262 134.594 25.2406 135.841 24.8253C138.125 24.0644 140.452 23.4176 142.612 22.2683C145.293 20.8412 147.799 18.6172 150.746 18.4335C151.573 18.382 152.42 18.4949 153.216 18.2328C154.013 17.9706 154.769 17.1739 154.709 16.2183C154.657 15.4019 154.06 14.8023 153.594 14.1868C153.128 13.5714 152.761 12.6249 153.19 11.9737L160.915 10.3042C160.367 8.57744 159.94 6.3033 161.199 5.17935C161.653 4.77382 162.26 4.61174 162.647 4.12148C163.306 3.28589 162.974 1.8465 162.214 1.13588C161.454 0.425259 160.425 0.260292 159.451 0.166663C156.064 -0.158839 152.658 0.0562458 149.264 0.271498C142.63 0.692268 135.996 1.11304 129.363 1.53381C128.027 1.61851 126.485 1.48911 125.261 2.01631C124.224 2.46263 123.487 3.28191 122.301 3.56976C120.111 4.10115 117.702 3.74157 115.721 5.16382Z" fill="#3F3D56" fill-opacity="0.15"/>
<path d="M151.905 23.724C151.679 23.686 151.448 23.7417 151.26 23.8799C151.135 24.0259 151.061 24.2129 151.049 24.4098C150.906 25.279 151.077 26.1736 151.527 26.9146C151.756 27.2781 152.073 27.5697 152.444 27.7589C152.815 27.9482 153.227 28.0284 153.637 27.9911C154.635 27.8555 155.371 26.9486 156.29 26.506C157.705 25.8245 163.715 24.7621 159.558 22.3714C158.125 21.5474 157.199 22.2748 156.07 22.8174C154.785 23.517 153.345 23.8304 151.905 23.724V23.724Z" fill="#3F3D56" fill-opacity="0.15"/>
<path d="M186.218 4.39573C185.753 4.59015 185.364 4.93668 185.112 5.38121C184.996 5.60693 184.969 5.86974 185.037 6.11526C185.104 6.36078 185.262 6.57022 185.476 6.70025C185.65 6.7647 185.834 6.79458 186.018 6.78831L187.908 6.84612C188.711 6.87067 189.714 7.04574 189.93 7.83788C190.09 8.42606 189.731 9.18189 190.164 9.60222C190.35 9.74942 190.573 9.83857 190.807 9.85894C191.429 10.0227 192.079 10.0442 192.711 9.92187C194.086 9.54424 193.364 8.68498 193.797 7.91988C194.459 6.74921 194.345 7.45787 195.512 6.78694C196.374 6.29145 197.489 5.39262 196.769 4.12975C195.517 1.93364 188.065 3.45229 186.218 4.39573Z" fill="#3F3D56" fill-opacity="0.15"/>
<path d="M222.684 3.22992L221.555 3.39123C219.01 3.755 216.451 4.1221 214 4.9407C215.061 5.39003 216.174 5.68261 217.309 5.81037C217.933 5.84317 218.554 5.93764 219.162 6.09258C220.245 6.43779 221.336 7.32924 222.382 6.87259C223.03 6.58945 223.242 5.86618 223.779 5.48286C224.15 5.21818 225.557 4.78977 225.714 4.52262C226.986 2.36288 223.661 3.09021 222.684 3.22992Z" fill="#3F3D56" fill-opacity="0.15"/>
<path d="M227.1 8.117C225.619 9.01653 224.245 10.1096 223.009 11.3718C222.488 11.9037 221.956 12.5653 222.003 13.3402C222.066 14.3701 223.076 14.9675 223.951 15.37L227.495 17C227.925 16.3417 227.531 15.433 227.087 14.7861C226.642 14.1392 226.114 13.3907 226.311 12.6122C226.535 11.7239 227.532 11.4211 228.368 11.2681C229.73 11.0187 233.405 11.0387 232.963 8.65371C232.443 5.84343 228.467 7.28664 227.1 8.117Z" fill="#3F3D56" fill-opacity="0.15"/>
<path d="M226.23 168.427C225.909 169.51 225.879 170.786 226.433 171.731C227.056 172.792 228.302 173.187 229.38 172.918C230.453 172.585 231.41 171.868 232.116 170.867C232.761 170.029 233.291 169.08 233.689 168.054C234.244 166.454 234.636 164.784 234.855 163.077L235.901 156.673C236.135 155.241 236.126 150.853 233.87 152.283C233.254 152.673 231.827 155.757 231.181 156.632C230.017 158.208 229.863 159.737 229.25 161.647C228.482 164.038 226.939 166.032 226.23 168.427Z" fill="#3F3D56" fill-opacity="0.15"/>
<path d="M346.397 200.206C345.621 199.866 344.867 199.463 344.143 199C343.416 201.245 343.03 203.611 343 206L348.311 202.622C349.11 202.114 350.016 201.407 349.999 200.376C350.006 200.248 349.982 200.121 349.931 200.007C349.879 199.894 349.801 199.798 349.705 199.73C349.587 199.676 349.459 199.659 349.333 199.681C348.545 199.754 347.827 200.19 347.084 200.493C346.341 200.796 345.472 200.956 344.791 200.506" fill="#3F3D56" fill-opacity="0.15"/>
<path d="M373.536 202.015C372.957 202.188 372.392 202.409 371.846 202.679C370.637 203.352 369.814 204.63 368.726 205.517C367.685 206.365 366.431 206.831 365.2 207.284C364.838 207.634 365.005 208.339 365.398 208.647C365.82 208.91 366.305 209.029 366.789 208.989C368.068 209.02 369.415 209.033 370.535 208.358C371.166 207.91 371.756 207.397 372.298 206.827C373.607 205.632 375.179 204.843 376.736 204.081C377.302 203.847 377.826 203.504 378.283 203.069C379.261 202.015 379.33 200.389 377.919 200.03C376.78 199.74 374.621 201.631 373.536 202.015Z" fill="#3F3D56" fill-opacity="0.15"/>
<path d="M384.706 193.962C384.77 193.233 384.681 192.497 384.445 191.811C384.21 191.124 383.835 190.505 383.347 190C383.333 191.459 383.292 193.014 382.539 194.221C382.002 195.08 381.16 195.661 380.572 196.48C379.983 197.299 379.722 198.597 380.412 199.316C380.853 199.681 381.39 199.883 381.945 199.891C383.318 200.067 384.908 200.165 385.871 199.084C386.397 198.494 386.653 197.621 387.294 197.187C387.533 197.078 387.746 196.911 387.918 196.7C388.183 196.242 387.762 195.638 387.289 195.473C386.815 195.307 386.293 195.385 385.817 195.228C385.341 195.071 384.905 194.488 385.149 194.017" fill="#3F3D56" fill-opacity="0.15"/>
<path d="M363.916 140.021C363.249 140.212 362.559 140.259 361.879 140.162C360.748 139.918 359.868 138.917 358.955 138.096C356.785 136.155 354.147 135.072 351.42 135.003C348.94 134.948 346.436 135.737 344 135.186C344.159 136.227 344.917 137.007 345.725 137.471C346.533 137.934 347.425 138.168 348.238 138.622C349.538 139.357 350.57 140.618 351.143 142.174C351.405 142.891 351.57 143.672 351.966 144.298C352.776 145.579 354.311 145.86 355.666 145.755C357.432 145.618 359.277 145.022 360.92 145.795C362.177 146.386 363.077 147.679 364.126 148.684C365.176 149.689 366.654 150.435 367.86 149.71C366.608 149.234 365.518 148.3 364.75 147.045C363.982 145.79 363.575 144.279 363.589 142.733C364.771 142.86 368.176 142.811 367.993 140.451C367.837 138.451 364.931 139.805 363.916 140.021Z" fill="#3F3D56" fill-opacity="0.15"/>
<path d="M347.371 156.807C347.588 155.462 348.77 154.274 348.402 152.972C348.147 152.071 347.227 151.627 346.393 151.605C345.56 151.583 344.741 151.864 343.908 151.891C343.365 151.858 342.822 151.867 342.28 151.917C340.626 152.225 339.606 154.192 338.047 154.891C337.099 155.316 336.034 155.235 335.048 155.529C332.81 156.196 331.394 158.595 329.83 160.529C327.302 163.64 324.009 165.818 320.377 166.781C319.105 167.116 317.737 167.329 316.726 168.267C315.386 169.508 315.056 171.636 314.758 173.569C313.935 178.906 312.677 184.144 311 189.218L316.314 189.987C317.324 190.133 318.371 190.277 319.345 189.937C320.052 189.635 320.722 189.23 321.338 188.733C323.705 187.066 326.354 185.982 329.113 185.549C330.505 185.333 331.964 185.293 333.27 185.88C334.576 186.466 335.696 187.797 335.806 189.385C336.37 189.186 336.972 189.164 337.547 189.323C338.122 189.482 338.648 189.814 339.068 190.285C339.901 191.247 340.446 192.481 340.626 193.813C340.766 194.637 340.906 195.625 341.581 195.971C342.131 196.253 342.763 195.949 343.365 195.895C345.408 195.709 347.103 198.411 349.111 197.946C351.265 197.447 351.794 193.789 353.895 193.056C355.102 192.635 356.794 193.147 357.372 191.874C357.881 190.751 356.865 189.456 356.97 188.2C357.099 186.653 358.708 185.996 359.948 185.336C364.225 183.06 366.254 176.532 364.182 171.717C362.954 168.864 360.538 166.619 360.092 163.485C359.749 161.073 360.587 158.262 359.231 156.364C358.542 155.398 357.375 154.865 356.964 153.713C356.706 152.988 356.81 152.165 356.671 151.399C356.532 150.633 355.943 149.832 355.276 150.031C353.34 150.607 352.722 157.39 351.685 159.038C350.11 161.544 346.875 159.893 347.371 156.807Z" fill="#3F3D56" fill-opacity="0.15"/>
<path d="M311.775 142.309C311.108 142.066 310.379 141.827 309.74 142.174C309.101 142.522 308.728 143.741 309.241 144.346C313.254 144.143 317.293 143.941 321.272 144.65C325.857 145.466 330.395 147.487 335 146.892C332.369 145.884 329.695 145.077 326.992 144.478L322.483 143.359C321.274 143.029 320.052 142.784 318.823 142.623C316.251 142.347 314.304 143.231 311.775 142.309Z" fill="#3F3D56" fill-opacity="0.15"/>
<path d="M315.853 126.594C315.519 126.561 315.106 126.534 314.933 126.865C314.768 127.181 314.957 127.6 314.868 127.954C314.747 128.439 314.196 128.563 313.763 128.497C313.329 128.431 312.86 128.273 312.476 128.514C312.281 128.668 312.134 128.89 312.058 129.148C311.982 129.406 311.981 129.685 312.054 129.944C312.211 130.457 312.465 130.925 312.798 131.311C313.366 132.137 314.013 132.887 314.728 133.545C316.111 134.722 317.984 135.289 318.855 136.998C318.978 137.33 319.166 137.623 319.406 137.854C319.824 138.159 320.369 137.927 320.819 137.69L322.397 136.858C322.682 136.74 322.935 136.541 323.135 136.28C323.495 135.715 323.274 134.913 322.971 134.305C322.669 133.697 322.282 133.068 322.346 132.372C322.462 131.129 323.847 130.654 324.417 129.591C324.991 128.519 324.617 127.139 324.683 125.881C324.761 124.411 325.562 122.498 324.273 121.399C323.178 120.466 322.131 121.328 321.344 122.359C319.686 124.533 318.902 126.887 315.853 126.594Z" fill="#3F3D56" fill-opacity="0.15"/>
<path d="M325.303 105.207C325.863 106.377 327.031 107.074 327.643 108.213C328.305 109.447 328.229 111.042 328.948 112.238C329.685 113.466 331.169 114.117 331.582 115.513C332.033 117.038 331.009 118.89 331.826 120.222C331.978 120.439 332.17 120.62 332.39 120.753C332.609 120.885 332.852 120.967 333.102 120.992C333.352 121.017 333.604 120.985 333.842 120.898C334.081 120.812 334.3 120.672 334.486 120.488C334.83 120.08 335.014 119.541 334.999 118.987C334.984 118.432 334.771 117.906 334.405 117.521C333.922 117.041 333.228 116.833 332.824 116.272C332.614 115.949 332.474 115.577 332.415 115.186C332.195 114.057 332.23 112.887 332.518 111.777C332.626 111.495 332.653 111.184 332.596 110.885C332.415 110.31 331.7 110.269 331.198 110.002C330.058 109.396 330.086 107.643 330.285 106.277C330.152 107.186 327.182 105.64 326.87 105.126C326.252 104.103 326.589 102.13 326.466 101C325.132 101.701 324.618 103.778 325.303 105.207Z" fill="#3F3D56" fill-opacity="0.15"/>
<path d="M297.401 123.071C296.914 122.41 296.179 121.719 295.526 122.117C295.027 122.421 294.89 123.257 295.085 123.89C295.324 124.505 295.69 125.034 296.149 125.424C297.511 126.784 298.978 128.012 300.166 129.592C302.293 132.421 303.42 136.238 305.732 138.845C306.197 139.449 306.813 139.852 307.485 139.993C308.159 140.069 308.916 139.546 308.993 138.733C309.057 138.062 308.671 137.462 308.293 136.966C307.395 135.783 306.412 134.694 305.563 133.458C305.172 132.983 304.925 132.361 304.865 131.694C304.861 131.028 305.362 130.332 305.895 130.496C305.247 130.296 304.767 128.989 303.816 128.744C303.021 128.539 302.829 129.134 301.883 128.643C300.08 127.707 298.665 124.782 297.401 123.071Z" fill="#3F3D56" fill-opacity="0.15"/>
<path d="M341.855 57.7918C341.321 57.6001 340.796 57.3735 340.283 57.1131C338.901 56.6118 337.074 57.8392 337.258 59.5685C337.38 60.7174 338.265 61.492 338.753 62.4886C339.478 63.9666 339.285 65.8411 338.904 67.4962C338.81 68.0087 338.633 68.4932 338.381 68.921C338.03 69.3726 337.609 69.7381 337.143 69.9974C335.278 71.262 333.633 72.9515 332.299 74.9726C332.154 75.1593 332.053 75.3895 332.006 75.6393C331.94 76.2232 332.426 76.6485 332.7 77.1354C333.31 78.2171 332.869 79.6727 332.929 80.9796C332.92 81.1644 332.95 81.349 333.016 81.5159C333.083 81.6828 333.183 81.8264 333.308 81.9332C333.676 82.1589 334.111 81.7756 334.31 81.3393C334.971 79.8917 334.474 77.5679 335.714 76.8699C335.948 76.7379 336.233 76.6822 336.389 76.4331C336.637 76.038 336.398 75.4529 336.524 74.9806C336.712 74.2715 337.515 74.2396 338.131 74.2711C339.191 74.3247 340.252 74.1541 341.264 73.7669C341.661 73.6528 342.021 73.4003 342.301 73.0409C342.672 72.4816 342.639 71.6865 342.565 70.9755C342.194 67.4308 341.265 64.0048 339.828 60.8822C340.918 61.0504 342.103 61.1961 343.043 60.5099C343.569 60.1256 344.2 58.9765 343.939 58.1943C343.526 56.9575 342.781 57.9986 341.855 57.7918Z" fill="#3F3D56" fill-opacity="0.15"/>
<path d="M196.924 77.0811C197.06 77.9097 197.195 78.7821 196.954 79.58C196.714 80.3779 195.959 81.0445 195.245 80.8C194.691 80.6103 194.372 79.9809 193.978 79.501C191.792 76.8325 186.859 78.3775 185.508 75.0761C184.956 73.7287 185.331 72.1144 184.955 70.692C184.718 69.87 184.246 69.1603 183.613 68.6744C182.98 68.1885 182.223 67.9539 181.46 68.0075C180.763 68.1212 180.085 68.3499 179.448 68.6863C175.177 70.6199 170.694 71.8876 166.12 72.4546C165.251 72.5145 164.392 72.6913 163.56 72.9813C161.682 73.7509 160.399 75.7189 159.486 77.7271C158.573 79.7353 157.899 81.9094 156.675 83.6935C155.388 85.5686 153.585 86.8817 151.903 88.3019C151.256 88.7739 150.716 89.413 150.33 90.1667C149.965 91.0128 149.986 91.997 150.014 92.9376L150.358 104.362C150.402 105.831 150.457 107.353 151.039 108.668C151.766 110.31 153.201 111.386 154.196 112.837C155.212 114.327 155.742 116.169 155.695 118.05C155.673 118.807 155.607 119.701 156.128 120.176C156.445 120.408 156.816 120.529 157.193 120.523L170.864 121.787C173.268 122.01 175.933 122.376 177.503 124.447C178.244 125.424 178.839 126.83 179.974 126.935C180.461 126.98 180.935 126.754 181.422 126.71C182.65 126.6 183.729 127.654 184.41 128.815C185.441 130.585 185.909 132.698 185.737 134.808C185.626 136.132 185.262 137.419 185.184 138.747C184.886 143.798 188.674 148.186 188.747 153.247C188.79 156.224 187.54 159.006 186.321 161.645C188.288 165.014 186.678 169.5 187.461 173.439C188.204 177.175 190.96 180.1 191.646 183.851C191.961 185.567 191.979 187.68 193.318 188.565C193.906 188.888 194.557 189.036 195.21 188.993C199.146 189.045 203.038 188.044 206.566 186.07C208.222 185.141 209.938 183.754 210.227 181.69C210.461 180.026 209.714 178.164 210.474 176.714C211.369 175.005 213.664 175.14 214.982 173.827C217.119 171.695 215.452 167.63 216.319 164.56C217.097 161.801 219.777 160.335 221.106 157.858C221.629 156.793 222.004 155.643 222.218 154.449C222.827 151.596 223.206 148.687 223.35 145.756C223.386 143.976 223.502 142.199 223.698 140.432C225.131 130.372 233.928 123.635 236.784 113.971C237.057 113.048 237.185 111.819 236.459 111.297C236.028 111.064 235.54 111.006 235.076 111.133L228.774 112.031C227.991 112.143 227.162 112.247 226.443 111.879C225.724 111.512 225.209 110.484 225.59 109.703C226.66 107.511 224.459 104.742 223.481 102.496C220.846 96.4481 217.71 90.6971 214.112 85.3206C213.882 85.044 213.738 84.6901 213.702 84.3125L215.49 84.3798C214.886 81.9308 213.89 79.2509 211.785 78.355C210.599 77.8502 209.286 78.0248 208.021 78.1029C204.396 78.3268 200.511 77.7082 196.924 77.0811Z" fill="#3F3D56" fill-opacity="0.15"/>
<path d="M208.14 22.4756C209.082 23.6065 210.139 24.8055 211.503 25.0026C213.912 25.3508 215.645 22.5366 216.748 20.0921C216.789 20.7153 217.043 21.2959 217.457 21.7105C217.871 22.125 218.412 22.3408 218.965 22.3119C219.559 22.1989 220.127 21.9482 220.632 21.5756C225.406 18.629 230.753 17.0678 236.193 17.0321C236.14 16.5667 236.243 16.0959 236.48 15.7105C236.717 15.3252 237.072 15.0527 237.476 14.9455C238.582 14.6978 239.578 15.7779 240.112 16.8999C240.645 18.0219 240.978 19.3224 241.826 20.1622C242.674 21.002 244.315 20.9654 244.65 19.7493C244.971 18.5817 243.894 17.586 243 16.8977C242.105 16.2093 241.162 14.9353 241.764 13.9194C246.335 12.7766 250.934 11.6295 255.611 11.4024C256.408 11.4337 257.201 11.2793 257.942 10.9488C258.656 10.5535 259.223 9.65606 259.031 8.78519C258.01 9.05619 256.941 8.97772 255.96 8.55977C254.979 8.14182 254.13 7.40334 253.522 6.43849C260.012 5.83359 266.915 5.318 272.666 8.76717C273.357 10.4407 269.839 11.833 270.78 13.3424C271.08 13.8239 271.682 13.8803 272.203 13.8912C276.2 13.9751 280.22 14.0572 284.171 13.3757C285.615 13.1266 287.074 12.775 288.524 12.977C290.939 13.3134 293.004 15.1334 295.38 15.7267C296.347 15.9682 297.431 15.9764 298.247 15.3412C299.062 14.7059 299.412 13.2594 298.744 12.4336C300.981 9.95728 304.694 10.571 307.645 11.7565C310.596 12.9421 313.392 14.8539 316.515 15.1182C318.755 15.3077 321.026 14.6272 323.239 15.0597C324.63 15.3315 325.924 16.0304 327.283 16.4597C329.854 17.2717 332.574 17.1003 335.243 17.1394C342.053 17.243 348.789 18.7549 355.118 21.6001C355.941 21.9028 356.695 22.4061 357.327 23.0745C357.916 23.7867 358.216 24.8934 357.82 25.7593L351.281 24.6801C351.897 26.05 353.491 26.2835 354.786 26.7561C356.08 27.2287 357.422 28.8432 356.644 30.1038C355.242 29.5994 353.971 31.1832 353.262 32.6404C352.554 34.0977 351.691 35.8429 350.221 35.9317C348.905 36.0111 347.313 34.7453 346.455 35.8755C347.64 37.5643 348.655 39.397 349.481 41.3397C350.329 43.3341 350.932 45.8472 349.787 47.6415C349.606 47.9619 349.333 48.2013 349.013 48.3187C348.078 48.5862 347.47 47.2935 346.799 46.51C345.954 45.5226 344.675 45.2429 343.53 44.7798C342.385 44.3168 341.179 43.4058 341.089 42.0359C341.034 41.1836 341.432 40.3913 341.725 39.6036C342.219 38.2758 342.434 36.8375 342.356 35.4003C342.292 34.2441 342.005 33.0414 341.269 32.2335C340.534 31.4257 339.265 31.1694 338.476 31.9093C338.108 32.2546 337.812 32.8068 337.334 32.8274C336.489 32.864 335.84 31.2 335.161 31.768C335.24 32.3732 335.129 32.9909 334.847 33.5129C332.818 35.5057 329.701 34.6627 327.086 35.3666C325.843 35.7686 324.652 36.356 323.546 37.1131C323.132 37.313 322.779 37.6468 322.533 38.0726C322.207 38.7891 322.567 39.7069 323.142 40.1833C323.753 40.606 324.438 40.8704 325.15 40.9573C328.338 41.6394 331.573 42.6952 334.091 45.0083C336.608 47.3215 338.259 51.1452 337.462 54.6984L331.174 47.9123C331.413 50.7616 331.549 53.6188 331.581 56.4838C331.622 57.0432 331.554 57.6059 331.382 58.1325C330.933 59.2508 329.719 59.6271 328.654 59.8739C328.358 59.9375 328.077 60.071 327.83 60.2659C327.583 60.4607 327.375 60.7124 327.22 61.0045C327.065 61.2965 326.967 61.6222 326.931 61.9603C326.895 62.2984 326.924 62.6411 327.014 62.9659C327.392 64.3585 328.335 65.4442 329.199 66.526C330.062 67.6078 330.912 68.8373 331.025 70.2883C331.138 71.7393 330.169 73.3748 328.882 73.2739C327.907 73.1974 327.184 72.2113 326.768 71.2121C326.352 70.2128 326.104 69.0996 325.479 68.2506C323.587 65.6807 319.338 66.7817 317.643 64.042C317.211 64.5955 316.912 65.2645 316.773 65.9856C316.634 66.7066 316.661 67.4557 316.851 68.1618C317.639 67.6043 318.718 68.1223 319.311 68.9323C319.903 69.7423 320.183 70.7809 320.648 71.6907C321.276 72.9183 322.275 74.0067 322.362 75.421C322.339 75.9558 322.347 76.4917 322.386 77.0253C322.542 77.8822 323.183 78.4975 323.628 79.2138C324.662 80.8804 324.611 83.1699 323.944 85.0609C323.277 86.9519 322.079 88.532 320.893 90.064C318.82 92.7397 316.706 95.3998 314.249 97.6219C313.547 98.2559 312.799 98.8794 312.363 99.7659C311.926 100.652 311.904 101.897 312.575 102.571C312.094 102.598 311.233 102.865 310.753 102.892C310.584 100.717 310.548 98.5306 310.643 96.3496C308.749 95.322 306.709 98.0739 306.953 100.432C307.198 102.79 308.708 104.682 309.783 106.722C310.569 108.213 311.153 109.953 310.89 111.663C310.628 113.374 309.276 114.952 307.745 114.801C305.31 114.561 304.291 110.612 301.879 110.16C301.666 110.103 301.443 110.128 301.244 110.231C300.886 110.453 300.824 110.994 300.804 111.455C300.705 113.716 300.62 116.067 301.401 118.152C302.545 121.201 305.498 123.763 304.879 127C301.541 125.248 299.806 121.02 299.018 116.96C298.23 112.899 298.099 108.636 296.686 104.797C295.614 106.35 293.36 105.066 292.38 103.438C291.451 101.894 290.879 100.107 289.978 98.5424C289.077 96.9775 287.696 95.5763 286.045 95.4902C284.314 95.4 282.813 96.7418 281.492 98.0095C280.407 99.052 279.292 100.136 278.657 101.577C277.734 103.674 277.975 106.146 277.931 108.487C277.883 111.019 277.408 113.69 275.88 115.543C274.353 117.396 271.533 118.042 269.848 116.371C268.969 115.499 268.543 114.197 268.164 112.946C266.335 106.918 264.812 100.777 263.602 94.5536C263.319 95.9741 262.215 97.805 261.16 96.9682C260.923 96.7433 260.731 96.4642 260.597 96.1493C258.629 92.3821 254.985 90.1224 251.303 88.7675C247.62 87.4127 243.746 86.7807 240.105 85.2916C238.064 84.4569 236.115 83.3603 234.296 82.0235C233.832 82.793 233.562 83.6899 233.512 84.6192C233.463 85.5484 233.638 86.4753 234.017 87.3018C234.825 88.9172 236.652 89.8518 238.217 89.2872C239.026 88.9954 239.708 88.3614 240.511 88.0483C241.313 87.7352 242.39 87.8889 242.741 88.762C243.076 89.5976 242.569 90.6085 242.821 91.481C243.204 92.8099 244.979 92.9122 245.599 94.1215C246.061 95.0212 245.681 96.216 245.022 96.942C244.363 97.668 243.483 98.0662 242.678 98.5716C240.068 100.211 238.211 103.011 235.929 105.189C233.648 107.367 230.428 108.957 227.709 107.56C228.357 103.852 224.447 101.131 223.728 97.4401C223.491 96.2254 223.614 94.9351 223.276 93.7514C222.787 92.0375 221.441 90.8591 220.336 89.5604C218.997 87.9679 217.953 86.0886 217.267 84.0333C216.581 81.9779 216.266 79.7882 216.342 77.5933C216.402 76.0681 216.65 74.5181 216.342 73.0314C216.034 71.5448 214.945 70.1059 213.594 70.1732C210.51 70.3271 206.625 70.5862 205.006 67.6166C204.429 66.5567 204.178 65.0045 205.013 64.1925C205.602 63.6196 206.471 63.6736 207.245 63.7595L214.194 64.5317C215.819 64.7122 217.576 64.8613 218.971 63.9016C220.366 62.9418 220.97 60.3943 219.678 59.2652C218.735 58.4402 217.044 58.485 216.77 57.1732C216.541 56.0808 217.612 54.8413 217.034 53.9283C216.619 53.2737 215.687 53.4553 215.122 53.946C214.557 54.4367 214.148 55.1544 213.516 55.526C212.407 56.1778 211.082 55.5575 209.889 55.1359C208.696 54.7143 207.096 54.6784 206.518 55.93C205.871 57.3296 207.092 59.1637 206.449 60.5662C205.6 62.4206 202.725 61.3649 201.532 62.96C200.164 64.7902 202.463 67.5194 202.002 69.8576C201.413 70.1872 200.758 70.3385 200.101 70.2969C199.445 70.2552 198.809 70.022 198.257 69.6199C197.713 69.2022 197.28 68.6259 197.003 67.9523C196.726 67.2786 196.616 66.5328 196.685 65.7942C196.799 64.7423 197.284 63.6686 196.959 62.6747C196.696 61.871 195.982 61.3926 195.318 60.9782L188.565 56.7633C187.938 58.077 188.73 59.7056 189.722 60.6923C190.713 61.6789 191.955 62.4221 192.606 63.7206C193.018 64.6203 193.11 65.6637 192.864 66.6377C192.618 67.6116 192.052 68.4428 191.281 68.9613C191.185 69.0366 191.075 69.0873 190.96 69.1101C190.844 69.1329 190.725 69.1271 190.612 69.0932C190.504 69.0217 190.41 68.9265 190.336 68.8132C190.261 68.7 190.208 68.5709 190.178 68.4338C188.986 64.9898 187.197 61.5942 184.337 59.7951C181.477 57.9961 177.368 58.3659 175.492 61.3966C175.047 62.1164 174.748 62.9369 174.36 63.698C172.298 67.7414 167.878 69.656 163.748 69.531C163.344 69.5562 162.943 69.4496 162.591 69.2237C161.923 68.7031 161.953 67.5983 162.056 66.6895L162.489 62.8326C162.576 62.0581 162.702 61.202 163.245 60.7185C164.01 60.037 165.114 60.4671 166.088 60.4512C166.826 60.4122 167.536 60.1178 168.121 59.6079C168.706 59.098 169.138 58.3972 169.358 57.6006C169.555 56.7962 169.554 55.9464 169.354 55.1427C169.155 54.339 168.766 53.612 168.228 53.0399C167.781 52.5662 167.182 51.9711 167.418 51.3325C167.512 51.1559 167.639 51.0047 167.79 50.8895C167.942 50.7744 168.114 50.6981 168.294 50.666C170.044 50.092 171.893 49.9415 173.614 49.2643C175.335 48.587 177.004 47.2013 177.411 45.1951C177.536 44.5803 177.593 43.8356 178.082 43.5308C178.327 43.4138 178.591 43.353 178.857 43.3519C179.79 43.202 180.639 42.663 181.238 41.8411C181.837 41.0192 182.141 39.9739 182.092 38.911C182.917 38.2601 184.072 38.7389 184.87 39.4312C185.668 40.1235 186.372 41.0381 187.343 41.3366C189.152 41.8927 190.901 40.0835 192.776 40.0751C193.564 40.0716 194.38 40.3864 195.122 40.0845C195.874 39.7784 196.323 38.9329 196.9 38.3083C197.477 37.6836 198.49 37.3027 199.023 37.9756L198.569 34.1788C199.483 34.4396 200.436 34.4765 201.364 34.287C202.291 34.0976 203.172 33.6862 203.947 33.0805L198.082 30.8421C197.878 30.7845 197.69 30.6708 197.534 30.5109C197.107 29.9923 197.531 29.1841 197.878 28.5946C198.707 27.1842 198.846 24.8611 197.482 24.1589C196.551 23.6797 195.482 24.2549 194.589 24.8178L190.308 27.5138C190.172 28.4329 191.167 28.9538 191.783 29.5728C192.157 29.9474 192.421 30.4407 192.541 30.9878C192.661 31.535 192.632 32.1105 192.458 32.6387C192.283 33.1669 191.971 33.6231 191.563 33.9474C191.155 34.2717 190.669 34.449 190.17 34.4559C190.452 34.8698 190.648 35.3501 190.743 35.8611C190.838 36.3722 190.831 36.9009 190.721 37.4081L187.84 37.6421C187.517 37.7155 187.181 37.6415 186.906 37.4361C186.598 37.1271 186.64 36.5856 186.568 36.1273C186.396 35.0211 185.437 34.2458 184.458 34.047C183.48 33.8482 182.478 34.103 181.509 34.3546C181.098 34.5219 180.646 34.5101 180.242 34.3215C180.01 34.1515 179.834 33.9003 179.74 33.6066C179.315 32.4429 179.712 31.0752 180.395 30.0801C181.077 29.085 182.011 28.3576 182.85 27.5291C184.857 25.5408 186.331 22.9584 187.106 20.0735C188.692 19.3232 190.333 18.3036 191.919 17.5533C194.363 16.1553 197.105 15.5554 199.835 15.821L205.204 15.9368C206.794 15.9711 208.427 16.0151 209.897 16.6996C211.367 17.3842 212.659 18.8649 212.76 20.6572C212.791 20.8601 212.775 21.0685 212.715 21.2627C212.655 21.457 212.552 21.6308 212.416 21.7678C212.208 21.8958 211.973 21.9557 211.737 21.9407C210.254 21.9995 209.622 22.4168 208.14 22.4756Z" fill="#3F3D56" fill-opacity="0.15"/>
<path d="M165.181 41.2098C165.377 40.9629 165.518 40.6489 165.588 40.3023C165.659 39.9557 165.656 39.5899 165.581 39.245C165.105 39.0001 164.586 38.9372 164.085 39.0635C163.583 39.1897 163.118 39.5 162.741 39.9595C162.444 40.3596 162.189 40.8102 161.98 41.2996C161.322 42.7309 160.74 44.4405 161.121 46.0404C161.152 46.2149 161.209 46.3793 161.289 46.5241C161.368 46.6688 161.469 46.791 161.584 46.8834C161.755 46.9748 161.939 47.0133 162.123 46.9959C162.848 46.9947 163.573 46.9352 164.293 46.818C164.735 46.7459 165.248 46.5796 165.419 46.0315C165.644 45.311 165.1 44.4957 165.259 43.7446C165.363 43.4088 165.521 43.1073 165.722 42.8612C165.821 42.7373 165.898 42.5841 165.945 42.4139C165.993 42.2437 166.01 42.0611 165.995 41.8807C165.931 41.5283 165.526 41.3283 165.38 41.6345" fill="#3F3D56" fill-opacity="0.15"/>
<path d="M169.204 35.1866C168.447 35.0073 167.667 34.9567 166.894 35.037C166.723 35.0317 166.554 35.0714 166.402 35.1524C166.255 35.2644 166.148 35.4239 166.099 35.6056C165.936 36.1461 165.976 36.7302 166.211 37.2415C166.447 37.7529 166.86 38.154 167.369 38.3649C167.647 38.4307 167.913 38.5409 168.157 38.6916C168.81 39.2146 168.394 40.2836 168.518 41.1272C168.657 42.0745 169.545 42.8697 169.382 43.8129C169.254 44.556 168.485 45.1444 168.609 45.8883C168.738 46.6675 169.697 46.9016 170.46 46.964C170.903 47.044 171.359 46.9901 171.772 46.8089C172.187 46.5163 172.482 46.0757 172.6 45.572C172.913 44.6117 173.044 43.5984 172.987 42.5869C172.984 42.1269 172.872 41.6747 172.661 41.2694C172.431 40.9483 172.176 40.6471 171.898 40.3687C170.435 38.6124 171.976 35.9926 169.204 35.1866Z" fill="#3F3D56" fill-opacity="0.15"/>
<path d="M46.5 106C48.9853 106 51 103.761 51 101C51 98.2386 48.9853 96 46.5 96C44.0147 96 42 98.2386 42 101C42 103.761 44.0147 106 46.5 106Z" fill="#39AC37"/>
<path d="M104.031 71.125C103.188 72.1354 101.995 72.9219 100.453 73.4844C98.9115 74.0365 97.2031 74.3125 95.3281 74.3125C93.3594 74.3125 91.6302 73.8854 90.1406 73.0312C88.6615 72.1667 87.5156 70.9167 86.7031 69.2812C85.901 67.6458 85.4896 65.724 85.4688 63.5156V61.9688C85.4688 59.6979 85.849 57.7344 86.6094 56.0781C87.3802 54.4115 88.4844 53.1406 89.9219 52.2656C91.3698 51.3802 93.0625 50.9375 95 50.9375C97.6979 50.9375 99.8073 51.5833 101.328 52.875C102.849 54.1562 103.75 56.026 104.031 58.4844H99.4688C99.2604 57.1823 98.7969 56.2292 98.0781 55.625C97.3698 55.0208 96.3906 54.7188 95.1406 54.7188C93.5469 54.7188 92.3333 55.3177 91.5 56.5156C90.6667 57.7135 90.2448 59.4948 90.2344 61.8594V63.3125C90.2344 65.6979 90.6875 67.5 91.5938 68.7188C92.5 69.9375 93.8281 70.5469 95.5781 70.5469C97.3385 70.5469 98.5938 70.1719 99.3438 69.4219V65.5H95.0781V62.0469H104.031V71.125ZM112.312 74H107.781V50H112.312V74ZM115.344 65.3906C115.344 63.7135 115.667 62.2188 116.312 60.9062C116.958 59.5938 117.885 58.5781 119.094 57.8594C120.312 57.1406 121.724 56.7812 123.328 56.7812C125.609 56.7812 127.469 57.4792 128.906 58.875C130.354 60.2708 131.161 62.1667 131.328 64.5625L131.359 65.7188C131.359 68.3125 130.635 70.3958 129.188 71.9688C127.74 73.5312 125.797 74.3125 123.359 74.3125C120.922 74.3125 118.974 73.5312 117.516 71.9688C116.068 70.4062 115.344 68.2812 115.344 65.5938V65.3906ZM119.859 65.7188C119.859 67.3229 120.161 68.5521 120.766 69.4062C121.37 70.25 122.234 70.6719 123.359 70.6719C124.453 70.6719 125.307 70.2552 125.922 69.4219C126.536 68.5781 126.844 67.2344 126.844 65.3906C126.844 63.8177 126.536 62.599 125.922 61.7344C125.307 60.8698 124.443 60.4375 123.328 60.4375C122.224 60.4375 121.37 60.8698 120.766 61.7344C120.161 62.5885 119.859 63.9167 119.859 65.7188ZM149.375 65.7031C149.375 68.4115 148.797 70.526 147.641 72.0469C146.484 73.5573 144.87 74.3125 142.797 74.3125C140.964 74.3125 139.5 73.6094 138.406 72.2031L138.203 74H134.141V50H138.656V58.6094C139.698 57.3906 141.068 56.7812 142.766 56.7812C144.828 56.7812 146.443 57.5417 147.609 59.0625C148.786 60.5729 149.375 62.7031 149.375 65.4531V65.7031ZM144.859 65.375C144.859 63.6667 144.589 62.4219 144.047 61.6406C143.505 60.849 142.698 60.4531 141.625 60.4531C140.188 60.4531 139.198 61.0417 138.656 62.2188V68.8906C139.208 70.0781 140.208 70.6719 141.656 70.6719C143.115 70.6719 144.073 69.9531 144.531 68.5156C144.75 67.8281 144.859 66.7812 144.859 65.375ZM161.969 74C161.76 73.5938 161.609 73.0885 161.516 72.4844C160.422 73.7031 159 74.3125 157.25 74.3125C155.594 74.3125 154.219 73.8333 153.125 72.875C152.042 71.9167 151.5 70.7083 151.5 69.25C151.5 67.4583 152.161 66.0833 153.484 65.125C154.818 64.1667 156.74 63.6823 159.25 63.6719H161.328V62.7031C161.328 61.9219 161.125 61.2969 160.719 60.8281C160.323 60.3594 159.693 60.125 158.828 60.125C158.068 60.125 157.469 60.3073 157.031 60.6719C156.604 61.0365 156.391 61.5365 156.391 62.1719H151.875C151.875 61.1927 152.177 60.2865 152.781 59.4531C153.385 58.6198 154.24 57.9688 155.344 57.5C156.448 57.0208 157.688 56.7812 159.062 56.7812C161.146 56.7812 162.797 57.3073 164.016 58.3594C165.245 59.401 165.859 60.8698 165.859 62.7656V70.0938C165.87 71.6979 166.094 72.9115 166.531 73.7344V74H161.969ZM158.234 70.8594C158.901 70.8594 159.516 70.7135 160.078 70.4219C160.641 70.1198 161.057 69.7188 161.328 69.2188V66.3125H159.641C157.38 66.3125 156.177 67.0938 156.031 68.6562L156.016 68.9219C156.016 69.4844 156.214 69.9479 156.609 70.3125C157.005 70.6771 157.547 70.8594 158.234 70.8594ZM174.094 74H169.562V50H174.094V74ZM182.594 74H178.062V50H182.594V74ZM192.641 67.6094L195.766 57.0938H200.609L193.812 76.625L193.438 77.5156C192.427 79.724 190.76 80.8281 188.438 80.8281C187.781 80.8281 187.115 80.7292 186.438 80.5312V77.1094L187.125 77.125C187.979 77.125 188.615 76.9948 189.031 76.7344C189.458 76.474 189.792 76.0417 190.031 75.4375L190.562 74.0469L184.641 57.0938H189.5L192.641 67.6094ZM227.875 51.25V66.2344C227.875 68.724 227.094 70.6927 225.531 72.1406C223.979 73.5885 221.854 74.3125 219.156 74.3125C216.5 74.3125 214.391 73.6094 212.828 72.2031C211.266 70.7969 210.469 68.8646 210.438 66.4062V51.25H215.125V66.2656C215.125 67.7552 215.479 68.8438 216.188 69.5312C216.906 70.2083 217.896 70.5469 219.156 70.5469C221.792 70.5469 223.13 69.1615 223.172 66.3906V51.25H227.875ZM235.578 57.0938L235.719 59.0469C236.927 57.5365 238.547 56.7812 240.578 56.7812C242.37 56.7812 243.703 57.3073 244.578 58.3594C245.453 59.4115 245.901 60.9844 245.922 63.0781V74H241.406V63.1875C241.406 62.2292 241.198 61.5365 240.781 61.1094C240.365 60.6719 239.672 60.4531 238.703 60.4531C237.432 60.4531 236.479 60.9948 235.844 62.0781V74H231.328V57.0938H235.578ZM254.125 74H249.594V57.0938H254.125V74ZM249.328 52.7188C249.328 52.0417 249.552 51.4844 250 51.0469C250.458 50.6094 251.078 50.3906 251.859 50.3906C252.63 50.3906 253.245 50.6094 253.703 51.0469C254.161 51.4844 254.391 52.0417 254.391 52.7188C254.391 53.4062 254.156 53.9688 253.688 54.4062C253.229 54.8438 252.62 55.0625 251.859 55.0625C251.099 55.0625 250.484 54.8438 250.016 54.4062C249.557 53.9688 249.328 53.4062 249.328 52.7188ZM257.156 65.3906C257.156 62.7344 257.745 60.6354 258.922 59.0938C260.109 57.5521 261.734 56.7812 263.797 56.7812C265.609 56.7812 267.052 57.474 268.125 58.8594L268.422 57.0938H272.391V80.5H267.859V72.5469C266.818 73.724 265.453 74.3125 263.766 74.3125C261.755 74.3125 260.151 73.5312 258.953 71.9688C257.755 70.4062 257.156 68.2135 257.156 65.3906ZM261.672 65.7188C261.672 67.3333 261.953 68.5625 262.516 69.4062C263.089 70.25 263.891 70.6719 264.922 70.6719C266.307 70.6719 267.286 70.1198 267.859 69.0156V62.0312C267.297 60.9688 266.328 60.4375 264.953 60.4375C263.911 60.4375 263.104 60.8594 262.531 61.7031C261.958 62.5469 261.672 63.8854 261.672 65.7188ZM286.078 72.2812C284.964 73.6354 283.422 74.3125 281.453 74.3125C279.641 74.3125 278.255 73.7917 277.297 72.75C276.349 71.7083 275.865 70.1823 275.844 68.1719V57.0938H280.359V68.0156C280.359 69.776 281.161 70.6562 282.766 70.6562C284.297 70.6562 285.349 70.125 285.922 69.0625V57.0938H290.453V74H286.203L286.078 72.2812ZM301.641 74.3125C299.161 74.3125 297.141 73.5521 295.578 72.0312C294.026 70.5104 293.25 68.4844 293.25 65.9531V65.5156C293.25 63.8177 293.578 62.3021 294.234 60.9688C294.891 59.625 295.818 58.5938 297.016 57.875C298.224 57.1458 299.599 56.7812 301.141 56.7812C303.453 56.7812 305.271 57.5104 306.594 58.9688C307.927 60.4271 308.594 62.4948 308.594 65.1719V67.0156H297.828C297.974 68.1198 298.411 69.0052 299.141 69.6719C299.88 70.3385 300.812 70.6719 301.938 70.6719C303.677 70.6719 305.036 70.0417 306.016 68.7812L308.234 71.2656C307.557 72.224 306.641 72.974 305.484 73.5156C304.328 74.0469 303.047 74.3125 301.641 74.3125ZM301.125 60.4375C300.229 60.4375 299.5 60.7396 298.938 61.3438C298.385 61.9479 298.031 62.8125 297.875 63.9375H304.156V63.5781C304.135 62.5781 303.865 61.8073 303.344 61.2656C302.823 60.7135 302.083 60.4375 301.125 60.4375Z" fill="#39AC37"/>
<path d="M68.4062 102.284C68.4062 104.383 67.9238 106.072 66.959 107.35C65.9941 108.619 64.6992 109.254 63.0742 109.254C61.3392 109.254 59.9977 108.64 59.0498 107.413L58.9355 109H56.7773V89.5H59.126V96.7744C60.0739 95.598 61.3815 95.0098 63.0488 95.0098C64.7161 95.0098 66.0238 95.6403 66.9717 96.9014C67.9281 98.1624 68.4062 99.889 68.4062 102.081V102.284ZM66.0576 102.018C66.0576 100.418 65.7487 99.1823 65.1309 98.3105C64.513 97.4388 63.6243 97.0029 62.4648 97.0029C60.916 97.0029 59.8031 97.7223 59.126 99.1611V105.103C59.8454 106.541 60.9668 107.261 62.4902 107.261C63.6159 107.261 64.4919 106.825 65.1182 105.953C65.7445 105.081 66.0576 103.77 66.0576 102.018ZM79.8574 107.642C78.9434 108.716 77.6019 109.254 75.833 109.254C74.3688 109.254 73.2516 108.831 72.4814 107.984C71.7197 107.13 71.3346 105.868 71.3262 104.201V95.2637H73.6748V104.138C73.6748 106.22 74.5212 107.261 76.2139 107.261C78.0081 107.261 79.2015 106.592 79.7939 105.255V95.2637H82.1426V109H79.9082L79.8574 107.642ZM91.2324 107.337C92.0703 107.337 92.8024 107.083 93.4287 106.575C94.055 106.067 94.402 105.433 94.4697 104.671H96.6914C96.6491 105.458 96.3783 106.207 95.8789 106.918C95.3796 107.629 94.7109 108.196 93.873 108.619C93.0436 109.042 92.1634 109.254 91.2324 109.254C89.362 109.254 87.8724 108.632 86.7637 107.388C85.6634 106.135 85.1133 104.425 85.1133 102.259V101.865C85.1133 100.528 85.3587 99.3389 85.8496 98.2979C86.3405 97.2568 87.043 96.4486 87.957 95.873C88.8796 95.2975 89.9671 95.0098 91.2197 95.0098C92.7601 95.0098 94.0381 95.471 95.0537 96.3936C96.0778 97.3161 96.6237 98.5137 96.6914 99.9863H94.4697C94.402 99.0977 94.0635 98.3698 93.4541 97.8027C92.8532 97.2272 92.1084 96.9395 91.2197 96.9395C90.0264 96.9395 89.0996 97.3711 88.4395 98.2344C87.7878 99.0892 87.4619 100.329 87.4619 101.954V102.398C87.4619 103.981 87.7878 105.2 88.4395 106.055C89.0911 106.91 90.0221 107.337 91.2324 107.337ZM103.166 102.64L101.693 104.176V109H99.3447V89.5H101.693V101.294L102.95 99.7832L107.229 95.2637H110.085L104.74 101.002L110.707 109H107.952L103.166 102.64ZM117.956 109.254C116.094 109.254 114.579 108.645 113.411 107.426C112.243 106.199 111.659 104.561 111.659 102.513V102.081C111.659 100.718 111.917 99.5039 112.434 98.4375C112.958 97.3626 113.686 96.5247 114.617 95.9238C115.557 95.3145 116.572 95.0098 117.664 95.0098C119.45 95.0098 120.838 95.598 121.828 96.7744C122.818 97.9508 123.313 99.6351 123.313 101.827V102.805H114.008C114.042 104.159 114.435 105.255 115.188 106.093C115.95 106.922 116.915 107.337 118.083 107.337C118.912 107.337 119.615 107.168 120.19 106.829C120.766 106.491 121.27 106.042 121.701 105.483L123.136 106.601C121.985 108.369 120.258 109.254 117.956 109.254ZM117.664 96.9395C116.716 96.9395 115.921 97.2865 115.277 97.9805C114.634 98.666 114.236 99.6309 114.084 100.875H120.965V100.697C120.897 99.5039 120.576 98.5814 120 97.9297C119.424 97.2695 118.646 96.9395 117.664 96.9395ZM129.229 91.9375V95.2637H131.794V97.0791H129.229V105.598C129.229 106.148 129.344 106.562 129.572 106.842C129.801 107.113 130.19 107.248 130.74 107.248C131.011 107.248 131.383 107.197 131.857 107.096V109C131.24 109.169 130.639 109.254 130.055 109.254C129.005 109.254 128.214 108.937 127.681 108.302C127.147 107.667 126.881 106.766 126.881 105.598V97.0791H124.38V95.2637H126.881V91.9375H129.229ZM143.22 95.2637L143.296 96.9902C144.345 95.6699 145.716 95.0098 147.409 95.0098C150.312 95.0098 151.776 96.6475 151.802 99.9229V109H149.453V99.9102C149.445 98.9199 149.216 98.1878 148.768 97.7139C148.327 97.2399 147.638 97.0029 146.698 97.0029C145.937 97.0029 145.268 97.2061 144.692 97.6123C144.117 98.0186 143.668 98.5518 143.347 99.2119V109H140.998V95.2637H143.22ZM163.824 109C163.689 108.729 163.579 108.247 163.494 107.553C162.402 108.687 161.099 109.254 159.584 109.254C158.23 109.254 157.117 108.873 156.245 108.111C155.382 107.341 154.95 106.368 154.95 105.191C154.95 103.761 155.492 102.652 156.575 101.865C157.667 101.07 159.199 100.672 161.171 100.672H163.456V99.5928C163.456 98.7718 163.211 98.1201 162.72 97.6377C162.229 97.1468 161.505 96.9014 160.549 96.9014C159.711 96.9014 159.008 97.113 158.441 97.5361C157.874 97.9593 157.591 98.4714 157.591 99.0723H155.229C155.229 98.3867 155.471 97.7266 155.953 97.0918C156.444 96.4486 157.104 95.9408 157.934 95.5684C158.771 95.196 159.69 95.0098 160.688 95.0098C162.271 95.0098 163.511 95.4076 164.408 96.2031C165.305 96.9902 165.771 98.0778 165.805 99.4658V105.788C165.805 107.049 165.965 108.052 166.287 108.797V109H163.824ZM159.927 107.21C160.663 107.21 161.361 107.02 162.021 106.639C162.682 106.258 163.16 105.763 163.456 105.153V102.335H161.615C158.738 102.335 157.299 103.177 157.299 104.861C157.299 105.598 157.544 106.173 158.035 106.588C158.526 107.003 159.157 107.21 159.927 107.21ZM171.695 95.2637L171.759 96.7871C172.766 95.6022 174.124 95.0098 175.834 95.0098C177.755 95.0098 179.063 95.7461 179.757 97.2188C180.214 96.5586 180.806 96.0254 181.534 95.6191C182.271 95.2129 183.138 95.0098 184.137 95.0098C187.15 95.0098 188.682 96.6051 188.732 99.7959V109H186.384V99.9355C186.384 98.9538 186.16 98.2217 185.711 97.7393C185.262 97.2484 184.509 97.0029 183.451 97.0029C182.579 97.0029 181.856 97.2653 181.28 97.79C180.705 98.3063 180.37 99.0046 180.277 99.8848V109H177.916V99.999C177.916 98.0016 176.938 97.0029 174.983 97.0029C173.443 97.0029 172.389 97.6589 171.822 98.9707V109H169.474V95.2637H171.695ZM197.987 109.254C196.125 109.254 194.61 108.645 193.442 107.426C192.274 106.199 191.69 104.561 191.69 102.513V102.081C191.69 100.718 191.949 99.5039 192.465 98.4375C192.99 97.3626 193.717 96.5247 194.648 95.9238C195.588 95.3145 196.604 95.0098 197.695 95.0098C199.481 95.0098 200.869 95.598 201.859 96.7744C202.85 97.9508 203.345 99.6351 203.345 101.827V102.805H194.039C194.073 104.159 194.466 105.255 195.22 106.093C195.981 106.922 196.946 107.337 198.114 107.337C198.944 107.337 199.646 107.168 200.222 106.829C200.797 106.491 201.301 106.042 201.732 105.483L203.167 106.601C202.016 108.369 200.289 109.254 197.987 109.254ZM197.695 96.9395C196.747 96.9395 195.952 97.2865 195.309 97.9805C194.665 98.666 194.268 99.6309 194.115 100.875H200.996V100.697C200.928 99.5039 200.607 98.5814 200.031 97.9297C199.456 97.2695 198.677 96.9395 197.695 96.9395ZM219.252 99.085H224.406V101.307H219.252V107.146H216.891V101.307H211.736V99.085H216.891V93.6895H219.252V99.085ZM233.103 102.005C233.103 100.659 233.365 99.4489 233.89 98.374C234.423 97.2992 235.159 96.4697 236.099 95.8857C237.047 95.3018 238.126 95.0098 239.336 95.0098C241.206 95.0098 242.717 95.6572 243.868 96.9521C245.028 98.2471 245.607 99.9694 245.607 102.119V102.284C245.607 103.621 245.349 104.823 244.833 105.89C244.325 106.948 243.593 107.773 242.637 108.365C241.689 108.958 240.597 109.254 239.361 109.254C237.499 109.254 235.989 108.606 234.829 107.312C233.678 106.017 233.103 104.303 233.103 102.17V102.005ZM235.464 102.284C235.464 103.808 235.815 105.031 236.518 105.953C237.229 106.876 238.176 107.337 239.361 107.337C240.555 107.337 241.503 106.871 242.205 105.94C242.908 105.001 243.259 103.689 243.259 102.005C243.259 100.498 242.899 99.2796 242.18 98.3486C241.469 97.4092 240.521 96.9395 239.336 96.9395C238.176 96.9395 237.241 97.4007 236.53 98.3232C235.819 99.2458 235.464 100.566 235.464 102.284ZM260.182 102.284C260.182 104.383 259.699 106.072 258.734 107.35C257.77 108.619 256.475 109.254 254.85 109.254C253.115 109.254 251.773 108.64 250.825 107.413L250.711 109H248.553V89.5H250.901V96.7744C251.849 95.598 253.157 95.0098 254.824 95.0098C256.492 95.0098 257.799 95.6403 258.747 96.9014C259.703 98.1624 260.182 99.889 260.182 102.081V102.284ZM257.833 102.018C257.833 100.418 257.524 99.1823 256.906 98.3105C256.288 97.4388 255.4 97.0029 254.24 97.0029C252.691 97.0029 251.578 97.7223 250.901 99.1611V105.103C251.621 106.541 252.742 107.261 254.266 107.261C255.391 107.261 256.267 106.825 256.894 105.953C257.52 105.081 257.833 103.77 257.833 102.018ZM265.577 95.2637V110.587C265.577 113.228 264.38 114.548 261.984 114.548C261.468 114.548 260.99 114.472 260.55 114.319V112.44C260.821 112.508 261.176 112.542 261.616 112.542C262.141 112.542 262.539 112.398 262.81 112.11C263.089 111.831 263.229 111.34 263.229 110.638V95.2637H265.577ZM262.987 91.6201C262.987 91.2477 263.102 90.9303 263.33 90.668C263.567 90.3971 263.91 90.2617 264.358 90.2617C264.815 90.2617 265.162 90.3929 265.399 90.6553C265.636 90.9176 265.755 91.2393 265.755 91.6201C265.755 92.001 265.636 92.3184 265.399 92.5723C265.162 92.8262 264.815 92.9531 264.358 92.9531C263.901 92.9531 263.559 92.8262 263.33 92.5723C263.102 92.3184 262.987 92.001 262.987 91.6201ZM275.073 109.254C273.211 109.254 271.696 108.645 270.528 107.426C269.36 106.199 268.776 104.561 268.776 102.513V102.081C268.776 100.718 269.035 99.5039 269.551 98.4375C270.076 97.3626 270.803 96.5247 271.734 95.9238C272.674 95.3145 273.689 95.0098 274.781 95.0098C276.567 95.0098 277.955 95.598 278.945 96.7744C279.936 97.9508 280.431 99.6351 280.431 101.827V102.805H271.125C271.159 104.159 271.552 105.255 272.306 106.093C273.067 106.922 274.032 107.337 275.2 107.337C276.03 107.337 276.732 107.168 277.308 106.829C277.883 106.491 278.387 106.042 278.818 105.483L280.253 106.601C279.102 108.369 277.375 109.254 275.073 109.254ZM274.781 96.9395C273.833 96.9395 273.038 97.2865 272.395 97.9805C271.751 98.666 271.354 99.6309 271.201 100.875H278.082V100.697C278.014 99.5039 277.693 98.5814 277.117 97.9297C276.542 97.2695 275.763 96.9395 274.781 96.9395ZM288.67 107.337C289.508 107.337 290.24 107.083 290.866 106.575C291.493 106.067 291.84 105.433 291.907 104.671H294.129C294.087 105.458 293.816 106.207 293.316 106.918C292.817 107.629 292.148 108.196 291.311 108.619C290.481 109.042 289.601 109.254 288.67 109.254C286.799 109.254 285.31 108.632 284.201 107.388C283.101 106.135 282.551 104.425 282.551 102.259V101.865C282.551 100.528 282.796 99.3389 283.287 98.2979C283.778 97.2568 284.48 96.4486 285.395 95.873C286.317 95.2975 287.405 95.0098 288.657 95.0098C290.198 95.0098 291.476 95.471 292.491 96.3936C293.515 97.3161 294.061 98.5137 294.129 99.9863H291.907C291.84 99.0977 291.501 98.3698 290.892 97.8027C290.291 97.2272 289.546 96.9395 288.657 96.9395C287.464 96.9395 286.537 97.3711 285.877 98.2344C285.225 99.0892 284.899 100.329 284.899 101.954V102.398C284.899 103.981 285.225 105.2 285.877 106.055C286.529 106.91 287.46 107.337 288.67 107.337ZM299.956 91.9375V95.2637H302.521V97.0791H299.956V105.598C299.956 106.148 300.07 106.562 300.299 106.842C300.527 107.113 300.917 107.248 301.467 107.248C301.738 107.248 302.11 107.197 302.584 107.096V109C301.966 109.169 301.365 109.254 300.781 109.254C299.732 109.254 298.94 108.937 298.407 108.302C297.874 107.667 297.607 106.766 297.607 105.598V97.0791H295.106V95.2637H297.607V91.9375H299.956ZM311.636 101.497C311.636 99.5843 311.89 97.7477 312.397 95.9873C312.914 94.2269 313.68 92.6273 314.695 91.1885C315.711 89.7497 316.765 88.734 317.856 88.1416L318.339 89.6904C317.103 90.6383 316.088 92.0856 315.292 94.0322C314.505 95.9788 314.073 98.1582 313.997 100.57L313.984 101.649C313.984 104.916 314.581 107.752 315.774 110.155C316.494 111.594 317.349 112.72 318.339 113.532L317.856 114.967C316.731 114.34 315.656 113.291 314.632 111.818C312.634 108.941 311.636 105.5 311.636 101.497ZM324.445 102.64L322.973 104.176V109H320.624V89.5H322.973V101.294L324.229 99.7832L328.508 95.2637H331.364L326.02 101.002L331.986 109H329.231L324.445 102.64ZM339.235 109.254C337.373 109.254 335.858 108.645 334.69 107.426C333.522 106.199 332.938 104.561 332.938 102.513V102.081C332.938 100.718 333.197 99.5039 333.713 98.4375C334.238 97.3626 334.965 96.5247 335.896 95.9238C336.836 95.3145 337.852 95.0098 338.943 95.0098C340.729 95.0098 342.117 95.598 343.107 96.7744C344.098 97.9508 344.593 99.6351 344.593 101.827V102.805H335.287C335.321 104.159 335.715 105.255 336.468 106.093C337.229 106.922 338.194 107.337 339.362 107.337C340.192 107.337 340.894 107.168 341.47 106.829C342.045 106.491 342.549 106.042 342.98 105.483L344.415 106.601C343.264 108.369 341.537 109.254 339.235 109.254ZM338.943 96.9395C337.995 96.9395 337.2 97.2865 336.557 97.9805C335.913 98.666 335.516 99.6309 335.363 100.875H342.244V100.697C342.176 99.5039 341.855 98.5814 341.279 97.9297C340.704 97.2695 339.925 96.9395 338.943 96.9395ZM351.639 105.56L354.838 95.2637H357.352L351.829 111.12C350.974 113.405 349.616 114.548 347.754 114.548L347.31 114.51L346.434 114.345V112.44L347.068 112.491C347.864 112.491 348.482 112.33 348.922 112.009C349.37 111.687 349.739 111.099 350.026 110.244L350.547 108.848L345.646 95.2637H348.211L351.639 105.56ZM364.88 101.624C364.88 103.511 364.63 105.323 364.131 107.058C363.64 108.784 362.882 110.38 361.858 111.844C360.843 113.308 359.776 114.349 358.659 114.967L358.164 113.532C359.467 112.534 360.513 110.985 361.3 108.886C362.095 106.778 362.502 104.442 362.519 101.878V101.472C362.519 99.6943 362.332 98.0439 361.96 96.5205C361.588 94.9886 361.067 93.6175 360.398 92.4072C359.738 91.1969 358.993 90.2533 358.164 89.5762L358.659 88.1416C359.776 88.7594 360.839 89.792 361.846 91.2393C362.861 92.6865 363.619 94.2819 364.118 96.0254C364.626 97.7689 364.88 99.6351 364.88 101.624Z" fill="black"/>
</svg>
