<svg width="248" height="195" viewBox="0 0 248 195" fill="none" xmlns="http://www.w3.org/2000/svg">
<rect x="25.5" y="97.5" width="58" height="20" fill="#D6FFD6" stroke="black"/>
<path d="M27.5625 107.777C27.5625 106.789 27.791 106.004 28.248 105.422C28.7051 104.836 29.3105 104.543 30.0645 104.543C30.8379 104.543 31.4414 104.816 31.875 105.363L31.9277 104.66H32.918V110.848C32.918 111.668 32.6738 112.314 32.1855 112.787C31.7012 113.26 31.0488 113.496 30.2285 113.496C29.7715 113.496 29.3242 113.398 28.8867 113.203C28.4492 113.008 28.1152 112.74 27.8848 112.4L28.4473 111.75C28.9121 112.324 29.4805 112.611 30.1523 112.611C30.6797 112.611 31.0898 112.463 31.3828 112.166C31.6797 111.869 31.8281 111.451 31.8281 110.912V110.367C31.3945 110.867 30.8027 111.117 30.0527 111.117C29.3105 111.117 28.709 110.818 28.248 110.221C27.791 109.623 27.5625 108.809 27.5625 107.777ZM28.6523 107.9C28.6523 108.615 28.7988 109.178 29.0918 109.588C29.3848 109.994 29.7949 110.197 30.3223 110.197C31.0059 110.197 31.5078 109.887 31.8281 109.266V106.371C31.4961 105.766 30.998 105.463 30.334 105.463C29.8066 105.463 29.3945 105.668 29.0977 106.078C28.8008 106.488 28.6523 107.096 28.6523 107.9ZM35.7363 111H34.6523V102H35.7363V111ZM37.1895 107.771C37.1895 107.15 37.3105 106.592 37.5527 106.096C37.7988 105.6 38.1387 105.217 38.5723 104.947C39.0098 104.678 39.5078 104.543 40.0664 104.543C40.9297 104.543 41.627 104.842 42.1582 105.439C42.6934 106.037 42.9609 106.832 42.9609 107.824V107.9C42.9609 108.518 42.8418 109.072 42.6035 109.564C42.3691 110.053 42.0312 110.434 41.5898 110.707C41.1523 110.98 40.6484 111.117 40.0781 111.117C39.2188 111.117 38.5215 110.818 37.9863 110.221C37.4551 109.623 37.1895 108.832 37.1895 107.848V107.771ZM38.2793 107.9C38.2793 108.604 38.4414 109.168 38.7656 109.594C39.0938 110.02 39.5312 110.232 40.0781 110.232C40.6289 110.232 41.0664 110.018 41.3906 109.588C41.7148 109.154 41.877 108.549 41.877 107.771C41.877 107.076 41.7109 106.514 41.3789 106.084C41.0508 105.65 40.6133 105.434 40.0664 105.434C39.5312 105.434 39.0996 105.646 38.7715 106.072C38.4434 106.498 38.2793 107.107 38.2793 107.9ZM49.6875 107.9C49.6875 108.869 49.4648 109.648 49.0195 110.238C48.5742 110.824 47.9766 111.117 47.2266 111.117C46.4258 111.117 45.8066 110.834 45.3691 110.268L45.3164 111H44.3203V102H45.4043V105.357C45.8418 104.814 46.4453 104.543 47.2148 104.543C47.9844 104.543 48.5879 104.834 49.0254 105.416C49.4668 105.998 49.6875 106.795 49.6875 107.807V107.9ZM48.6035 107.777C48.6035 107.039 48.4609 106.469 48.1758 106.066C47.8906 105.664 47.4805 105.463 46.9453 105.463C46.2305 105.463 45.7168 105.795 45.4043 106.459V109.201C45.7363 109.865 46.2539 110.197 46.957 110.197C47.4766 110.197 47.8809 109.996 48.1699 109.594C48.459 109.191 48.6035 108.586 48.6035 107.777ZM53.6895 111.117C52.8301 111.117 52.1309 110.836 51.5918 110.273C51.0527 109.707 50.7832 108.951 50.7832 108.006V107.807C50.7832 107.178 50.9023 106.617 51.1406 106.125C51.3828 105.629 51.7188 105.242 52.1484 104.965C52.582 104.684 53.0508 104.543 53.5547 104.543C54.3789 104.543 55.0195 104.814 55.4766 105.357C55.9336 105.9 56.1621 106.678 56.1621 107.689V108.141H51.8672C51.8828 108.766 52.0645 109.271 52.4121 109.658C52.7637 110.041 53.209 110.232 53.748 110.232C54.1309 110.232 54.4551 110.154 54.7207 109.998C54.9863 109.842 55.2188 109.635 55.418 109.377L56.0801 109.893C55.5488 110.709 54.752 111.117 53.6895 111.117ZM53.5547 105.434C53.1172 105.434 52.75 105.594 52.4531 105.914C52.1562 106.23 51.9727 106.676 51.9023 107.25H55.0781V107.168C55.0469 106.617 54.8984 106.191 54.6328 105.891C54.3672 105.586 54.0078 105.434 53.5547 105.434ZM57.4453 110.432C57.4453 110.244 57.5 110.088 57.6094 109.963C57.7227 109.838 57.8906 109.775 58.1133 109.775C58.3359 109.775 58.5039 109.838 58.6172 109.963C58.7344 110.088 58.793 110.244 58.793 110.432C58.793 110.611 58.7344 110.762 58.6172 110.883C58.5039 111.004 58.3359 111.064 58.1133 111.064C57.8906 111.064 57.7227 111.004 57.6094 110.883C57.5 110.762 57.4453 110.611 57.4453 110.432ZM65.9414 107.9C65.9414 108.865 65.7207 109.643 65.2793 110.232C64.8379 110.822 64.2402 111.117 63.4863 111.117C62.7168 111.117 62.1113 110.873 61.6699 110.385V113.438H60.5859V104.66H61.5762L61.6289 105.363C62.0703 104.816 62.6836 104.543 63.4688 104.543C64.2305 104.543 64.832 104.83 65.2734 105.404C65.7188 105.979 65.9414 106.777 65.9414 107.801V107.9ZM64.8574 107.777C64.8574 107.062 64.7051 106.498 64.4004 106.084C64.0957 105.67 63.6777 105.463 63.1465 105.463C62.4902 105.463 61.998 105.754 61.6699 106.336V109.365C61.9941 109.943 62.4902 110.232 63.1582 110.232C63.6777 110.232 64.0898 110.027 64.3945 109.617C64.7031 109.203 64.8574 108.59 64.8574 107.777ZM68.3496 104.66L68.3848 105.457C68.8691 104.848 69.502 104.543 70.2832 104.543C71.623 104.543 72.2988 105.299 72.3105 106.811V111H71.2266V106.805C71.2227 106.348 71.1172 106.01 70.9102 105.791C70.707 105.572 70.3887 105.463 69.9551 105.463C69.6035 105.463 69.2949 105.557 69.0293 105.744C68.7637 105.932 68.5566 106.178 68.4082 106.482V111H67.3242V104.66H68.3496ZM73.6875 107.777C73.6875 106.789 73.916 106.004 74.373 105.422C74.8301 104.836 75.4355 104.543 76.1895 104.543C76.9629 104.543 77.5664 104.816 78 105.363L78.0527 104.66H79.043V110.848C79.043 111.668 78.7988 112.314 78.3105 112.787C77.8262 113.26 77.1738 113.496 76.3535 113.496C75.8965 113.496 75.4492 113.398 75.0117 113.203C74.5742 113.008 74.2402 112.74 74.0098 112.4L74.5723 111.75C75.0371 112.324 75.6055 112.611 76.2773 112.611C76.8047 112.611 77.2148 112.463 77.5078 112.166C77.8047 111.869 77.9531 111.451 77.9531 110.912V110.367C77.5195 110.867 76.9277 111.117 76.1777 111.117C75.4355 111.117 74.834 110.818 74.373 110.221C73.916 109.623 73.6875 108.809 73.6875 107.777ZM74.7773 107.9C74.7773 108.615 74.9238 109.178 75.2168 109.588C75.5098 109.994 75.9199 110.197 76.4473 110.197C77.1309 110.197 77.6328 109.887 77.9531 109.266V106.371C77.6211 105.766 77.123 105.463 76.459 105.463C75.9316 105.463 75.5195 105.668 75.2227 106.078C74.9258 106.488 74.7773 107.096 74.7773 107.9Z" fill="black"/>
<rect x="21.5" y="69.5" width="58" height="20" fill="#CBC7FF" stroke="#645D5D"/>
<path d="M27.7344 83C27.6719 82.875 27.6211 82.6523 27.582 82.332C27.0781 82.8555 26.4766 83.1172 25.7773 83.1172C25.1523 83.1172 24.6387 82.9414 24.2363 82.5898C23.8379 82.2344 23.6387 81.7852 23.6387 81.2422C23.6387 80.582 23.8887 80.0703 24.3887 79.707C24.8926 79.3398 25.5996 79.1562 26.5098 79.1562H27.5645V78.6582C27.5645 78.2793 27.4512 77.9785 27.2246 77.7559C26.998 77.5293 26.6641 77.416 26.2227 77.416C25.8359 77.416 25.5117 77.5137 25.25 77.709C24.9883 77.9043 24.8574 78.1406 24.8574 78.418H23.7676C23.7676 78.1016 23.8789 77.7969 24.1016 77.5039C24.3281 77.207 24.6328 76.9727 25.0156 76.8008C25.4023 76.6289 25.8262 76.543 26.2871 76.543C27.0176 76.543 27.5898 76.7266 28.0039 77.0938C28.418 77.457 28.6328 77.959 28.6484 78.5996V81.5176C28.6484 82.0996 28.7227 82.5625 28.8711 82.9062V83H27.7344ZM25.9355 82.1738C26.2754 82.1738 26.5977 82.0859 26.9023 81.9102C27.207 81.7344 27.4277 81.5059 27.5645 81.2246V79.9238H26.7148C25.3867 79.9238 24.7227 80.3125 24.7227 81.0898C24.7227 81.4297 24.8359 81.6953 25.0625 81.8867C25.2891 82.0781 25.5801 82.1738 25.9355 82.1738ZM35.9609 81.5059L37.1797 76.6602H38.2637L36.418 83H35.5391L33.998 78.1953L32.498 83H31.6191L29.7793 76.6602H30.8574L32.1055 81.4062L33.582 76.6602H34.4551L35.9609 81.5059ZM43.0625 81.3184C43.0625 81.0254 42.9512 80.7988 42.7285 80.6387C42.5098 80.4746 42.125 80.334 41.5742 80.2168C41.0273 80.0996 40.5918 79.959 40.2676 79.7949C39.9473 79.6309 39.709 79.4355 39.5527 79.209C39.4004 78.9824 39.3242 78.7129 39.3242 78.4004C39.3242 77.8809 39.543 77.4414 39.9805 77.082C40.4219 76.7227 40.9844 76.543 41.668 76.543C42.3867 76.543 42.9688 76.7285 43.4141 77.0996C43.8633 77.4707 44.0879 77.9453 44.0879 78.5234H42.998C42.998 78.2266 42.8711 77.9707 42.6172 77.7559C42.3672 77.541 42.0508 77.4336 41.668 77.4336C41.2734 77.4336 40.9648 77.5195 40.7422 77.6914C40.5195 77.8633 40.4082 78.0879 40.4082 78.3652C40.4082 78.627 40.5117 78.8242 40.7188 78.957C40.9258 79.0898 41.2988 79.2168 41.8379 79.3379C42.3809 79.459 42.8203 79.6035 43.1562 79.7715C43.4922 79.9395 43.7402 80.1426 43.9004 80.3809C44.0645 80.6152 44.1465 80.9023 44.1465 81.2422C44.1465 81.8086 43.9199 82.2637 43.4668 82.6074C43.0137 82.9473 42.4258 83.1172 41.7031 83.1172C41.1953 83.1172 40.7461 83.0273 40.3555 82.8477C39.9648 82.668 39.6582 82.418 39.4355 82.0977C39.2168 81.7734 39.1074 81.4238 39.1074 81.0488H40.1914C40.2109 81.4121 40.3555 81.7012 40.625 81.916C40.8984 82.127 41.2578 82.2324 41.7031 82.2324C42.1133 82.2324 42.4414 82.1504 42.6875 81.9863C42.9375 81.8184 43.0625 81.5957 43.0625 81.3184ZM45.582 82.4316C45.582 82.2441 45.6367 82.0879 45.7461 81.9629C45.8594 81.8379 46.0273 81.7754 46.25 81.7754C46.4727 81.7754 46.6406 81.8379 46.7539 81.9629C46.8711 82.0879 46.9297 82.2441 46.9297 82.4316C46.9297 82.6113 46.8711 82.7617 46.7539 82.8828C46.6406 83.0039 46.4727 83.0645 46.25 83.0645C46.0273 83.0645 45.8594 83.0039 45.7461 82.8828C45.6367 82.7617 45.582 82.6113 45.582 82.4316ZM49.7422 76.6602L49.7715 77.3633C50.2363 76.8164 50.8633 76.543 51.6523 76.543C52.5391 76.543 53.1426 76.8828 53.4629 77.5625C53.6738 77.2578 53.9473 77.0117 54.2832 76.8242C54.623 76.6367 55.0234 76.543 55.4844 76.543C56.875 76.543 57.582 77.2793 57.6055 78.752V83H56.5215V78.8164C56.5215 78.3633 56.418 78.0254 56.2109 77.8027C56.0039 77.5762 55.6562 77.4629 55.168 77.4629C54.7656 77.4629 54.4316 77.584 54.166 77.8262C53.9004 78.0645 53.7461 78.3867 53.7031 78.793V83H52.6133V78.8457C52.6133 77.9238 52.1621 77.4629 51.2598 77.4629C50.5488 77.4629 50.0625 77.7656 49.8008 78.3711V83H48.7168V76.6602H49.7422ZM64.6016 79.9004C64.6016 80.8652 64.3809 81.6426 63.9395 82.2324C63.498 82.8223 62.9004 83.1172 62.1465 83.1172C61.377 83.1172 60.7715 82.873 60.3301 82.3848V85.4375H59.2461V76.6602H60.2363L60.2891 77.3633C60.7305 76.8164 61.3438 76.543 62.1289 76.543C62.8906 76.543 63.4922 76.8301 63.9336 77.4043C64.3789 77.9785 64.6016 78.7773 64.6016 79.8008V79.9004ZM63.5176 79.7773C63.5176 79.0625 63.3652 78.498 63.0605 78.084C62.7559 77.6699 62.3379 77.4629 61.8066 77.4629C61.1504 77.4629 60.6582 77.7539 60.3301 78.3359V81.3652C60.6543 81.9434 61.1504 82.2324 61.8184 82.2324C62.3379 82.2324 62.75 82.0273 63.0547 81.6172C63.3633 81.2031 63.5176 80.5898 63.5176 79.7773ZM70.4492 80.1348H71.6328V81.0195H70.4492V83H69.3594V81.0195H65.4746V80.3809L69.2949 74.4688H70.4492V80.1348ZM66.7051 80.1348H69.3594V75.9512L69.2305 76.1855L66.7051 80.1348Z" fill="black"/>
<path d="M54.0621 129.998C37.7507 129.998 11.9434 125.988 11.6116 115.228L0.04809 22.2657C-0.0839257 21.5321 0.0584042 20.7717 0.443769 20.1519C0.829134 19.532 1.42597 19.1034 2.10297 18.9604C2.77997 18.8173 3.48169 18.9716 4.05375 19.3891C4.62582 19.8067 5.02137 20.4534 5.15338 21.1869C6.4297 26.5252 25.7022 33.9931 54.1642 33.9931C82.6262 33.9931 101.873 26.5252 103.149 21.1869C103.281 20.4534 103.677 19.8067 104.249 19.3891C104.821 18.9716 105.523 18.8173 106.2 18.9604C106.877 19.1034 107.474 19.532 107.859 20.1519C108.244 20.7717 108.387 21.5321 108.255 22.2657L96.487 115.228C96.487 118.879 93.3728 122.005 87.5272 124.522C84.9329 125.592 82.2714 126.461 79.563 127.122C71.1848 129.084 62.6337 130.049 54.0621 129.998ZM6.14891 29.7889L16.6148 114.786C16.6148 114.786 16.6148 115.034 16.6148 115.145C16.6148 118.409 31.1393 124.605 53.96 124.605C62.1464 124.653 70.3129 123.725 78.3122 121.839C80.7707 121.204 83.1848 120.381 85.5362 119.377C90.2586 117.358 91.3052 115.532 91.3052 115.007C91.2935 114.887 91.2935 114.767 91.3052 114.647L101.848 29.7889C91.9944 36.1506 72.1348 39.525 53.9344 39.525C35.7341 39.525 15.9766 36.1506 6.14891 29.7889Z" fill="#020202"/>
<path d="M54.0621 39.5249C29.8885 39.5249 2.7539 33.5782 0.124673 22.5975C0.115556 22.4779 0.115556 22.3576 0.124673 22.238V21.1039C0.113044 20.9844 0.113044 20.8639 0.124673 20.7444C0.124673 8.51902 28.6632 0 54.2918 0C79.9204 0 108.229 8.51902 108.229 20.7444C108.229 20.7444 108.229 20.9656 108.229 21.1039L108.076 22.238C108.087 22.3576 108.087 22.4779 108.076 22.5975C105.345 33.5782 78.2101 39.5249 54.0621 39.5249ZM5.07681 21.3252C6.65945 26.6634 25.8553 33.9931 54.0621 33.9931C82.2688 33.9931 101.439 26.6634 103.022 21.3252V20.5784C102.741 15.2125 82.6262 5.53183 54.0621 5.53183C25.498 5.53183 5.3576 15.2125 5.00023 20.5784L5.07681 21.3252Z" fill="#020202"/>
<path d="M108.331 77.7775C96.1807 77.7775 69.5821 64.75 52.9389 55.899L55.1852 50.9204C78.159 63.1734 105.217 74.486 109.837 72.3562C109.48 71.5541 107.77 69.0648 99.6268 64.2798L99.2184 64.0032L101.771 59.1905L102.154 59.4394C110.348 64.3351 114.253 68.0967 114.917 71.6371C115.048 72.376 115.024 73.1372 114.847 73.8648C114.67 74.5924 114.345 75.2677 113.896 75.8413C113.149 76.5752 112.267 77.1276 111.307 77.4615C110.347 77.7955 109.333 77.9032 108.331 77.7775Z" fill="#020202"/>
<path d="M54.0621 59.4671C52.9665 59.4671 51.8956 59.1151 50.9846 58.4555C50.0737 57.796 49.3637 56.8586 48.9445 55.7619C48.5252 54.6652 48.4155 53.4584 48.6293 52.2941C48.843 51.1298 49.3706 50.0604 50.1452 49.221C50.9199 48.3816 51.9069 47.8099 52.9814 47.5783C54.0559 47.3467 55.1697 47.4656 56.1818 47.9199C57.194 48.3742 58.0591 49.1435 58.6678 50.1305C59.2764 51.1175 59.6013 52.2779 59.6013 53.465C59.5946 55.0546 59.0088 56.5771 57.9715 57.7011C56.9341 58.8251 55.5291 59.4598 54.0621 59.4671ZM54.0621 52.9948C54.003 52.9911 53.9438 53.0004 53.8882 53.0224C53.8325 53.0443 53.7816 53.0783 53.7386 53.1224C53.6955 53.1664 53.6613 53.2195 53.6379 53.2785C53.6145 53.3374 53.6025 53.4009 53.6026 53.465C53.6026 53.9906 54.496 53.9906 54.496 53.465C54.5033 53.3988 54.4974 53.3317 54.4789 53.2681C54.4603 53.2045 54.4295 53.1459 54.3885 53.0962C54.3474 53.0465 54.2971 53.0068 54.2408 52.9798C54.1846 52.9528 54.1236 52.939 54.0621 52.9395V52.9948Z" fill="#020202"/>
<rect x="142.5" y="117.5" width="90.1465" height="28" fill="white" stroke="black"/>
<path d="M142.5 117.5H247.5V145.5H142.5V117.5Z" fill="#D6FFD6" stroke="black"/>
<path d="M157.277 124.033L156.234 125.117V128H155.109V119.469H156.234V123.688L160.025 119.469H161.385L158.027 123.236L161.648 128H160.301L157.277 124.033ZM164.941 128.117C164.082 128.117 163.383 127.836 162.844 127.273C162.305 126.707 162.035 125.951 162.035 125.006V124.807C162.035 124.178 162.154 123.617 162.393 123.125C162.635 122.629 162.971 122.242 163.4 121.965C163.834 121.684 164.303 121.543 164.807 121.543C165.631 121.543 166.271 121.814 166.729 122.357C167.186 122.9 167.414 123.678 167.414 124.689V125.141H163.119C163.135 125.766 163.316 126.271 163.664 126.658C164.016 127.041 164.461 127.232 165 127.232C165.383 127.232 165.707 127.154 165.973 126.998C166.238 126.842 166.471 126.635 166.67 126.377L167.332 126.893C166.801 127.709 166.004 128.117 164.941 128.117ZM164.807 122.434C164.369 122.434 164.002 122.594 163.705 122.914C163.408 123.23 163.225 123.676 163.154 124.25H166.33V124.168C166.299 123.617 166.15 123.191 165.885 122.891C165.619 122.586 165.26 122.434 164.807 122.434ZM170.666 126.412L172.143 121.66H173.303L170.754 128.979C170.359 130.033 169.732 130.561 168.873 130.561L168.668 130.543L168.264 130.467V129.588L168.557 129.611C168.924 129.611 169.209 129.537 169.412 129.389C169.619 129.24 169.789 128.969 169.922 128.574L170.162 127.93L167.9 121.66H169.084L170.666 126.412ZM179.232 123.23H174.346V122.287H179.232V123.23ZM179.232 125.662H174.346V124.725H179.232V125.662ZM183.58 124.777C183.58 123.789 183.809 123.004 184.266 122.422C184.723 121.836 185.328 121.543 186.082 121.543C186.855 121.543 187.459 121.816 187.893 122.363L187.945 121.66H188.936V127.848C188.936 128.668 188.691 129.314 188.203 129.787C187.719 130.26 187.066 130.496 186.246 130.496C185.789 130.496 185.342 130.398 184.904 130.203C184.467 130.008 184.133 129.74 183.902 129.4L184.465 128.75C184.93 129.324 185.498 129.611 186.17 129.611C186.697 129.611 187.107 129.463 187.4 129.166C187.697 128.869 187.846 128.451 187.846 127.912V127.367C187.412 127.867 186.82 128.117 186.07 128.117C185.328 128.117 184.727 127.818 184.266 127.221C183.809 126.623 183.58 125.809 183.58 124.777ZM184.67 124.9C184.67 125.615 184.816 126.178 185.109 126.588C185.402 126.994 185.812 127.197 186.34 127.197C187.023 127.197 187.525 126.887 187.846 126.266V123.371C187.514 122.766 187.016 122.463 186.352 122.463C185.824 122.463 185.412 122.668 185.115 123.078C184.818 123.488 184.67 124.096 184.67 124.9ZM191.754 128H190.67V119H191.754V128ZM193.207 124.771C193.207 124.15 193.328 123.592 193.57 123.096C193.816 122.6 194.156 122.217 194.59 121.947C195.027 121.678 195.525 121.543 196.084 121.543C196.947 121.543 197.645 121.842 198.176 122.439C198.711 123.037 198.979 123.832 198.979 124.824V124.9C198.979 125.518 198.859 126.072 198.621 126.564C198.387 127.053 198.049 127.434 197.607 127.707C197.17 127.98 196.666 128.117 196.096 128.117C195.236 128.117 194.539 127.818 194.004 127.221C193.473 126.623 193.207 125.832 193.207 124.848V124.771ZM194.297 124.9C194.297 125.604 194.459 126.168 194.783 126.594C195.111 127.02 195.549 127.232 196.096 127.232C196.646 127.232 197.084 127.018 197.408 126.588C197.732 126.154 197.895 125.549 197.895 124.771C197.895 124.076 197.729 123.514 197.396 123.084C197.068 122.65 196.631 122.434 196.084 122.434C195.549 122.434 195.117 122.646 194.789 123.072C194.461 123.498 194.297 124.107 194.297 124.9ZM205.705 124.9C205.705 125.869 205.482 126.648 205.037 127.238C204.592 127.824 203.994 128.117 203.244 128.117C202.443 128.117 201.824 127.834 201.387 127.268L201.334 128H200.338V119H201.422V122.357C201.859 121.814 202.463 121.543 203.232 121.543C204.002 121.543 204.605 121.834 205.043 122.416C205.484 122.998 205.705 123.795 205.705 124.807V124.9ZM204.621 124.777C204.621 124.039 204.479 123.469 204.193 123.066C203.908 122.664 203.498 122.463 202.963 122.463C202.248 122.463 201.734 122.795 201.422 123.459V126.201C201.754 126.865 202.271 127.197 202.975 127.197C203.494 127.197 203.898 126.996 204.188 126.594C204.477 126.191 204.621 125.586 204.621 124.777ZM209.707 128.117C208.848 128.117 208.148 127.836 207.609 127.273C207.07 126.707 206.801 125.951 206.801 125.006V124.807C206.801 124.178 206.92 123.617 207.158 123.125C207.4 122.629 207.736 122.242 208.166 121.965C208.6 121.684 209.068 121.543 209.572 121.543C210.396 121.543 211.037 121.814 211.494 122.357C211.951 122.9 212.18 123.678 212.18 124.689V125.141H207.885C207.9 125.766 208.082 126.271 208.43 126.658C208.781 127.041 209.227 127.232 209.766 127.232C210.148 127.232 210.473 127.154 210.738 126.998C211.004 126.842 211.236 126.635 211.436 126.377L212.098 126.893C211.566 127.709 210.77 128.117 209.707 128.117ZM209.572 122.434C209.135 122.434 208.768 122.594 208.471 122.914C208.174 123.23 207.99 123.676 207.92 124.25H211.096V124.168C211.064 123.617 210.916 123.191 210.65 122.891C210.385 122.586 210.025 122.434 209.572 122.434ZM213.463 127.432C213.463 127.244 213.518 127.088 213.627 126.963C213.74 126.838 213.908 126.775 214.131 126.775C214.354 126.775 214.521 126.838 214.635 126.963C214.752 127.088 214.811 127.244 214.811 127.432C214.811 127.611 214.752 127.762 214.635 127.883C214.521 128.004 214.354 128.064 214.131 128.064C213.908 128.064 213.74 128.004 213.627 127.883C213.518 127.762 213.463 127.611 213.463 127.432ZM221.959 124.9C221.959 125.865 221.738 126.643 221.297 127.232C220.855 127.822 220.258 128.117 219.504 128.117C218.734 128.117 218.129 127.873 217.688 127.385V130.438H216.604V121.66H217.594L217.646 122.363C218.088 121.816 218.701 121.543 219.486 121.543C220.248 121.543 220.85 121.83 221.291 122.404C221.736 122.979 221.959 123.777 221.959 124.801V124.9ZM220.875 124.777C220.875 124.062 220.723 123.498 220.418 123.084C220.113 122.67 219.695 122.463 219.164 122.463C218.508 122.463 218.016 122.754 217.688 123.336V126.365C218.012 126.943 218.508 127.232 219.176 127.232C219.695 127.232 220.107 127.027 220.412 126.617C220.721 126.203 220.875 125.59 220.875 124.777ZM224.367 121.66L224.402 122.457C224.887 121.848 225.52 121.543 226.301 121.543C227.641 121.543 228.316 122.299 228.328 123.811V128H227.244V123.805C227.24 123.348 227.135 123.01 226.928 122.791C226.725 122.572 226.406 122.463 225.973 122.463C225.621 122.463 225.312 122.557 225.047 122.744C224.781 122.932 224.574 123.178 224.426 123.482V128H223.342V121.66H224.367ZM229.705 124.777C229.705 123.789 229.934 123.004 230.391 122.422C230.848 121.836 231.453 121.543 232.207 121.543C232.98 121.543 233.584 121.816 234.018 122.363L234.07 121.66H235.061V127.848C235.061 128.668 234.816 129.314 234.328 129.787C233.844 130.26 233.191 130.496 232.371 130.496C231.914 130.496 231.467 130.398 231.029 130.203C230.592 130.008 230.258 129.74 230.027 129.4L230.59 128.75C231.055 129.324 231.623 129.611 232.295 129.611C232.822 129.611 233.232 129.463 233.525 129.166C233.822 128.869 233.971 128.451 233.971 127.912V127.367C233.537 127.867 232.945 128.117 232.195 128.117C231.453 128.117 230.852 127.818 230.391 127.221C229.934 126.623 229.705 125.809 229.705 124.777ZM230.795 124.9C230.795 125.615 230.941 126.178 231.234 126.588C231.527 126.994 231.938 127.197 232.465 127.197C233.148 127.197 233.65 126.887 233.971 126.266V123.371C233.639 122.766 233.141 122.463 232.477 122.463C231.949 122.463 231.537 122.668 231.24 123.078C230.943 123.488 230.795 124.096 230.795 124.9ZM165.141 142H164.016V133.469H165.141V142ZM167.203 142V133.469H169.611C170.354 133.469 171.01 133.633 171.58 133.961C172.15 134.289 172.59 134.756 172.898 135.361C173.211 135.967 173.369 136.662 173.373 137.447V137.992C173.373 138.797 173.217 139.502 172.904 140.107C172.596 140.713 172.152 141.178 171.574 141.502C171 141.826 170.33 141.992 169.564 142H167.203ZM168.328 134.395V141.08H169.512C170.379 141.08 171.053 140.811 171.533 140.271C172.018 139.732 172.26 138.965 172.26 137.969V137.471C172.26 136.502 172.031 135.75 171.574 135.215C171.121 134.676 170.477 134.402 169.641 134.395H168.328ZM182.842 137.23H177.955V136.287H182.842V137.23ZM182.842 139.662H177.955V138.725H182.842V139.662ZM190.898 142H189.809V134.775L187.623 135.578V134.594L190.729 133.428H190.898V142ZM197.637 142H196.547V134.775L194.361 135.578V134.594L197.467 133.428H197.637V142ZM204.375 142H203.285V134.775L201.1 135.578V134.594L204.205 133.428H204.375V142ZM211.113 142H210.023V134.775L207.838 135.578V134.594L210.943 133.428H211.113V142ZM217.852 142H216.762V134.775L214.576 135.578V134.594L217.682 133.428H217.852V142ZM224.59 142H223.5V134.775L221.314 135.578V134.594L224.42 133.428H224.59V142Z" fill="black"/>
<rect x="142.5" y="46.5" width="90.1465" height="28" fill="white" stroke="black"/>
<path d="M142.5 46.5H247.5V74.5H142.5V46.5Z" fill="#CBC7FF" stroke="black"/>
<path d="M159.258 53.0332L158.215 54.1172V57H157.09V48.4688H158.215V52.6875L162.006 48.4688H163.365L160.008 52.2363L163.629 57H162.281L159.258 53.0332ZM166.922 57.1172C166.062 57.1172 165.363 56.8359 164.824 56.2734C164.285 55.707 164.016 54.9512 164.016 54.0059V53.8066C164.016 53.1777 164.135 52.6172 164.373 52.125C164.615 51.6289 164.951 51.2422 165.381 50.9648C165.814 50.6836 166.283 50.543 166.787 50.543C167.611 50.543 168.252 50.8145 168.709 51.3574C169.166 51.9004 169.395 52.6777 169.395 53.6895V54.1406H165.1C165.115 54.7656 165.297 55.2715 165.645 55.6582C165.996 56.041 166.441 56.2324 166.98 56.2324C167.363 56.2324 167.688 56.1543 167.953 55.998C168.219 55.8418 168.451 55.6348 168.65 55.377L169.312 55.8926C168.781 56.709 167.984 57.1172 166.922 57.1172ZM166.787 51.4336C166.35 51.4336 165.982 51.5938 165.686 51.9141C165.389 52.2305 165.205 52.6758 165.135 53.25H168.311V53.168C168.279 52.6172 168.131 52.1914 167.865 51.8906C167.6 51.5859 167.24 51.4336 166.787 51.4336ZM172.646 55.4121L174.123 50.6602H175.283L172.734 57.9785C172.34 59.0332 171.713 59.5605 170.854 59.5605L170.648 59.543L170.244 59.4668V58.5879L170.537 58.6113C170.904 58.6113 171.189 58.5371 171.393 58.3887C171.6 58.2402 171.77 57.9688 171.902 57.5742L172.143 56.9297L169.881 50.6602H171.064L172.646 55.4121ZM181.213 52.2305H176.326V51.2871H181.213V52.2305ZM181.213 54.6621H176.326V53.7246H181.213V54.6621ZM189.732 57C189.67 56.875 189.619 56.6523 189.58 56.332C189.076 56.8555 188.475 57.1172 187.775 57.1172C187.15 57.1172 186.637 56.9414 186.234 56.5898C185.836 56.2344 185.637 55.7852 185.637 55.2422C185.637 54.582 185.887 54.0703 186.387 53.707C186.891 53.3398 187.598 53.1562 188.508 53.1562H189.562V52.6582C189.562 52.2793 189.449 51.9785 189.223 51.7559C188.996 51.5293 188.662 51.416 188.221 51.416C187.834 51.416 187.51 51.5137 187.248 51.709C186.986 51.9043 186.855 52.1406 186.855 52.418H185.766C185.766 52.1016 185.877 51.7969 186.1 51.5039C186.326 51.207 186.631 50.9727 187.014 50.8008C187.4 50.6289 187.824 50.543 188.285 50.543C189.016 50.543 189.588 50.7266 190.002 51.0938C190.416 51.457 190.631 51.959 190.646 52.5996V55.5176C190.646 56.0996 190.721 56.5625 190.869 56.9062V57H189.732ZM187.934 56.1738C188.273 56.1738 188.596 56.0859 188.9 55.9102C189.205 55.7344 189.426 55.5059 189.562 55.2246V53.9238H188.713C187.385 53.9238 186.721 54.3125 186.721 55.0898C186.721 55.4297 186.834 55.6953 187.061 55.8867C187.287 56.0781 187.578 56.1738 187.934 56.1738ZM197.959 55.5059L199.178 50.6602H200.262L198.416 57H197.537L195.996 52.1953L194.496 57H193.617L191.777 50.6602H192.855L194.104 55.4062L195.58 50.6602H196.453L197.959 55.5059ZM205.061 55.3184C205.061 55.0254 204.949 54.7988 204.727 54.6387C204.508 54.4746 204.123 54.334 203.572 54.2168C203.025 54.0996 202.59 53.959 202.266 53.7949C201.945 53.6309 201.707 53.4355 201.551 53.209C201.398 52.9824 201.322 52.7129 201.322 52.4004C201.322 51.8809 201.541 51.4414 201.979 51.082C202.42 50.7227 202.982 50.543 203.666 50.543C204.385 50.543 204.967 50.7285 205.412 51.0996C205.861 51.4707 206.086 51.9453 206.086 52.5234H204.996C204.996 52.2266 204.869 51.9707 204.615 51.7559C204.365 51.541 204.049 51.4336 203.666 51.4336C203.271 51.4336 202.963 51.5195 202.74 51.6914C202.518 51.8633 202.406 52.0879 202.406 52.3652C202.406 52.627 202.51 52.8242 202.717 52.957C202.924 53.0898 203.297 53.2168 203.836 53.3379C204.379 53.459 204.818 53.6035 205.154 53.7715C205.49 53.9395 205.738 54.1426 205.898 54.3809C206.062 54.6152 206.145 54.9023 206.145 55.2422C206.145 55.8086 205.918 56.2637 205.465 56.6074C205.012 56.9473 204.424 57.1172 203.701 57.1172C203.193 57.1172 202.744 57.0273 202.354 56.8477C201.963 56.668 201.656 56.418 201.434 56.0977C201.215 55.7734 201.105 55.4238 201.105 55.0488H202.189C202.209 55.4121 202.354 55.7012 202.623 55.916C202.896 56.127 203.256 56.2324 203.701 56.2324C204.111 56.2324 204.439 56.1504 204.686 55.9863C204.936 55.8184 205.061 55.5957 205.061 55.3184ZM207.58 56.4316C207.58 56.2441 207.635 56.0879 207.744 55.9629C207.857 55.8379 208.025 55.7754 208.248 55.7754C208.471 55.7754 208.639 55.8379 208.752 55.9629C208.869 56.0879 208.928 56.2441 208.928 56.4316C208.928 56.6113 208.869 56.7617 208.752 56.8828C208.639 57.0039 208.471 57.0645 208.248 57.0645C208.025 57.0645 207.857 57.0039 207.744 56.8828C207.635 56.7617 207.58 56.6113 207.58 56.4316ZM211.74 50.6602L211.77 51.3633C212.234 50.8164 212.861 50.543 213.65 50.543C214.537 50.543 215.141 50.8828 215.461 51.5625C215.672 51.2578 215.945 51.0117 216.281 50.8242C216.621 50.6367 217.021 50.543 217.482 50.543C218.873 50.543 219.58 51.2793 219.604 52.752V57H218.52V52.8164C218.52 52.3633 218.416 52.0254 218.209 51.8027C218.002 51.5762 217.654 51.4629 217.166 51.4629C216.764 51.4629 216.43 51.584 216.164 51.8262C215.898 52.0645 215.744 52.3867 215.701 52.793V57H214.611V52.8457C214.611 51.9238 214.16 51.4629 213.258 51.4629C212.547 51.4629 212.061 51.7656 211.799 52.3711V57H210.715V50.6602H211.74ZM226.6 53.9004C226.6 54.8652 226.379 55.6426 225.938 56.2324C225.496 56.8223 224.898 57.1172 224.145 57.1172C223.375 57.1172 222.77 56.873 222.328 56.3848V59.4375H221.244V50.6602H222.234L222.287 51.3633C222.729 50.8164 223.342 50.543 224.127 50.543C224.889 50.543 225.49 50.8301 225.932 51.4043C226.377 51.9785 226.6 52.7773 226.6 53.8008V53.9004ZM225.516 53.7773C225.516 53.0625 225.363 52.498 225.059 52.084C224.754 51.6699 224.336 51.4629 223.805 51.4629C223.148 51.4629 222.656 51.7539 222.328 52.3359V55.3652C222.652 55.9434 223.148 56.2324 223.816 56.2324C224.336 56.2324 224.748 56.0273 225.053 55.6172C225.361 55.2031 225.516 54.5898 225.516 53.7773ZM232.447 54.1348H233.631V55.0195H232.447V57H231.357V55.0195H227.473V54.3809L231.293 48.4688H232.447V54.1348ZM228.703 54.1348H231.357V49.9512L231.229 50.1855L228.703 54.1348ZM165.141 71H164.016V62.4688H165.141V71ZM167.203 71V62.4688H169.611C170.354 62.4688 171.01 62.6328 171.58 62.9609C172.15 63.2891 172.59 63.7559 172.898 64.3613C173.211 64.9668 173.369 65.6621 173.373 66.4473V66.9922C173.373 67.7969 173.217 68.502 172.904 69.1074C172.596 69.7129 172.152 70.1777 171.574 70.502C171 70.8262 170.33 70.9922 169.564 71H167.203ZM168.328 63.3945V70.0801H169.512C170.379 70.0801 171.053 69.8105 171.533 69.2715C172.018 68.7324 172.26 67.9648 172.26 66.9688V66.4707C172.26 65.502 172.031 64.75 171.574 64.2148C171.121 63.6758 170.477 63.4023 169.641 63.3945H168.328ZM182.842 66.2305H177.955V65.2871H182.842V66.2305ZM182.842 68.6621H177.955V67.7246H182.842V68.6621ZM190.898 71H189.809V63.7754L187.623 64.5781V63.5938L190.729 62.4277H190.898V71ZM197.637 71H196.547V63.7754L194.361 64.5781V63.5938L197.467 62.4277H197.637V71ZM204.375 71H203.285V63.7754L201.1 64.5781V63.5938L204.205 62.4277H204.375V71ZM211.113 71H210.023V63.7754L207.838 64.5781V63.5938L210.943 62.4277H211.113V71ZM217.852 71H216.762V63.7754L214.576 64.5781V63.5938L217.682 62.4277H217.852V71ZM224.59 71H223.5V63.7754L221.314 64.5781V63.5938L224.42 62.4277H224.59V71Z" fill="black"/>
<rect x="142.5" y="89.5" width="90.1465" height="28" fill="white" stroke="black"/>
<path d="M142.5 89.5H247.5V117.5H142.5V89.5Z" fill="#D6FFD6" stroke="black"/>
<path d="M157.277 96.0332L156.234 97.1172V100H155.109V91.4688H156.234V95.6875L160.025 91.4688H161.385L158.027 95.2363L161.648 100H160.301L157.277 96.0332ZM164.941 100.117C164.082 100.117 163.383 99.8359 162.844 99.2734C162.305 98.707 162.035 97.9512 162.035 97.0059V96.8066C162.035 96.1777 162.154 95.6172 162.393 95.125C162.635 94.6289 162.971 94.2422 163.4 93.9648C163.834 93.6836 164.303 93.543 164.807 93.543C165.631 93.543 166.271 93.8145 166.729 94.3574C167.186 94.9004 167.414 95.6777 167.414 96.6895V97.1406H163.119C163.135 97.7656 163.316 98.2715 163.664 98.6582C164.016 99.041 164.461 99.2324 165 99.2324C165.383 99.2324 165.707 99.1543 165.973 98.998C166.238 98.8418 166.471 98.6348 166.67 98.377L167.332 98.8926C166.801 99.709 166.004 100.117 164.941 100.117ZM164.807 94.4336C164.369 94.4336 164.002 94.5938 163.705 94.9141C163.408 95.2305 163.225 95.6758 163.154 96.25H166.33V96.168C166.299 95.6172 166.15 95.1914 165.885 94.8906C165.619 94.5859 165.26 94.4336 164.807 94.4336ZM170.666 98.4121L172.143 93.6602H173.303L170.754 100.979C170.359 102.033 169.732 102.561 168.873 102.561L168.668 102.543L168.264 102.467V101.588L168.557 101.611C168.924 101.611 169.209 101.537 169.412 101.389C169.619 101.24 169.789 100.969 169.922 100.574L170.162 99.9297L167.9 93.6602H169.084L170.666 98.4121ZM179.232 95.2305H174.346V94.2871H179.232V95.2305ZM179.232 97.6621H174.346V96.7246H179.232V97.6621ZM183.58 96.7773C183.58 95.7891 183.809 95.0039 184.266 94.4219C184.723 93.8359 185.328 93.543 186.082 93.543C186.855 93.543 187.459 93.8164 187.893 94.3633L187.945 93.6602H188.936V99.8477C188.936 100.668 188.691 101.314 188.203 101.787C187.719 102.26 187.066 102.496 186.246 102.496C185.789 102.496 185.342 102.398 184.904 102.203C184.467 102.008 184.133 101.74 183.902 101.4L184.465 100.75C184.93 101.324 185.498 101.611 186.17 101.611C186.697 101.611 187.107 101.463 187.4 101.166C187.697 100.869 187.846 100.451 187.846 99.9121V99.3672C187.412 99.8672 186.82 100.117 186.07 100.117C185.328 100.117 184.727 99.8184 184.266 99.2207C183.809 98.623 183.58 97.8086 183.58 96.7773ZM184.67 96.9004C184.67 97.6152 184.816 98.1777 185.109 98.5879C185.402 98.9941 185.812 99.1973 186.34 99.1973C187.023 99.1973 187.525 98.8867 187.846 98.2656V95.3711C187.514 94.7656 187.016 94.4629 186.352 94.4629C185.824 94.4629 185.412 94.668 185.115 95.0781C184.818 95.4883 184.67 96.0957 184.67 96.9004ZM191.754 100H190.67V91H191.754V100ZM193.207 96.7715C193.207 96.1504 193.328 95.5918 193.57 95.0957C193.816 94.5996 194.156 94.2168 194.59 93.9473C195.027 93.6777 195.525 93.543 196.084 93.543C196.947 93.543 197.645 93.8418 198.176 94.4395C198.711 95.0371 198.979 95.832 198.979 96.8242V96.9004C198.979 97.5176 198.859 98.0723 198.621 98.5645C198.387 99.0527 198.049 99.4336 197.607 99.707C197.17 99.9805 196.666 100.117 196.096 100.117C195.236 100.117 194.539 99.8184 194.004 99.2207C193.473 98.623 193.207 97.832 193.207 96.8477V96.7715ZM194.297 96.9004C194.297 97.6035 194.459 98.168 194.783 98.5938C195.111 99.0195 195.549 99.2324 196.096 99.2324C196.646 99.2324 197.084 99.0176 197.408 98.5879C197.732 98.1543 197.895 97.5488 197.895 96.7715C197.895 96.0762 197.729 95.5137 197.396 95.084C197.068 94.6504 196.631 94.4336 196.084 94.4336C195.549 94.4336 195.117 94.6465 194.789 95.0723C194.461 95.498 194.297 96.1074 194.297 96.9004ZM205.705 96.9004C205.705 97.8691 205.482 98.6484 205.037 99.2383C204.592 99.8242 203.994 100.117 203.244 100.117C202.443 100.117 201.824 99.834 201.387 99.2676L201.334 100H200.338V91H201.422V94.3574C201.859 93.8145 202.463 93.543 203.232 93.543C204.002 93.543 204.605 93.834 205.043 94.416C205.484 94.998 205.705 95.7949 205.705 96.8066V96.9004ZM204.621 96.7773C204.621 96.0391 204.479 95.4688 204.193 95.0664C203.908 94.6641 203.498 94.4629 202.963 94.4629C202.248 94.4629 201.734 94.7949 201.422 95.459V98.2012C201.754 98.8652 202.271 99.1973 202.975 99.1973C203.494 99.1973 203.898 98.9961 204.188 98.5938C204.477 98.1914 204.621 97.5859 204.621 96.7773ZM209.707 100.117C208.848 100.117 208.148 99.8359 207.609 99.2734C207.07 98.707 206.801 97.9512 206.801 97.0059V96.8066C206.801 96.1777 206.92 95.6172 207.158 95.125C207.4 94.6289 207.736 94.2422 208.166 93.9648C208.6 93.6836 209.068 93.543 209.572 93.543C210.396 93.543 211.037 93.8145 211.494 94.3574C211.951 94.9004 212.18 95.6777 212.18 96.6895V97.1406H207.885C207.9 97.7656 208.082 98.2715 208.43 98.6582C208.781 99.041 209.227 99.2324 209.766 99.2324C210.148 99.2324 210.473 99.1543 210.738 98.998C211.004 98.8418 211.236 98.6348 211.436 98.377L212.098 98.8926C211.566 99.709 210.77 100.117 209.707 100.117ZM209.572 94.4336C209.135 94.4336 208.768 94.5938 208.471 94.9141C208.174 95.2305 207.99 95.6758 207.92 96.25H211.096V96.168C211.064 95.6172 210.916 95.1914 210.65 94.8906C210.385 94.5859 210.025 94.4336 209.572 94.4336ZM213.463 99.4316C213.463 99.2441 213.518 99.0879 213.627 98.9629C213.74 98.8379 213.908 98.7754 214.131 98.7754C214.354 98.7754 214.521 98.8379 214.635 98.9629C214.752 99.0879 214.811 99.2441 214.811 99.4316C214.811 99.6113 214.752 99.7617 214.635 99.8828C214.521 100.004 214.354 100.064 214.131 100.064C213.908 100.064 213.74 100.004 213.627 99.8828C213.518 99.7617 213.463 99.6113 213.463 99.4316ZM221.959 96.9004C221.959 97.8652 221.738 98.6426 221.297 99.2324C220.855 99.8223 220.258 100.117 219.504 100.117C218.734 100.117 218.129 99.873 217.688 99.3848V102.438H216.604V93.6602H217.594L217.646 94.3633C218.088 93.8164 218.701 93.543 219.486 93.543C220.248 93.543 220.85 93.8301 221.291 94.4043C221.736 94.9785 221.959 95.7773 221.959 96.8008V96.9004ZM220.875 96.7773C220.875 96.0625 220.723 95.498 220.418 95.084C220.113 94.6699 219.695 94.4629 219.164 94.4629C218.508 94.4629 218.016 94.7539 217.688 95.3359V98.3652C218.012 98.9434 218.508 99.2324 219.176 99.2324C219.695 99.2324 220.107 99.0273 220.412 98.6172C220.721 98.2031 220.875 97.5898 220.875 96.7773ZM224.367 93.6602L224.402 94.457C224.887 93.8477 225.52 93.543 226.301 93.543C227.641 93.543 228.316 94.2988 228.328 95.8105V100H227.244V95.8047C227.24 95.3477 227.135 95.0098 226.928 94.791C226.725 94.5723 226.406 94.4629 225.973 94.4629C225.621 94.4629 225.312 94.5566 225.047 94.7441C224.781 94.9316 224.574 95.1777 224.426 95.4824V100H223.342V93.6602H224.367ZM229.705 96.7773C229.705 95.7891 229.934 95.0039 230.391 94.4219C230.848 93.8359 231.453 93.543 232.207 93.543C232.98 93.543 233.584 93.8164 234.018 94.3633L234.07 93.6602H235.061V99.8477C235.061 100.668 234.816 101.314 234.328 101.787C233.844 102.26 233.191 102.496 232.371 102.496C231.914 102.496 231.467 102.398 231.029 102.203C230.592 102.008 230.258 101.74 230.027 101.4L230.59 100.75C231.055 101.324 231.623 101.611 232.295 101.611C232.822 101.611 233.232 101.463 233.525 101.166C233.822 100.869 233.971 100.451 233.971 99.9121V99.3672C233.537 99.8672 232.945 100.117 232.195 100.117C231.453 100.117 230.852 99.8184 230.391 99.2207C229.934 98.623 229.705 97.8086 229.705 96.7773ZM230.795 96.9004C230.795 97.6152 230.941 98.1777 231.234 98.5879C231.527 98.9941 231.938 99.1973 232.465 99.1973C233.148 99.1973 233.65 98.8867 233.971 98.2656V95.3711C233.639 94.7656 233.141 94.4629 232.477 94.4629C231.949 94.4629 231.537 94.668 231.24 95.0781C230.943 95.4883 230.795 96.0957 230.795 96.9004ZM165.141 114H164.016V105.469H165.141V114ZM167.203 114V105.469H169.611C170.354 105.469 171.01 105.633 171.58 105.961C172.15 106.289 172.59 106.756 172.898 107.361C173.211 107.967 173.369 108.662 173.373 109.447V109.992C173.373 110.797 173.217 111.502 172.904 112.107C172.596 112.713 172.152 113.178 171.574 113.502C171 113.826 170.33 113.992 169.564 114H167.203ZM168.328 106.395V113.08H169.512C170.379 113.08 171.053 112.811 171.533 112.271C172.018 111.732 172.26 110.965 172.26 109.969V109.471C172.26 108.502 172.031 107.75 171.574 107.215C171.121 106.676 170.477 106.402 169.641 106.395H168.328ZM182.842 109.23H177.955V108.287H182.842V109.23ZM182.842 111.662H177.955V110.725H182.842V111.662ZM190.898 114H189.809V106.775L187.623 107.578V106.594L190.729 105.428H190.898V114ZM199.664 114H194.074V113.221L197.027 109.939C197.465 109.443 197.766 109.041 197.93 108.732C198.098 108.42 198.182 108.098 198.182 107.766C198.182 107.32 198.047 106.955 197.777 106.67C197.508 106.385 197.148 106.242 196.699 106.242C196.16 106.242 195.74 106.396 195.439 106.705C195.143 107.01 194.994 107.436 194.994 107.982H193.91C193.91 107.197 194.162 106.562 194.666 106.078C195.174 105.594 195.852 105.352 196.699 105.352C197.492 105.352 198.119 105.561 198.58 105.979C199.041 106.393 199.271 106.945 199.271 107.637C199.271 108.477 198.736 109.477 197.666 110.637L195.381 113.115H199.664V114ZM204.375 114H203.285V106.775L201.1 107.578V106.594L204.205 105.428H204.375V114ZM213.141 114H207.551V113.221L210.504 109.939C210.941 109.443 211.242 109.041 211.406 108.732C211.574 108.42 211.658 108.098 211.658 107.766C211.658 107.32 211.523 106.955 211.254 106.67C210.984 106.385 210.625 106.242 210.176 106.242C209.637 106.242 209.217 106.396 208.916 106.705C208.619 107.01 208.471 107.436 208.471 107.982H207.387C207.387 107.197 207.639 106.562 208.143 106.078C208.65 105.594 209.328 105.352 210.176 105.352C210.969 105.352 211.596 105.561 212.057 105.979C212.518 106.393 212.748 106.945 212.748 107.637C212.748 108.477 212.213 109.477 211.143 110.637L208.857 113.115H213.141V114ZM217.852 114H216.762V106.775L214.576 107.578V106.594L217.682 105.428H217.852V114ZM226.617 114H221.027V113.221L223.98 109.939C224.418 109.443 224.719 109.041 224.883 108.732C225.051 108.42 225.135 108.098 225.135 107.766C225.135 107.32 225 106.955 224.73 106.67C224.461 106.385 224.102 106.242 223.652 106.242C223.113 106.242 222.693 106.396 222.393 106.705C222.096 107.01 221.947 107.436 221.947 107.982H220.863C220.863 107.197 221.115 106.562 221.619 106.078C222.127 105.594 222.805 105.352 223.652 105.352C224.445 105.352 225.072 105.561 225.533 105.979C225.994 106.393 226.225 106.945 226.225 107.637C226.225 108.477 225.689 109.477 224.619 110.637L222.334 113.115H226.617V114Z" fill="black"/>
<rect x="142.5" y="18.5" width="90.1465" height="28" fill="white" stroke="black"/>
<path d="M142.5 18.5H247.5V46.5H142.5V18.5Z" fill="#CBC7FF" stroke="black"/>
<path d="M159.258 25.0332L158.215 26.1172V29H157.09V20.4688H158.215V24.6875L162.006 20.4688H163.365L160.008 24.2363L163.629 29H162.281L159.258 25.0332ZM166.922 29.1172C166.062 29.1172 165.363 28.8359 164.824 28.2734C164.285 27.707 164.016 26.9512 164.016 26.0059V25.8066C164.016 25.1777 164.135 24.6172 164.373 24.125C164.615 23.6289 164.951 23.2422 165.381 22.9648C165.814 22.6836 166.283 22.543 166.787 22.543C167.611 22.543 168.252 22.8145 168.709 23.3574C169.166 23.9004 169.395 24.6777 169.395 25.6895V26.1406H165.1C165.115 26.7656 165.297 27.2715 165.645 27.6582C165.996 28.041 166.441 28.2324 166.98 28.2324C167.363 28.2324 167.688 28.1543 167.953 27.998C168.219 27.8418 168.451 27.6348 168.65 27.377L169.312 27.8926C168.781 28.709 167.984 29.1172 166.922 29.1172ZM166.787 23.4336C166.35 23.4336 165.982 23.5938 165.686 23.9141C165.389 24.2305 165.205 24.6758 165.135 25.25H168.311V25.168C168.279 24.6172 168.131 24.1914 167.865 23.8906C167.6 23.5859 167.24 23.4336 166.787 23.4336ZM172.646 27.4121L174.123 22.6602H175.283L172.734 29.9785C172.34 31.0332 171.713 31.5605 170.854 31.5605L170.648 31.543L170.244 31.4668V30.5879L170.537 30.6113C170.904 30.6113 171.189 30.5371 171.393 30.3887C171.6 30.2402 171.77 29.9688 171.902 29.5742L172.143 28.9297L169.881 22.6602H171.064L172.646 27.4121ZM181.213 24.2305H176.326V23.2871H181.213V24.2305ZM181.213 26.6621H176.326V25.7246H181.213V26.6621ZM189.732 29C189.67 28.875 189.619 28.6523 189.58 28.332C189.076 28.8555 188.475 29.1172 187.775 29.1172C187.15 29.1172 186.637 28.9414 186.234 28.5898C185.836 28.2344 185.637 27.7852 185.637 27.2422C185.637 26.582 185.887 26.0703 186.387 25.707C186.891 25.3398 187.598 25.1562 188.508 25.1562H189.562V24.6582C189.562 24.2793 189.449 23.9785 189.223 23.7559C188.996 23.5293 188.662 23.416 188.221 23.416C187.834 23.416 187.51 23.5137 187.248 23.709C186.986 23.9043 186.855 24.1406 186.855 24.418H185.766C185.766 24.1016 185.877 23.7969 186.1 23.5039C186.326 23.207 186.631 22.9727 187.014 22.8008C187.4 22.6289 187.824 22.543 188.285 22.543C189.016 22.543 189.588 22.7266 190.002 23.0938C190.416 23.457 190.631 23.959 190.646 24.5996V27.5176C190.646 28.0996 190.721 28.5625 190.869 28.9062V29H189.732ZM187.934 28.1738C188.273 28.1738 188.596 28.0859 188.9 27.9102C189.205 27.7344 189.426 27.5059 189.562 27.2246V25.9238H188.713C187.385 25.9238 186.721 26.3125 186.721 27.0898C186.721 27.4297 186.834 27.6953 187.061 27.8867C187.287 28.0781 187.578 28.1738 187.934 28.1738ZM197.959 27.5059L199.178 22.6602H200.262L198.416 29H197.537L195.996 24.1953L194.496 29H193.617L191.777 22.6602H192.855L194.104 27.4062L195.58 22.6602H196.453L197.959 27.5059ZM205.061 27.3184C205.061 27.0254 204.949 26.7988 204.727 26.6387C204.508 26.4746 204.123 26.334 203.572 26.2168C203.025 26.0996 202.59 25.959 202.266 25.7949C201.945 25.6309 201.707 25.4355 201.551 25.209C201.398 24.9824 201.322 24.7129 201.322 24.4004C201.322 23.8809 201.541 23.4414 201.979 23.082C202.42 22.7227 202.982 22.543 203.666 22.543C204.385 22.543 204.967 22.7285 205.412 23.0996C205.861 23.4707 206.086 23.9453 206.086 24.5234H204.996C204.996 24.2266 204.869 23.9707 204.615 23.7559C204.365 23.541 204.049 23.4336 203.666 23.4336C203.271 23.4336 202.963 23.5195 202.74 23.6914C202.518 23.8633 202.406 24.0879 202.406 24.3652C202.406 24.627 202.51 24.8242 202.717 24.957C202.924 25.0898 203.297 25.2168 203.836 25.3379C204.379 25.459 204.818 25.6035 205.154 25.7715C205.49 25.9395 205.738 26.1426 205.898 26.3809C206.062 26.6152 206.145 26.9023 206.145 27.2422C206.145 27.8086 205.918 28.2637 205.465 28.6074C205.012 28.9473 204.424 29.1172 203.701 29.1172C203.193 29.1172 202.744 29.0273 202.354 28.8477C201.963 28.668 201.656 28.418 201.434 28.0977C201.215 27.7734 201.105 27.4238 201.105 27.0488H202.189C202.209 27.4121 202.354 27.7012 202.623 27.916C202.896 28.127 203.256 28.2324 203.701 28.2324C204.111 28.2324 204.439 28.1504 204.686 27.9863C204.936 27.8184 205.061 27.5957 205.061 27.3184ZM207.58 28.4316C207.58 28.2441 207.635 28.0879 207.744 27.9629C207.857 27.8379 208.025 27.7754 208.248 27.7754C208.471 27.7754 208.639 27.8379 208.752 27.9629C208.869 28.0879 208.928 28.2441 208.928 28.4316C208.928 28.6113 208.869 28.7617 208.752 28.8828C208.639 29.0039 208.471 29.0645 208.248 29.0645C208.025 29.0645 207.857 29.0039 207.744 28.8828C207.635 28.7617 207.58 28.6113 207.58 28.4316ZM211.74 22.6602L211.77 23.3633C212.234 22.8164 212.861 22.543 213.65 22.543C214.537 22.543 215.141 22.8828 215.461 23.5625C215.672 23.2578 215.945 23.0117 216.281 22.8242C216.621 22.6367 217.021 22.543 217.482 22.543C218.873 22.543 219.58 23.2793 219.604 24.752V29H218.52V24.8164C218.52 24.3633 218.416 24.0254 218.209 23.8027C218.002 23.5762 217.654 23.4629 217.166 23.4629C216.764 23.4629 216.43 23.584 216.164 23.8262C215.898 24.0645 215.744 24.3867 215.701 24.793V29H214.611V24.8457C214.611 23.9238 214.16 23.4629 213.258 23.4629C212.547 23.4629 212.061 23.7656 211.799 24.3711V29H210.715V22.6602H211.74ZM226.6 25.9004C226.6 26.8652 226.379 27.6426 225.938 28.2324C225.496 28.8223 224.898 29.1172 224.145 29.1172C223.375 29.1172 222.77 28.873 222.328 28.3848V31.4375H221.244V22.6602H222.234L222.287 23.3633C222.729 22.8164 223.342 22.543 224.127 22.543C224.889 22.543 225.49 22.8301 225.932 23.4043C226.377 23.9785 226.6 24.7773 226.6 25.8008V25.9004ZM225.516 25.7773C225.516 25.0625 225.363 24.498 225.059 24.084C224.754 23.6699 224.336 23.4629 223.805 23.4629C223.148 23.4629 222.656 23.7539 222.328 24.3359V27.3652C222.652 27.9434 223.148 28.2324 223.816 28.2324C224.336 28.2324 224.748 28.0273 225.053 27.6172C225.361 27.2031 225.516 26.5898 225.516 25.7773ZM232.447 26.1348H233.631V27.0195H232.447V29H231.357V27.0195H227.473V26.3809L231.293 20.4688H232.447V26.1348ZM228.703 26.1348H231.357V21.9512L231.229 22.1855L228.703 26.1348ZM165.141 43H164.016V34.4688H165.141V43ZM167.203 43V34.4688H169.611C170.354 34.4688 171.01 34.6328 171.58 34.9609C172.15 35.2891 172.59 35.7559 172.898 36.3613C173.211 36.9668 173.369 37.6621 173.373 38.4473V38.9922C173.373 39.7969 173.217 40.502 172.904 41.1074C172.596 41.7129 172.152 42.1777 171.574 42.502C171 42.8262 170.33 42.9922 169.564 43H167.203ZM168.328 35.3945V42.0801H169.512C170.379 42.0801 171.053 41.8105 171.533 41.2715C172.018 40.7324 172.26 39.9648 172.26 38.9688V38.4707C172.26 37.502 172.031 36.75 171.574 36.2148C171.121 35.6758 170.477 35.4023 169.641 35.3945H168.328ZM182.842 38.2305H177.955V37.2871H182.842V38.2305ZM182.842 40.6621H177.955V39.7246H182.842V40.6621ZM190.898 43H189.809V35.7754L187.623 36.5781V35.5938L190.729 34.4277H190.898V43ZM199.664 43H194.074V42.2207L197.027 38.9395C197.465 38.4434 197.766 38.041 197.93 37.7324C198.098 37.4199 198.182 37.0977 198.182 36.7656C198.182 36.3203 198.047 35.9551 197.777 35.6699C197.508 35.3848 197.148 35.2422 196.699 35.2422C196.16 35.2422 195.74 35.3965 195.439 35.7051C195.143 36.0098 194.994 36.4355 194.994 36.9824H193.91C193.91 36.1973 194.162 35.5625 194.666 35.0781C195.174 34.5938 195.852 34.3516 196.699 34.3516C197.492 34.3516 198.119 34.5605 198.58 34.9785C199.041 35.3926 199.271 35.9453 199.271 36.6367C199.271 37.4766 198.736 38.4766 197.666 39.6367L195.381 42.1152H199.664V43ZM204.375 43H203.285V35.7754L201.1 36.5781V35.5938L204.205 34.4277H204.375V43ZM213.141 43H207.551V42.2207L210.504 38.9395C210.941 38.4434 211.242 38.041 211.406 37.7324C211.574 37.4199 211.658 37.0977 211.658 36.7656C211.658 36.3203 211.523 35.9551 211.254 35.6699C210.984 35.3848 210.625 35.2422 210.176 35.2422C209.637 35.2422 209.217 35.3965 208.916 35.7051C208.619 36.0098 208.471 36.4355 208.471 36.9824H207.387C207.387 36.1973 207.639 35.5625 208.143 35.0781C208.65 34.5938 209.328 34.3516 210.176 34.3516C210.969 34.3516 211.596 34.5605 212.057 34.9785C212.518 35.3926 212.748 35.9453 212.748 36.6367C212.748 37.4766 212.213 38.4766 211.143 39.6367L208.857 42.1152H213.141V43ZM217.852 43H216.762V35.7754L214.576 36.5781V35.5938L217.682 34.4277H217.852V43ZM226.617 43H221.027V42.2207L223.98 38.9395C224.418 38.4434 224.719 38.041 224.883 37.7324C225.051 37.4199 225.135 37.0977 225.135 36.7656C225.135 36.3203 225 35.9551 224.73 35.6699C224.461 35.3848 224.102 35.2422 223.652 35.2422C223.113 35.2422 222.693 35.3965 222.393 35.7051C222.096 36.0098 221.947 36.4355 221.947 36.9824H220.863C220.863 36.1973 221.115 35.5625 221.619 35.0781C222.127 34.5938 222.805 34.3516 223.652 34.3516C224.445 34.3516 225.072 34.5605 225.533 34.9785C225.994 35.3926 226.225 35.9453 226.225 36.6367C226.225 37.4766 225.689 38.4766 224.619 39.6367L222.334 42.1152H226.617V43Z" fill="black"/>
<rect x="23.5" y="99.5" width="58" height="20" fill="#D6FFD6" stroke="black"/>
<path d="M25.5625 109.777C25.5625 108.789 25.791 108.004 26.248 107.422C26.7051 106.836 27.3105 106.543 28.0645 106.543C28.8379 106.543 29.4414 106.816 29.875 107.363L29.9277 106.66H30.918V112.848C30.918 113.668 30.6738 114.314 30.1855 114.787C29.7012 115.26 29.0488 115.496 28.2285 115.496C27.7715 115.496 27.3242 115.398 26.8867 115.203C26.4492 115.008 26.1152 114.74 25.8848 114.4L26.4473 113.75C26.9121 114.324 27.4805 114.611 28.1523 114.611C28.6797 114.611 29.0898 114.463 29.3828 114.166C29.6797 113.869 29.8281 113.451 29.8281 112.912V112.367C29.3945 112.867 28.8027 113.117 28.0527 113.117C27.3105 113.117 26.709 112.818 26.248 112.221C25.791 111.623 25.5625 110.809 25.5625 109.777ZM26.6523 109.9C26.6523 110.615 26.7988 111.178 27.0918 111.588C27.3848 111.994 27.7949 112.197 28.3223 112.197C29.0059 112.197 29.5078 111.887 29.8281 111.266V108.371C29.4961 107.766 28.998 107.463 28.334 107.463C27.8066 107.463 27.3945 107.668 27.0977 108.078C26.8008 108.488 26.6523 109.096 26.6523 109.9ZM33.7363 113H32.6523V104H33.7363V113ZM35.1895 109.771C35.1895 109.15 35.3105 108.592 35.5527 108.096C35.7988 107.6 36.1387 107.217 36.5723 106.947C37.0098 106.678 37.5078 106.543 38.0664 106.543C38.9297 106.543 39.627 106.842 40.1582 107.439C40.6934 108.037 40.9609 108.832 40.9609 109.824V109.9C40.9609 110.518 40.8418 111.072 40.6035 111.564C40.3691 112.053 40.0312 112.434 39.5898 112.707C39.1523 112.98 38.6484 113.117 38.0781 113.117C37.2188 113.117 36.5215 112.818 35.9863 112.221C35.4551 111.623 35.1895 110.832 35.1895 109.848V109.771ZM36.2793 109.9C36.2793 110.604 36.4414 111.168 36.7656 111.594C37.0938 112.02 37.5312 112.232 38.0781 112.232C38.6289 112.232 39.0664 112.018 39.3906 111.588C39.7148 111.154 39.877 110.549 39.877 109.771C39.877 109.076 39.7109 108.514 39.3789 108.084C39.0508 107.65 38.6133 107.434 38.0664 107.434C37.5312 107.434 37.0996 107.646 36.7715 108.072C36.4434 108.498 36.2793 109.107 36.2793 109.9ZM47.6875 109.9C47.6875 110.869 47.4648 111.648 47.0195 112.238C46.5742 112.824 45.9766 113.117 45.2266 113.117C44.4258 113.117 43.8066 112.834 43.3691 112.268L43.3164 113H42.3203V104H43.4043V107.357C43.8418 106.814 44.4453 106.543 45.2148 106.543C45.9844 106.543 46.5879 106.834 47.0254 107.416C47.4668 107.998 47.6875 108.795 47.6875 109.807V109.9ZM46.6035 109.777C46.6035 109.039 46.4609 108.469 46.1758 108.066C45.8906 107.664 45.4805 107.463 44.9453 107.463C44.2305 107.463 43.7168 107.795 43.4043 108.459V111.201C43.7363 111.865 44.2539 112.197 44.957 112.197C45.4766 112.197 45.8809 111.996 46.1699 111.594C46.459 111.191 46.6035 110.586 46.6035 109.777ZM51.6895 113.117C50.8301 113.117 50.1309 112.836 49.5918 112.273C49.0527 111.707 48.7832 110.951 48.7832 110.006V109.807C48.7832 109.178 48.9023 108.617 49.1406 108.125C49.3828 107.629 49.7188 107.242 50.1484 106.965C50.582 106.684 51.0508 106.543 51.5547 106.543C52.3789 106.543 53.0195 106.814 53.4766 107.357C53.9336 107.9 54.1621 108.678 54.1621 109.689V110.141H49.8672C49.8828 110.766 50.0645 111.271 50.4121 111.658C50.7637 112.041 51.209 112.232 51.748 112.232C52.1309 112.232 52.4551 112.154 52.7207 111.998C52.9863 111.842 53.2188 111.635 53.418 111.377L54.0801 111.893C53.5488 112.709 52.752 113.117 51.6895 113.117ZM51.5547 107.434C51.1172 107.434 50.75 107.594 50.4531 107.914C50.1562 108.23 49.9727 108.676 49.9023 109.25H53.0781V109.168C53.0469 108.617 52.8984 108.191 52.6328 107.891C52.3672 107.586 52.0078 107.434 51.5547 107.434ZM55.4453 112.432C55.4453 112.244 55.5 112.088 55.6094 111.963C55.7227 111.838 55.8906 111.775 56.1133 111.775C56.3359 111.775 56.5039 111.838 56.6172 111.963C56.7344 112.088 56.793 112.244 56.793 112.432C56.793 112.611 56.7344 112.762 56.6172 112.883C56.5039 113.004 56.3359 113.064 56.1133 113.064C55.8906 113.064 55.7227 113.004 55.6094 112.883C55.5 112.762 55.4453 112.611 55.4453 112.432ZM63.9414 109.9C63.9414 110.865 63.7207 111.643 63.2793 112.232C62.8379 112.822 62.2402 113.117 61.4863 113.117C60.7168 113.117 60.1113 112.873 59.6699 112.385V115.438H58.5859V106.66H59.5762L59.6289 107.363C60.0703 106.816 60.6836 106.543 61.4688 106.543C62.2305 106.543 62.832 106.83 63.2734 107.404C63.7188 107.979 63.9414 108.777 63.9414 109.801V109.9ZM62.8574 109.777C62.8574 109.062 62.7051 108.498 62.4004 108.084C62.0957 107.67 61.6777 107.463 61.1465 107.463C60.4902 107.463 59.998 107.754 59.6699 108.336V111.365C59.9941 111.943 60.4902 112.232 61.1582 112.232C61.6777 112.232 62.0898 112.027 62.3945 111.617C62.7031 111.203 62.8574 110.59 62.8574 109.777ZM66.3496 106.66L66.3848 107.457C66.8691 106.848 67.502 106.543 68.2832 106.543C69.623 106.543 70.2988 107.299 70.3105 108.811V113H69.2266V108.805C69.2227 108.348 69.1172 108.01 68.9102 107.791C68.707 107.572 68.3887 107.463 67.9551 107.463C67.6035 107.463 67.2949 107.557 67.0293 107.744C66.7637 107.932 66.5566 108.178 66.4082 108.482V113H65.3242V106.66H66.3496ZM71.6875 109.777C71.6875 108.789 71.916 108.004 72.373 107.422C72.8301 106.836 73.4355 106.543 74.1895 106.543C74.9629 106.543 75.5664 106.816 76 107.363L76.0527 106.66H77.043V112.848C77.043 113.668 76.7988 114.314 76.3105 114.787C75.8262 115.26 75.1738 115.496 74.3535 115.496C73.8965 115.496 73.4492 115.398 73.0117 115.203C72.5742 115.008 72.2402 114.74 72.0098 114.4L72.5723 113.75C73.0371 114.324 73.6055 114.611 74.2773 114.611C74.8047 114.611 75.2148 114.463 75.5078 114.166C75.8047 113.869 75.9531 113.451 75.9531 112.912V112.367C75.5195 112.867 74.9277 113.117 74.1777 113.117C73.4355 113.117 72.834 112.818 72.373 112.221C71.916 111.623 71.6875 110.809 71.6875 109.777ZM72.7773 109.9C72.7773 110.615 72.9238 111.178 73.2168 111.588C73.5098 111.994 73.9199 112.197 74.4473 112.197C75.1309 112.197 75.6328 111.887 75.9531 111.266V108.371C75.6211 107.766 75.123 107.463 74.459 107.463C73.9316 107.463 73.5195 107.668 73.2227 108.078C72.9258 108.488 72.7773 109.096 72.7773 109.9Z" fill="black"/>
<rect x="19.5" y="72.5" width="58" height="20" fill="#CBC7FF" stroke="#645D5D"/>
<path d="M25.7344 86C25.6719 85.875 25.6211 85.6523 25.582 85.332C25.0781 85.8555 24.4766 86.1172 23.7773 86.1172C23.1523 86.1172 22.6387 85.9414 22.2363 85.5898C21.8379 85.2344 21.6387 84.7852 21.6387 84.2422C21.6387 83.582 21.8887 83.0703 22.3887 82.707C22.8926 82.3398 23.5996 82.1562 24.5098 82.1562H25.5645V81.6582C25.5645 81.2793 25.4512 80.9785 25.2246 80.7559C24.998 80.5293 24.6641 80.416 24.2227 80.416C23.8359 80.416 23.5117 80.5137 23.25 80.709C22.9883 80.9043 22.8574 81.1406 22.8574 81.418H21.7676C21.7676 81.1016 21.8789 80.7969 22.1016 80.5039C22.3281 80.207 22.6328 79.9727 23.0156 79.8008C23.4023 79.6289 23.8262 79.543 24.2871 79.543C25.0176 79.543 25.5898 79.7266 26.0039 80.0938C26.418 80.457 26.6328 80.959 26.6484 81.5996V84.5176C26.6484 85.0996 26.7227 85.5625 26.8711 85.9062V86H25.7344ZM23.9355 85.1738C24.2754 85.1738 24.5977 85.0859 24.9023 84.9102C25.207 84.7344 25.4277 84.5059 25.5645 84.2246V82.9238H24.7148C23.3867 82.9238 22.7227 83.3125 22.7227 84.0898C22.7227 84.4297 22.8359 84.6953 23.0625 84.8867C23.2891 85.0781 23.5801 85.1738 23.9355 85.1738ZM33.9609 84.5059L35.1797 79.6602H36.2637L34.418 86H33.5391L31.998 81.1953L30.498 86H29.6191L27.7793 79.6602H28.8574L30.1055 84.4062L31.582 79.6602H32.4551L33.9609 84.5059ZM41.0625 84.3184C41.0625 84.0254 40.9512 83.7988 40.7285 83.6387C40.5098 83.4746 40.125 83.334 39.5742 83.2168C39.0273 83.0996 38.5918 82.959 38.2676 82.7949C37.9473 82.6309 37.709 82.4355 37.5527 82.209C37.4004 81.9824 37.3242 81.7129 37.3242 81.4004C37.3242 80.8809 37.543 80.4414 37.9805 80.082C38.4219 79.7227 38.9844 79.543 39.668 79.543C40.3867 79.543 40.9688 79.7285 41.4141 80.0996C41.8633 80.4707 42.0879 80.9453 42.0879 81.5234H40.998C40.998 81.2266 40.8711 80.9707 40.6172 80.7559C40.3672 80.541 40.0508 80.4336 39.668 80.4336C39.2734 80.4336 38.9648 80.5195 38.7422 80.6914C38.5195 80.8633 38.4082 81.0879 38.4082 81.3652C38.4082 81.627 38.5117 81.8242 38.7188 81.957C38.9258 82.0898 39.2988 82.2168 39.8379 82.3379C40.3809 82.459 40.8203 82.6035 41.1562 82.7715C41.4922 82.9395 41.7402 83.1426 41.9004 83.3809C42.0645 83.6152 42.1465 83.9023 42.1465 84.2422C42.1465 84.8086 41.9199 85.2637 41.4668 85.6074C41.0137 85.9473 40.4258 86.1172 39.7031 86.1172C39.1953 86.1172 38.7461 86.0273 38.3555 85.8477C37.9648 85.668 37.6582 85.418 37.4355 85.0977C37.2168 84.7734 37.1074 84.4238 37.1074 84.0488H38.1914C38.2109 84.4121 38.3555 84.7012 38.625 84.916C38.8984 85.127 39.2578 85.2324 39.7031 85.2324C40.1133 85.2324 40.4414 85.1504 40.6875 84.9863C40.9375 84.8184 41.0625 84.5957 41.0625 84.3184ZM43.582 85.4316C43.582 85.2441 43.6367 85.0879 43.7461 84.9629C43.8594 84.8379 44.0273 84.7754 44.25 84.7754C44.4727 84.7754 44.6406 84.8379 44.7539 84.9629C44.8711 85.0879 44.9297 85.2441 44.9297 85.4316C44.9297 85.6113 44.8711 85.7617 44.7539 85.8828C44.6406 86.0039 44.4727 86.0645 44.25 86.0645C44.0273 86.0645 43.8594 86.0039 43.7461 85.8828C43.6367 85.7617 43.582 85.6113 43.582 85.4316ZM47.7422 79.6602L47.7715 80.3633C48.2363 79.8164 48.8633 79.543 49.6523 79.543C50.5391 79.543 51.1426 79.8828 51.4629 80.5625C51.6738 80.2578 51.9473 80.0117 52.2832 79.8242C52.623 79.6367 53.0234 79.543 53.4844 79.543C54.875 79.543 55.582 80.2793 55.6055 81.752V86H54.5215V81.8164C54.5215 81.3633 54.418 81.0254 54.2109 80.8027C54.0039 80.5762 53.6562 80.4629 53.168 80.4629C52.7656 80.4629 52.4316 80.584 52.166 80.8262C51.9004 81.0645 51.7461 81.3867 51.7031 81.793V86H50.6133V81.8457C50.6133 80.9238 50.1621 80.4629 49.2598 80.4629C48.5488 80.4629 48.0625 80.7656 47.8008 81.3711V86H46.7168V79.6602H47.7422ZM62.6016 82.9004C62.6016 83.8652 62.3809 84.6426 61.9395 85.2324C61.498 85.8223 60.9004 86.1172 60.1465 86.1172C59.377 86.1172 58.7715 85.873 58.3301 85.3848V88.4375H57.2461V79.6602H58.2363L58.2891 80.3633C58.7305 79.8164 59.3438 79.543 60.1289 79.543C60.8906 79.543 61.4922 79.8301 61.9336 80.4043C62.3789 80.9785 62.6016 81.7773 62.6016 82.8008V82.9004ZM61.5176 82.7773C61.5176 82.0625 61.3652 81.498 61.0605 81.084C60.7559 80.6699 60.3379 80.4629 59.8066 80.4629C59.1504 80.4629 58.6582 80.7539 58.3301 81.3359V84.3652C58.6543 84.9434 59.1504 85.2324 59.8184 85.2324C60.3379 85.2324 60.75 85.0273 61.0547 84.6172C61.3633 84.2031 61.5176 83.5898 61.5176 82.7773ZM68.4492 83.1348H69.6328V84.0195H68.4492V86H67.3594V84.0195H63.4746V83.3809L67.2949 77.4688H68.4492V83.1348ZM64.7051 83.1348H67.3594V78.9512L67.2305 79.1855L64.7051 83.1348Z" fill="black"/>
<path d="M141.443 60.2324C141.571 59.9879 141.477 59.6857 141.232 59.5573L137.248 57.4655C137.004 57.3372 136.701 57.4313 136.573 57.6758C136.445 57.9203 136.539 58.2226 136.783 58.3509L140.325 60.2103L138.466 63.7519C138.337 63.9964 138.431 64.2986 138.676 64.427C138.92 64.5553 139.223 64.4612 139.351 64.2167L141.443 60.2324ZM80.1487 79.4774L141.149 60.4774L140.851 59.5226L79.8513 78.5226L80.1487 79.4774Z" fill="black"/>
<path d="M141.28 118.414C141.509 118.259 141.569 117.949 141.414 117.72L138.893 113.993C138.738 113.764 138.427 113.704 138.198 113.859C137.97 114.013 137.91 114.324 138.064 114.553L140.306 117.866L136.993 120.107C136.764 120.262 136.704 120.573 136.859 120.802C137.013 121.03 137.324 121.09 137.553 120.936L141.28 118.414ZM83.9053 107.491L140.905 118.491L141.095 117.509L84.0947 106.509L83.9053 107.491Z" fill="black"/>
<path d="M60.1348 172.762C60.1348 172.43 60.0176 172.176 59.7832 172C59.5488 171.82 59.127 171.633 58.5176 171.438C57.9082 171.238 57.4258 171.043 57.0703 170.852C56.1016 170.328 55.6172 169.623 55.6172 168.736C55.6172 168.275 55.7461 167.865 56.0039 167.506C56.2656 167.143 56.6387 166.859 57.123 166.656C57.6113 166.453 58.1582 166.352 58.7637 166.352C59.373 166.352 59.916 166.463 60.3926 166.686C60.8691 166.904 61.2383 167.215 61.5 167.617C61.7656 168.02 61.8984 168.477 61.8984 168.988H60.1406C60.1406 168.598 60.0176 168.295 59.7715 168.08C59.5254 167.861 59.1797 167.752 58.7344 167.752C58.3047 167.752 57.9707 167.844 57.7324 168.027C57.4941 168.207 57.375 168.445 57.375 168.742C57.375 169.02 57.5137 169.252 57.791 169.439C58.0723 169.627 58.4844 169.803 59.0273 169.967C60.0273 170.268 60.7559 170.641 61.2129 171.086C61.6699 171.531 61.8984 172.086 61.8984 172.75C61.8984 173.488 61.6191 174.068 61.0605 174.49C60.502 174.908 59.75 175.117 58.8047 175.117C58.1484 175.117 57.5508 174.998 57.0117 174.76C56.4727 174.518 56.0605 174.188 55.7754 173.77C55.4941 173.352 55.3535 172.867 55.3535 172.316H57.1172C57.1172 173.258 57.6797 173.729 58.8047 173.729C59.2227 173.729 59.5488 173.645 59.7832 173.477C60.0176 173.305 60.1348 173.066 60.1348 172.762ZM64.6348 169.984H65.5371C65.9668 169.984 66.2852 169.877 66.4922 169.662C66.6992 169.447 66.8027 169.162 66.8027 168.807C66.8027 168.463 66.6992 168.195 66.4922 168.004C66.2891 167.812 66.0078 167.717 65.6484 167.717C65.3242 167.717 65.0527 167.807 64.834 167.986C64.6152 168.162 64.5059 168.393 64.5059 168.678H62.8125C62.8125 168.232 62.9316 167.834 63.1699 167.482C63.4121 167.127 63.748 166.85 64.1777 166.65C64.6113 166.451 65.0879 166.352 65.6074 166.352C66.5098 166.352 67.2168 166.568 67.7285 167.002C68.2402 167.432 68.4961 168.025 68.4961 168.783C68.4961 169.174 68.377 169.533 68.1387 169.861C67.9004 170.189 67.5879 170.441 67.2012 170.617C67.6816 170.789 68.0391 171.047 68.2734 171.391C68.5117 171.734 68.6309 172.141 68.6309 172.609C68.6309 173.367 68.3535 173.975 67.7988 174.432C67.248 174.889 66.5176 175.117 65.6074 175.117C64.7559 175.117 64.0586 174.893 63.5156 174.443C62.9766 173.994 62.707 173.4 62.707 172.662H64.4004C64.4004 172.982 64.5195 173.244 64.7578 173.447C65 173.65 65.2969 173.752 65.6484 173.752C66.0508 173.752 66.3652 173.646 66.5918 173.436C66.8223 173.221 66.9375 172.938 66.9375 172.586C66.9375 171.734 66.4688 171.309 65.5312 171.309H64.6348V169.984ZM78.5742 171.889C78.5742 172.904 78.3574 173.697 77.9238 174.268C77.4902 174.834 76.8848 175.117 76.1074 175.117C75.4199 175.117 74.8711 174.854 74.4609 174.326L74.3848 175H72.8613V166H74.5547V169.229C74.9453 168.771 75.459 168.543 76.0957 168.543C76.8691 168.543 77.4746 168.828 77.9121 169.398C78.3535 169.965 78.5742 170.764 78.5742 171.795V171.889ZM76.8809 171.766C76.8809 171.125 76.7793 170.658 76.5762 170.365C76.373 170.068 76.0703 169.92 75.668 169.92C75.1289 169.92 74.7578 170.141 74.5547 170.582V173.084C74.7617 173.529 75.1367 173.752 75.6797 173.752C76.2266 173.752 76.5859 173.482 76.7578 172.943C76.8398 172.686 76.8809 172.293 76.8809 171.766ZM83.4199 174.355C83.002 174.863 82.4238 175.117 81.6855 175.117C81.0059 175.117 80.4863 174.922 80.127 174.531C79.7715 174.141 79.5898 173.568 79.582 172.814V168.66H81.2754V172.756C81.2754 173.416 81.5762 173.746 82.1777 173.746C82.752 173.746 83.1465 173.547 83.3613 173.148V168.66H85.0605V175H83.4668L83.4199 174.355ZM88.9746 173.752C89.2871 173.752 89.541 173.666 89.7363 173.494C89.9316 173.322 90.0332 173.094 90.041 172.809H91.6289C91.625 173.238 91.5078 173.633 91.2773 173.992C91.0469 174.348 90.7305 174.625 90.3281 174.824C89.9297 175.02 89.4883 175.117 89.0039 175.117C88.0977 175.117 87.3828 174.83 86.8594 174.256C86.3359 173.678 86.0742 172.881 86.0742 171.865V171.754C86.0742 170.777 86.334 169.998 86.8535 169.416C87.373 168.834 88.0859 168.543 88.9922 168.543C89.7852 168.543 90.4199 168.77 90.8965 169.223C91.377 169.672 91.6211 170.271 91.6289 171.021H90.041C90.0332 170.693 89.9316 170.428 89.7363 170.225C89.541 170.018 89.2832 169.914 88.9629 169.914C88.5684 169.914 88.2695 170.059 88.0664 170.348C87.8672 170.633 87.7676 171.098 87.7676 171.742V171.918C87.7676 172.57 87.8672 173.039 88.0664 173.324C88.2656 173.609 88.5684 173.752 88.9746 173.752ZM94.8984 172.457L94.2891 173.066V175H92.5957V166H94.2891V170.986L94.6172 170.564L96.2402 168.66H98.2734L95.9824 171.303L98.4727 175H96.5273L94.8984 172.457ZM101.807 175.117C100.877 175.117 100.119 174.832 99.5332 174.262C98.9512 173.691 98.6602 172.932 98.6602 171.982V171.818C98.6602 171.182 98.7832 170.613 99.0293 170.113C99.2754 169.609 99.623 169.223 100.072 168.953C100.525 168.68 101.041 168.543 101.619 168.543C102.486 168.543 103.168 168.816 103.664 169.363C104.164 169.91 104.414 170.686 104.414 171.689V172.381H100.377C100.432 172.795 100.596 173.127 100.869 173.377C101.146 173.627 101.496 173.752 101.918 173.752C102.57 173.752 103.08 173.516 103.447 173.043L104.279 173.975C104.025 174.334 103.682 174.615 103.248 174.818C102.814 175.018 102.334 175.117 101.807 175.117ZM101.613 169.914C101.277 169.914 101.004 170.027 100.793 170.254C100.586 170.48 100.453 170.805 100.395 171.227H102.75V171.092C102.742 170.717 102.641 170.428 102.445 170.225C102.25 170.018 101.973 169.914 101.613 169.914ZM107.408 167.102V168.66H108.492V169.902H107.408V173.066C107.408 173.301 107.453 173.469 107.543 173.57C107.633 173.672 107.805 173.723 108.059 173.723C108.246 173.723 108.412 173.709 108.557 173.682V174.965C108.225 175.066 107.883 175.117 107.531 175.117C106.344 175.117 105.738 174.518 105.715 173.318V169.902H104.789V168.66H105.715V167.102H107.408ZM117.938 172.697L118.77 168.66H120.404L118.787 175H117.369L116.168 171.01L114.967 175H113.555L111.938 168.66H113.572L114.398 172.691L115.559 168.66H116.783L117.938 172.697ZM123.035 175H121.336V168.66H123.035V175ZM121.236 167.02C121.236 166.766 121.32 166.557 121.488 166.393C121.66 166.229 121.893 166.146 122.186 166.146C122.475 166.146 122.705 166.229 122.877 166.393C123.049 166.557 123.135 166.766 123.135 167.02C123.135 167.277 123.047 167.488 122.871 167.652C122.699 167.816 122.471 167.898 122.186 167.898C121.9 167.898 121.67 167.816 121.494 167.652C121.322 167.488 121.236 167.277 121.236 167.02ZM126.463 167.102V168.66H127.547V169.902H126.463V173.066C126.463 173.301 126.508 173.469 126.598 173.57C126.688 173.672 126.859 173.723 127.113 173.723C127.301 173.723 127.467 173.709 127.611 173.682V174.965C127.279 175.066 126.938 175.117 126.586 175.117C125.398 175.117 124.793 174.518 124.77 173.318V169.902H123.844V168.66H124.77V167.102H126.463ZM130.143 169.352C130.592 168.812 131.156 168.543 131.836 168.543C133.211 168.543 133.908 169.342 133.928 170.939V175H132.234V170.986C132.234 170.623 132.156 170.355 132 170.184C131.844 170.008 131.584 169.92 131.221 169.92C130.725 169.92 130.365 170.111 130.143 170.494V175H128.449V166H130.143V169.352ZM140.566 172.932L141.744 168.66H143.514L141.375 175H139.758L137.619 168.66H139.389L140.566 172.932ZM147.1 175.117C146.17 175.117 145.412 174.832 144.826 174.262C144.244 173.691 143.953 172.932 143.953 171.982V171.818C143.953 171.182 144.076 170.613 144.322 170.113C144.568 169.609 144.916 169.223 145.365 168.953C145.818 168.68 146.334 168.543 146.912 168.543C147.779 168.543 148.461 168.816 148.957 169.363C149.457 169.91 149.707 170.686 149.707 171.689V172.381H145.67C145.725 172.795 145.889 173.127 146.162 173.377C146.439 173.627 146.789 173.752 147.211 173.752C147.863 173.752 148.373 173.516 148.74 173.043L149.572 173.975C149.318 174.334 148.975 174.615 148.541 174.818C148.107 175.018 147.627 175.117 147.1 175.117ZM146.906 169.914C146.57 169.914 146.297 170.027 146.086 170.254C145.879 170.48 145.746 170.805 145.688 171.227H148.043V171.092C148.035 170.717 147.934 170.428 147.738 170.225C147.543 170.018 147.266 169.914 146.906 169.914ZM154.236 170.248C154.006 170.217 153.803 170.201 153.627 170.201C152.986 170.201 152.566 170.418 152.367 170.852V175H150.674V168.66H152.273L152.32 169.416C152.66 168.834 153.131 168.543 153.732 168.543C153.92 168.543 154.096 168.568 154.26 168.619L154.236 170.248ZM158.49 173.248C158.49 173.041 158.387 172.879 158.18 172.762C157.977 172.641 157.648 172.533 157.195 172.439C155.688 172.123 154.934 171.482 154.934 170.518C154.934 169.955 155.166 169.486 155.631 169.111C156.1 168.732 156.711 168.543 157.465 168.543C158.27 168.543 158.912 168.732 159.393 169.111C159.877 169.49 160.119 169.982 160.119 170.588H158.426C158.426 170.346 158.348 170.146 158.191 169.99C158.035 169.83 157.791 169.75 157.459 169.75C157.174 169.75 156.953 169.814 156.797 169.943C156.641 170.072 156.562 170.236 156.562 170.436C156.562 170.623 156.65 170.775 156.826 170.893C157.006 171.006 157.307 171.105 157.729 171.191C158.15 171.273 158.506 171.367 158.795 171.473C159.689 171.801 160.137 172.369 160.137 173.178C160.137 173.756 159.889 174.225 159.393 174.584C158.896 174.939 158.256 175.117 157.471 175.117C156.939 175.117 156.467 175.023 156.053 174.836C155.643 174.645 155.32 174.385 155.086 174.057C154.852 173.725 154.734 173.367 154.734 172.984H156.34C156.355 173.285 156.467 173.516 156.674 173.676C156.881 173.836 157.158 173.916 157.506 173.916C157.83 173.916 158.074 173.855 158.238 173.734C158.406 173.609 158.49 173.447 158.49 173.248ZM163.02 175H161.32V168.66H163.02V175ZM161.221 167.02C161.221 166.766 161.305 166.557 161.473 166.393C161.645 166.229 161.877 166.146 162.17 166.146C162.459 166.146 162.689 166.229 162.861 166.393C163.033 166.557 163.119 166.766 163.119 167.02C163.119 167.277 163.031 167.488 162.855 167.652C162.684 167.816 162.455 167.898 162.17 167.898C161.885 167.898 161.654 167.816 161.479 167.652C161.307 167.488 161.221 167.277 161.221 167.02ZM164.156 171.771C164.156 171.143 164.277 170.582 164.52 170.09C164.762 169.598 165.109 169.217 165.562 168.947C166.02 168.678 166.549 168.543 167.15 168.543C168.006 168.543 168.703 168.805 169.242 169.328C169.785 169.852 170.088 170.562 170.15 171.461L170.162 171.895C170.162 172.867 169.891 173.648 169.348 174.238C168.805 174.824 168.076 175.117 167.162 175.117C166.248 175.117 165.518 174.824 164.971 174.238C164.428 173.652 164.156 172.855 164.156 171.848V171.771ZM165.85 171.895C165.85 172.496 165.963 172.957 166.189 173.277C166.416 173.594 166.74 173.752 167.162 173.752C167.572 173.752 167.893 173.596 168.123 173.283C168.354 172.967 168.469 172.463 168.469 171.771C168.469 171.182 168.354 170.725 168.123 170.4C167.893 170.076 167.568 169.914 167.15 169.914C166.736 169.914 166.416 170.076 166.189 170.4C165.963 170.721 165.85 171.219 165.85 171.895ZM172.764 168.66L172.816 169.393C173.27 168.826 173.877 168.543 174.639 168.543C175.311 168.543 175.811 168.74 176.139 169.135C176.467 169.529 176.635 170.119 176.643 170.904V175H174.949V170.945C174.949 170.586 174.871 170.326 174.715 170.166C174.559 170.002 174.299 169.92 173.936 169.92C173.459 169.92 173.102 170.123 172.863 170.529V175H171.17V168.66H172.764ZM179.719 175H178.02V168.66H179.719V175ZM177.92 167.02C177.92 166.766 178.004 166.557 178.172 166.393C178.344 166.229 178.576 166.146 178.869 166.146C179.158 166.146 179.389 166.229 179.561 166.393C179.732 166.557 179.818 166.766 179.818 167.02C179.818 167.277 179.73 167.488 179.555 167.652C179.383 167.816 179.154 167.898 178.869 167.898C178.584 167.898 178.354 167.816 178.178 167.652C178.006 167.488 177.92 167.277 177.92 167.02ZM182.678 168.66L182.73 169.393C183.184 168.826 183.791 168.543 184.553 168.543C185.225 168.543 185.725 168.74 186.053 169.135C186.381 169.529 186.549 170.119 186.557 170.904V175H184.863V170.945C184.863 170.586 184.785 170.326 184.629 170.166C184.473 170.002 184.213 169.92 183.85 169.92C183.373 169.92 183.016 170.123 182.777 170.529V175H181.084V168.66H182.678ZM187.6 171.783C187.6 170.811 187.83 170.027 188.291 169.434C188.756 168.84 189.381 168.543 190.166 168.543C190.861 168.543 191.402 168.781 191.789 169.258L191.859 168.66H193.395V174.789C193.395 175.344 193.268 175.826 193.014 176.236C192.764 176.646 192.41 176.959 191.953 177.174C191.496 177.389 190.961 177.496 190.348 177.496C189.883 177.496 189.43 177.402 188.988 177.215C188.547 177.031 188.213 176.793 187.986 176.5L188.736 175.469C189.158 175.941 189.67 176.178 190.271 176.178C190.721 176.178 191.07 176.057 191.32 175.814C191.57 175.576 191.695 175.236 191.695 174.795V174.455C191.305 174.896 190.791 175.117 190.154 175.117C189.393 175.117 188.775 174.82 188.303 174.227C187.834 173.629 187.6 172.838 187.6 171.854V171.783ZM189.293 171.906C189.293 172.48 189.408 172.932 189.639 173.26C189.869 173.584 190.186 173.746 190.588 173.746C191.104 173.746 191.473 173.553 191.695 173.166V170.5C191.469 170.113 191.104 169.92 190.6 169.92C190.193 169.92 189.873 170.086 189.639 170.418C189.408 170.75 189.293 171.246 189.293 171.906ZM106.641 189.117C105.711 189.117 104.953 188.832 104.367 188.262C103.785 187.691 103.494 186.932 103.494 185.982V185.818C103.494 185.182 103.617 184.613 103.863 184.113C104.109 183.609 104.457 183.223 104.906 182.953C105.359 182.68 105.875 182.543 106.453 182.543C107.32 182.543 108.002 182.816 108.498 183.363C108.998 183.91 109.248 184.686 109.248 185.689V186.381H105.211C105.266 186.795 105.43 187.127 105.703 187.377C105.98 187.627 106.33 187.752 106.752 187.752C107.404 187.752 107.914 187.516 108.281 187.043L109.113 187.975C108.859 188.334 108.516 188.615 108.082 188.818C107.648 189.018 107.168 189.117 106.641 189.117ZM106.447 183.914C106.111 183.914 105.838 184.027 105.627 184.254C105.42 184.48 105.287 184.805 105.229 185.227H107.584V185.092C107.576 184.717 107.475 184.428 107.279 184.225C107.084 184.018 106.807 183.914 106.447 183.914ZM111.773 182.66L111.826 183.393C112.279 182.826 112.887 182.543 113.648 182.543C114.32 182.543 114.82 182.74 115.148 183.135C115.477 183.529 115.645 184.119 115.652 184.904V189H113.959V184.945C113.959 184.586 113.881 184.326 113.725 184.166C113.568 184.002 113.309 183.92 112.945 183.92C112.469 183.92 112.111 184.123 111.873 184.529V189H110.18V182.66H111.773ZM120.615 189C120.537 188.848 120.48 188.658 120.445 188.432C120.035 188.889 119.502 189.117 118.846 189.117C118.225 189.117 117.709 188.938 117.299 188.578C116.893 188.219 116.689 187.766 116.689 187.219C116.689 186.547 116.938 186.031 117.434 185.672C117.934 185.312 118.654 185.131 119.596 185.127H120.375V184.764C120.375 184.471 120.299 184.236 120.146 184.061C119.998 183.885 119.762 183.797 119.438 183.797C119.152 183.797 118.928 183.865 118.764 184.002C118.604 184.139 118.523 184.326 118.523 184.564H116.83C116.83 184.197 116.943 183.857 117.17 183.545C117.396 183.232 117.717 182.988 118.131 182.812C118.545 182.633 119.01 182.543 119.525 182.543C120.307 182.543 120.926 182.74 121.383 183.135C121.844 183.525 122.074 184.076 122.074 184.787V187.535C122.078 188.137 122.162 188.592 122.326 188.9V189H120.615ZM119.215 187.822C119.465 187.822 119.695 187.768 119.906 187.658C120.117 187.545 120.273 187.395 120.375 187.207V186.117H119.742C118.895 186.117 118.443 186.41 118.389 186.996L118.383 187.096C118.383 187.307 118.457 187.48 118.605 187.617C118.754 187.754 118.957 187.822 119.215 187.822ZM129.088 185.889C129.088 186.904 128.871 187.697 128.438 188.268C128.004 188.834 127.398 189.117 126.621 189.117C125.934 189.117 125.385 188.854 124.975 188.326L124.898 189H123.375V180H125.068V183.229C125.459 182.771 125.973 182.543 126.609 182.543C127.383 182.543 127.988 182.828 128.426 183.398C128.867 183.965 129.088 184.764 129.088 185.795V185.889ZM127.395 185.766C127.395 185.125 127.293 184.658 127.09 184.365C126.887 184.068 126.584 183.92 126.182 183.92C125.643 183.92 125.271 184.141 125.068 184.582V187.084C125.275 187.529 125.65 187.752 126.193 187.752C126.74 187.752 127.1 187.482 127.271 186.943C127.354 186.686 127.395 186.293 127.395 185.766ZM131.924 189H130.225V180H131.924V189ZM136.242 189.117C135.312 189.117 134.555 188.832 133.969 188.262C133.387 187.691 133.096 186.932 133.096 185.982V185.818C133.096 185.182 133.219 184.613 133.465 184.113C133.711 183.609 134.059 183.223 134.508 182.953C134.961 182.68 135.477 182.543 136.055 182.543C136.922 182.543 137.604 182.816 138.1 183.363C138.6 183.91 138.85 184.686 138.85 185.689V186.381H134.812C134.867 186.795 135.031 187.127 135.305 187.377C135.582 187.627 135.932 187.752 136.354 187.752C137.006 187.752 137.516 187.516 137.883 187.043L138.715 187.975C138.461 188.334 138.117 188.615 137.684 188.818C137.25 189.018 136.77 189.117 136.242 189.117ZM136.049 183.914C135.713 183.914 135.439 184.027 135.229 184.254C135.021 184.48 134.889 184.805 134.83 185.227H137.186V185.092C137.178 184.717 137.076 184.428 136.881 184.225C136.686 184.018 136.408 183.914 136.049 183.914ZM139.553 185.783C139.553 184.795 139.773 184.008 140.215 183.422C140.66 182.836 141.268 182.543 142.037 182.543C142.654 182.543 143.164 182.773 143.566 183.234V180H145.266V189H143.736L143.654 188.326C143.232 188.854 142.689 189.117 142.025 189.117C141.279 189.117 140.68 188.824 140.227 188.238C139.777 187.648 139.553 186.83 139.553 185.783ZM141.246 185.906C141.246 186.5 141.35 186.955 141.557 187.271C141.764 187.588 142.064 187.746 142.459 187.746C142.982 187.746 143.352 187.525 143.566 187.084V184.582C143.355 184.141 142.99 183.92 142.471 183.92C141.654 183.92 141.246 184.582 141.246 185.906Z" fill="black"/>
</svg>
