<svg width="364" height="182" viewBox="0 0 364 182" fill="none" xmlns="http://www.w3.org/2000/svg">
<path d="M336.764 125.09H332.991H332.751C330.864 124.779 329.118 123.897 327.749 122.561C326.38 121.226 325.454 119.502 325.097 117.623C324.351 111.397 328.057 108.49 330.871 107.53C330.891 104.4 332.026 101.38 334.071 99.0099C335.195 97.7179 336.59 96.6895 338.158 95.9982C339.725 95.3068 341.425 94.9694 343.137 95.0099C345.52 94.912 347.875 95.5405 349.892 96.812C351.909 98.0836 353.492 99.9382 354.431 102.13C355.634 101.416 357.059 101.174 358.431 101.45C362.431 102.21 363.537 106.317 363.564 108.383H360.897C360.897 108.237 360.791 104.583 357.884 104.023C357.329 103.916 356.755 103.977 356.235 104.198C355.715 104.418 355.272 104.79 354.964 105.263C354.817 105.482 354.609 105.651 354.366 105.752C354.123 105.852 353.855 105.878 353.597 105.827C353.339 105.776 353.102 105.649 352.916 105.463C352.73 105.278 352.603 105.041 352.551 104.783C352.081 102.684 350.889 100.816 349.184 99.5053C347.478 98.1944 345.367 97.5237 343.217 97.6099C341.884 97.5776 340.561 97.8406 339.341 98.38C338.122 98.9194 337.037 99.7219 336.164 100.73C335.257 101.763 334.57 102.969 334.144 104.275C333.718 105.582 333.561 106.961 333.684 108.33C333.73 108.674 333.64 109.022 333.434 109.301C333.227 109.58 332.92 109.767 332.577 109.823C332.017 109.93 327.071 111.01 327.817 117.237C328.106 118.523 328.765 119.697 329.713 120.614C330.66 121.531 331.855 122.15 333.151 122.397H336.791L336.764 125.09Z" fill="white"/>
<path d="M353.777 123.903H344.644V126.57H353.777V123.903Z" fill="white"/>
<path d="M353.777 129.13H344.644V131.797H353.777V129.13Z" fill="white"/>
<path d="M353.777 118.65H344.644V121.317H353.777V118.65Z" fill="white"/>
<path d="M355.951 121.317C355.687 121.317 355.429 121.238 355.21 121.092C354.991 120.945 354.82 120.737 354.719 120.493C354.618 120.25 354.591 119.982 354.643 119.723C354.694 119.464 354.821 119.227 355.008 119.04C355.194 118.854 355.432 118.727 355.691 118.676C355.949 118.624 356.217 118.65 356.461 118.751C356.705 118.852 356.913 119.023 357.059 119.242C357.206 119.462 357.284 119.72 357.284 119.983C357.284 120.337 357.144 120.676 356.893 120.926C356.643 121.176 356.304 121.317 355.951 121.317Z" fill="white"/>
<path d="M355.951 126.543C355.597 126.543 355.258 126.403 355.008 126.153C354.758 125.903 354.617 125.564 354.617 125.21C354.617 124.856 354.758 124.517 355.008 124.267C355.258 124.017 355.597 123.877 355.951 123.877C356.304 123.877 356.643 124.017 356.893 124.267C357.144 124.517 357.284 124.856 357.284 125.21C357.284 125.564 357.144 125.903 356.893 126.153C356.643 126.403 356.304 126.543 355.951 126.543Z" fill="white"/>
<path d="M355.951 131.757C355.687 131.757 355.429 131.678 355.21 131.532C354.991 131.385 354.82 131.177 354.719 130.934C354.618 130.69 354.591 130.422 354.643 130.163C354.694 129.905 354.821 129.667 355.008 129.48C355.194 129.294 355.432 129.167 355.691 129.116C355.949 129.064 356.217 129.091 356.461 129.191C356.705 129.292 356.913 129.463 357.059 129.683C357.206 129.902 357.284 130.16 357.284 130.423C357.284 130.777 357.144 131.116 356.893 131.366C356.643 131.616 356.304 131.757 355.951 131.757Z" fill="white"/>
<path d="M359.844 156.597H341.404C340.343 156.597 339.326 156.175 338.576 155.425C337.825 154.675 337.404 153.657 337.404 152.597V113.783C337.404 112.722 337.825 111.705 338.576 110.955C339.326 110.205 340.343 109.783 341.404 109.783H359.844C360.905 109.783 361.922 110.205 362.672 110.955C363.423 111.705 363.844 112.722 363.844 113.783V152.597C363.844 153.657 363.423 154.675 362.672 155.425C361.922 156.175 360.905 156.597 359.844 156.597ZM341.404 112.45C341.05 112.45 340.711 112.59 340.461 112.84C340.211 113.091 340.071 113.43 340.071 113.783V152.597C340.071 152.95 340.211 153.289 340.461 153.539C340.711 153.789 341.05 153.93 341.404 153.93H359.844C360.198 153.93 360.537 153.789 360.787 153.539C361.037 153.289 361.177 152.95 361.177 152.597V113.783C361.177 113.43 361.037 113.091 360.787 112.84C360.537 112.59 360.198 112.45 359.844 112.45H341.404Z" fill="white"/>
<path d="M347.177 159.663H341.537C341.184 159.663 340.845 159.523 340.595 159.273C340.344 159.023 340.204 158.684 340.204 158.33V155.263C340.204 154.91 340.344 154.571 340.595 154.32C340.845 154.07 341.184 153.93 341.537 153.93H347.177C347.531 153.93 347.87 154.07 348.12 154.32C348.37 154.571 348.511 154.91 348.511 155.263V158.33C348.511 158.684 348.37 159.023 348.12 159.273C347.87 159.523 347.531 159.663 347.177 159.663ZM342.871 156.997H345.844V156.597H342.871V156.997Z" fill="white"/>
<path d="M360.271 159.663H354.617C354.264 159.663 353.925 159.523 353.675 159.273C353.424 159.023 353.284 158.684 353.284 158.33V155.263C353.284 154.91 353.424 154.571 353.675 154.32C353.925 154.07 354.264 153.93 354.617 153.93H360.271C360.624 153.93 360.963 154.07 361.213 154.32C361.464 154.571 361.604 154.91 361.604 155.263V158.33C361.604 158.684 361.464 159.023 361.213 159.273C360.963 159.523 360.624 159.663 360.271 159.663ZM355.951 156.997H358.937V156.597H355.951V156.997Z" fill="white"/>
<rect x="25.5" y="97.5" width="58" height="20" fill="#D6FFD6" stroke="black"/>
<path d="M27.5625 107.777C27.5625 106.789 27.791 106.004 28.248 105.422C28.7051 104.836 29.3105 104.543 30.0645 104.543C30.8379 104.543 31.4414 104.816 31.875 105.363L31.9277 104.66H32.918V110.848C32.918 111.668 32.6738 112.314 32.1855 112.787C31.7012 113.26 31.0488 113.496 30.2285 113.496C29.7715 113.496 29.3242 113.398 28.8867 113.203C28.4492 113.008 28.1152 112.74 27.8848 112.4L28.4473 111.75C28.9121 112.324 29.4805 112.611 30.1523 112.611C30.6797 112.611 31.0898 112.463 31.3828 112.166C31.6797 111.869 31.8281 111.451 31.8281 110.912V110.367C31.3945 110.867 30.8027 111.117 30.0527 111.117C29.3105 111.117 28.709 110.818 28.248 110.221C27.791 109.623 27.5625 108.809 27.5625 107.777ZM28.6523 107.9C28.6523 108.615 28.7988 109.178 29.0918 109.588C29.3848 109.994 29.7949 110.197 30.3223 110.197C31.0059 110.197 31.5078 109.887 31.8281 109.266V106.371C31.4961 105.766 30.998 105.463 30.334 105.463C29.8066 105.463 29.3945 105.668 29.0977 106.078C28.8008 106.488 28.6523 107.096 28.6523 107.9ZM35.7363 111H34.6523V102H35.7363V111ZM37.1895 107.771C37.1895 107.15 37.3105 106.592 37.5527 106.096C37.7988 105.6 38.1387 105.217 38.5723 104.947C39.0098 104.678 39.5078 104.543 40.0664 104.543C40.9297 104.543 41.627 104.842 42.1582 105.439C42.6934 106.037 42.9609 106.832 42.9609 107.824V107.9C42.9609 108.518 42.8418 109.072 42.6035 109.564C42.3691 110.053 42.0312 110.434 41.5898 110.707C41.1523 110.98 40.6484 111.117 40.0781 111.117C39.2188 111.117 38.5215 110.818 37.9863 110.221C37.4551 109.623 37.1895 108.832 37.1895 107.848V107.771ZM38.2793 107.9C38.2793 108.604 38.4414 109.168 38.7656 109.594C39.0938 110.02 39.5312 110.232 40.0781 110.232C40.6289 110.232 41.0664 110.018 41.3906 109.588C41.7148 109.154 41.877 108.549 41.877 107.771C41.877 107.076 41.7109 106.514 41.3789 106.084C41.0508 105.65 40.6133 105.434 40.0664 105.434C39.5312 105.434 39.0996 105.646 38.7715 106.072C38.4434 106.498 38.2793 107.107 38.2793 107.9ZM49.6875 107.9C49.6875 108.869 49.4648 109.648 49.0195 110.238C48.5742 110.824 47.9766 111.117 47.2266 111.117C46.4258 111.117 45.8066 110.834 45.3691 110.268L45.3164 111H44.3203V102H45.4043V105.357C45.8418 104.814 46.4453 104.543 47.2148 104.543C47.9844 104.543 48.5879 104.834 49.0254 105.416C49.4668 105.998 49.6875 106.795 49.6875 107.807V107.9ZM48.6035 107.777C48.6035 107.039 48.4609 106.469 48.1758 106.066C47.8906 105.664 47.4805 105.463 46.9453 105.463C46.2305 105.463 45.7168 105.795 45.4043 106.459V109.201C45.7363 109.865 46.2539 110.197 46.957 110.197C47.4766 110.197 47.8809 109.996 48.1699 109.594C48.459 109.191 48.6035 108.586 48.6035 107.777ZM53.6895 111.117C52.8301 111.117 52.1309 110.836 51.5918 110.273C51.0527 109.707 50.7832 108.951 50.7832 108.006V107.807C50.7832 107.178 50.9023 106.617 51.1406 106.125C51.3828 105.629 51.7188 105.242 52.1484 104.965C52.582 104.684 53.0508 104.543 53.5547 104.543C54.3789 104.543 55.0195 104.814 55.4766 105.357C55.9336 105.9 56.1621 106.678 56.1621 107.689V108.141H51.8672C51.8828 108.766 52.0645 109.271 52.4121 109.658C52.7637 110.041 53.209 110.232 53.748 110.232C54.1309 110.232 54.4551 110.154 54.7207 109.998C54.9863 109.842 55.2188 109.635 55.418 109.377L56.0801 109.893C55.5488 110.709 54.752 111.117 53.6895 111.117ZM53.5547 105.434C53.1172 105.434 52.75 105.594 52.4531 105.914C52.1562 106.23 51.9727 106.676 51.9023 107.25H55.0781V107.168C55.0469 106.617 54.8984 106.191 54.6328 105.891C54.3672 105.586 54.0078 105.434 53.5547 105.434ZM57.4453 110.432C57.4453 110.244 57.5 110.088 57.6094 109.963C57.7227 109.838 57.8906 109.775 58.1133 109.775C58.3359 109.775 58.5039 109.838 58.6172 109.963C58.7344 110.088 58.793 110.244 58.793 110.432C58.793 110.611 58.7344 110.762 58.6172 110.883C58.5039 111.004 58.3359 111.064 58.1133 111.064C57.8906 111.064 57.7227 111.004 57.6094 110.883C57.5 110.762 57.4453 110.611 57.4453 110.432ZM65.9414 107.9C65.9414 108.865 65.7207 109.643 65.2793 110.232C64.8379 110.822 64.2402 111.117 63.4863 111.117C62.7168 111.117 62.1113 110.873 61.6699 110.385V113.438H60.5859V104.66H61.5762L61.6289 105.363C62.0703 104.816 62.6836 104.543 63.4688 104.543C64.2305 104.543 64.832 104.83 65.2734 105.404C65.7188 105.979 65.9414 106.777 65.9414 107.801V107.9ZM64.8574 107.777C64.8574 107.062 64.7051 106.498 64.4004 106.084C64.0957 105.67 63.6777 105.463 63.1465 105.463C62.4902 105.463 61.998 105.754 61.6699 106.336V109.365C61.9941 109.943 62.4902 110.232 63.1582 110.232C63.6777 110.232 64.0898 110.027 64.3945 109.617C64.7031 109.203 64.8574 108.59 64.8574 107.777ZM68.3496 104.66L68.3848 105.457C68.8691 104.848 69.502 104.543 70.2832 104.543C71.623 104.543 72.2988 105.299 72.3105 106.811V111H71.2266V106.805C71.2227 106.348 71.1172 106.01 70.9102 105.791C70.707 105.572 70.3887 105.463 69.9551 105.463C69.6035 105.463 69.2949 105.557 69.0293 105.744C68.7637 105.932 68.5566 106.178 68.4082 106.482V111H67.3242V104.66H68.3496ZM73.6875 107.777C73.6875 106.789 73.916 106.004 74.373 105.422C74.8301 104.836 75.4355 104.543 76.1895 104.543C76.9629 104.543 77.5664 104.816 78 105.363L78.0527 104.66H79.043V110.848C79.043 111.668 78.7988 112.314 78.3105 112.787C77.8262 113.26 77.1738 113.496 76.3535 113.496C75.8965 113.496 75.4492 113.398 75.0117 113.203C74.5742 113.008 74.2402 112.74 74.0098 112.4L74.5723 111.75C75.0371 112.324 75.6055 112.611 76.2773 112.611C76.8047 112.611 77.2148 112.463 77.5078 112.166C77.8047 111.869 77.9531 111.451 77.9531 110.912V110.367C77.5195 110.867 76.9277 111.117 76.1777 111.117C75.4355 111.117 74.834 110.818 74.373 110.221C73.916 109.623 73.6875 108.809 73.6875 107.777ZM74.7773 107.9C74.7773 108.615 74.9238 109.178 75.2168 109.588C75.5098 109.994 75.9199 110.197 76.4473 110.197C77.1309 110.197 77.6328 109.887 77.9531 109.266V106.371C77.6211 105.766 77.123 105.463 76.459 105.463C75.9316 105.463 75.5195 105.668 75.2227 106.078C74.9258 106.488 74.7773 107.096 74.7773 107.9Z" fill="black"/>
<path d="M54.0621 129.998C37.7507 129.998 11.9434 125.988 11.6116 115.228L0.04809 22.2657C-0.0839257 21.5321 0.0584042 20.7717 0.443769 20.1519C0.829134 19.532 1.42597 19.1034 2.10297 18.9604C2.77997 18.8173 3.48169 18.9716 4.05375 19.3891C4.62582 19.8067 5.02137 20.4534 5.15338 21.1869C6.4297 26.5252 25.7022 33.9931 54.1642 33.9931C82.6262 33.9931 101.873 26.5252 103.149 21.1869C103.281 20.4534 103.677 19.8067 104.249 19.3891C104.821 18.9716 105.523 18.8173 106.2 18.9604C106.877 19.1034 107.474 19.532 107.859 20.1519C108.244 20.7717 108.387 21.5321 108.255 22.2657L96.487 115.228C96.487 118.879 93.3728 122.005 87.5272 124.522C84.9329 125.592 82.2714 126.461 79.563 127.122C71.1848 129.084 62.6337 130.049 54.0621 129.998ZM6.14891 29.7889L16.6148 114.786C16.6148 114.786 16.6148 115.034 16.6148 115.145C16.6148 118.409 31.1393 124.605 53.96 124.605C62.1464 124.653 70.3129 123.725 78.3122 121.839C80.7707 121.204 83.1848 120.381 85.5362 119.377C90.2586 117.358 91.3052 115.532 91.3052 115.007C91.2935 114.887 91.2935 114.767 91.3052 114.647L101.848 29.7889C91.9944 36.1506 72.1348 39.525 53.9344 39.525C35.7341 39.525 15.9766 36.1506 6.14891 29.7889Z" fill="#020202"/>
<path d="M54.0621 39.5249C29.8885 39.5249 2.7539 33.5782 0.124673 22.5975C0.115556 22.4779 0.115556 22.3576 0.124673 22.238V21.1039C0.113044 20.9844 0.113044 20.8639 0.124673 20.7444C0.124673 8.51902 28.6632 0 54.2918 0C79.9204 0 108.229 8.51902 108.229 20.7444C108.229 20.7444 108.229 20.9656 108.229 21.1039L108.076 22.238C108.087 22.3576 108.087 22.4779 108.076 22.5975C105.345 33.5782 78.2101 39.5249 54.0621 39.5249ZM5.07681 21.3252C6.65945 26.6634 25.8553 33.9931 54.0621 33.9931C82.2688 33.9931 101.439 26.6634 103.022 21.3252V20.5784C102.741 15.2125 82.6262 5.53183 54.0621 5.53183C25.498 5.53183 5.3576 15.2125 5.00023 20.5784L5.07681 21.3252Z" fill="#020202"/>
<path d="M108.331 77.7775C96.1807 77.7775 69.5821 64.75 52.9389 55.899L55.1852 50.9204C78.159 63.1734 105.217 74.486 109.837 72.3562C109.48 71.5541 107.77 69.0648 99.6268 64.2798L99.2184 64.0032L101.771 59.1905L102.154 59.4394C110.348 64.3351 114.253 68.0967 114.917 71.6371C115.048 72.376 115.024 73.1372 114.847 73.8648C114.67 74.5924 114.345 75.2677 113.896 75.8413C113.149 76.5752 112.267 77.1276 111.307 77.4615C110.347 77.7955 109.333 77.9032 108.331 77.7775Z" fill="#020202"/>
<path d="M54.0621 59.4671C52.9665 59.4671 51.8956 59.1151 50.9846 58.4555C50.0737 57.796 49.3637 56.8586 48.9445 55.7619C48.5252 54.6652 48.4155 53.4584 48.6293 52.2941C48.843 51.1298 49.3706 50.0604 50.1452 49.221C50.9199 48.3816 51.9069 47.8099 52.9814 47.5783C54.0559 47.3467 55.1697 47.4656 56.1818 47.9199C57.194 48.3742 58.0591 49.1435 58.6678 50.1305C59.2764 51.1175 59.6013 52.2779 59.6013 53.465C59.5946 55.0546 59.0088 56.5771 57.9715 57.7011C56.9341 58.8251 55.5291 59.4598 54.0621 59.4671ZM54.0621 52.9948C54.003 52.9911 53.9438 53.0004 53.8882 53.0224C53.8325 53.0443 53.7816 53.0783 53.7386 53.1224C53.6955 53.1664 53.6613 53.2195 53.6379 53.2785C53.6145 53.3374 53.6025 53.4009 53.6026 53.465C53.6026 53.9906 54.496 53.9906 54.496 53.465C54.5033 53.3988 54.4974 53.3317 54.4789 53.2681C54.4603 53.2045 54.4295 53.1459 54.3885 53.0962C54.3474 53.0465 54.2971 53.0068 54.2408 52.9798C54.1846 52.9528 54.1236 52.939 54.0621 52.9395V52.9948Z" fill="#020202"/>
<rect x="184.5" y="98.5" width="90.1465" height="28" fill="white" stroke="black"/>
<path d="M184.5 98.5H289.5V126.5H184.5V98.5Z" fill="#D6FFD6" stroke="black"/>
<path d="M199.277 105.033L198.234 106.117V109H197.109V100.469H198.234V104.688L202.025 100.469H203.385L200.027 104.236L203.648 109H202.301L199.277 105.033ZM206.941 109.117C206.082 109.117 205.383 108.836 204.844 108.273C204.305 107.707 204.035 106.951 204.035 106.006V105.807C204.035 105.178 204.154 104.617 204.393 104.125C204.635 103.629 204.971 103.242 205.4 102.965C205.834 102.684 206.303 102.543 206.807 102.543C207.631 102.543 208.271 102.814 208.729 103.357C209.186 103.9 209.414 104.678 209.414 105.689V106.141H205.119C205.135 106.766 205.316 107.271 205.664 107.658C206.016 108.041 206.461 108.232 207 108.232C207.383 108.232 207.707 108.154 207.973 107.998C208.238 107.842 208.471 107.635 208.67 107.377L209.332 107.893C208.801 108.709 208.004 109.117 206.941 109.117ZM206.807 103.434C206.369 103.434 206.002 103.594 205.705 103.914C205.408 104.23 205.225 104.676 205.154 105.25H208.33V105.168C208.299 104.617 208.15 104.191 207.885 103.891C207.619 103.586 207.26 103.434 206.807 103.434ZM212.666 107.412L214.143 102.66H215.303L212.754 109.979C212.359 111.033 211.732 111.561 210.873 111.561L210.668 111.543L210.264 111.467V110.588L210.557 110.611C210.924 110.611 211.209 110.537 211.412 110.389C211.619 110.24 211.789 109.969 211.922 109.574L212.162 108.93L209.9 102.66H211.084L212.666 107.412ZM221.232 104.23H216.346V103.287H221.232V104.23ZM221.232 106.662H216.346V105.725H221.232V106.662ZM225.58 105.777C225.58 104.789 225.809 104.004 226.266 103.422C226.723 102.836 227.328 102.543 228.082 102.543C228.855 102.543 229.459 102.816 229.893 103.363L229.945 102.66H230.936V108.848C230.936 109.668 230.691 110.314 230.203 110.787C229.719 111.26 229.066 111.496 228.246 111.496C227.789 111.496 227.342 111.398 226.904 111.203C226.467 111.008 226.133 110.74 225.902 110.4L226.465 109.75C226.93 110.324 227.498 110.611 228.17 110.611C228.697 110.611 229.107 110.463 229.4 110.166C229.697 109.869 229.846 109.451 229.846 108.912V108.367C229.412 108.867 228.82 109.117 228.07 109.117C227.328 109.117 226.727 108.818 226.266 108.221C225.809 107.623 225.58 106.809 225.58 105.777ZM226.67 105.9C226.67 106.615 226.816 107.178 227.109 107.588C227.402 107.994 227.812 108.197 228.34 108.197C229.023 108.197 229.525 107.887 229.846 107.266V104.371C229.514 103.766 229.016 103.463 228.352 103.463C227.824 103.463 227.412 103.668 227.115 104.078C226.818 104.488 226.67 105.096 226.67 105.9ZM233.754 109H232.67V100H233.754V109ZM235.207 105.771C235.207 105.15 235.328 104.592 235.57 104.096C235.816 103.6 236.156 103.217 236.59 102.947C237.027 102.678 237.525 102.543 238.084 102.543C238.947 102.543 239.645 102.842 240.176 103.439C240.711 104.037 240.979 104.832 240.979 105.824V105.9C240.979 106.518 240.859 107.072 240.621 107.564C240.387 108.053 240.049 108.434 239.607 108.707C239.17 108.98 238.666 109.117 238.096 109.117C237.236 109.117 236.539 108.818 236.004 108.221C235.473 107.623 235.207 106.832 235.207 105.848V105.771ZM236.297 105.9C236.297 106.604 236.459 107.168 236.783 107.594C237.111 108.02 237.549 108.232 238.096 108.232C238.646 108.232 239.084 108.018 239.408 107.588C239.732 107.154 239.895 106.549 239.895 105.771C239.895 105.076 239.729 104.514 239.396 104.084C239.068 103.65 238.631 103.434 238.084 103.434C237.549 103.434 237.117 103.646 236.789 104.072C236.461 104.498 236.297 105.107 236.297 105.9ZM247.705 105.9C247.705 106.869 247.482 107.648 247.037 108.238C246.592 108.824 245.994 109.117 245.244 109.117C244.443 109.117 243.824 108.834 243.387 108.268L243.334 109H242.338V100H243.422V103.357C243.859 102.814 244.463 102.543 245.232 102.543C246.002 102.543 246.605 102.834 247.043 103.416C247.484 103.998 247.705 104.795 247.705 105.807V105.9ZM246.621 105.777C246.621 105.039 246.479 104.469 246.193 104.066C245.908 103.664 245.498 103.463 244.963 103.463C244.248 103.463 243.734 103.795 243.422 104.459V107.201C243.754 107.865 244.271 108.197 244.975 108.197C245.494 108.197 245.898 107.996 246.188 107.594C246.477 107.191 246.621 106.586 246.621 105.777ZM251.707 109.117C250.848 109.117 250.148 108.836 249.609 108.273C249.07 107.707 248.801 106.951 248.801 106.006V105.807C248.801 105.178 248.92 104.617 249.158 104.125C249.4 103.629 249.736 103.242 250.166 102.965C250.6 102.684 251.068 102.543 251.572 102.543C252.396 102.543 253.037 102.814 253.494 103.357C253.951 103.9 254.18 104.678 254.18 105.689V106.141H249.885C249.9 106.766 250.082 107.271 250.43 107.658C250.781 108.041 251.227 108.232 251.766 108.232C252.148 108.232 252.473 108.154 252.738 107.998C253.004 107.842 253.236 107.635 253.436 107.377L254.098 107.893C253.566 108.709 252.77 109.117 251.707 109.117ZM251.572 103.434C251.135 103.434 250.768 103.594 250.471 103.914C250.174 104.23 249.99 104.676 249.92 105.25H253.096V105.168C253.064 104.617 252.916 104.191 252.65 103.891C252.385 103.586 252.025 103.434 251.572 103.434ZM255.463 108.432C255.463 108.244 255.518 108.088 255.627 107.963C255.74 107.838 255.908 107.775 256.131 107.775C256.354 107.775 256.521 107.838 256.635 107.963C256.752 108.088 256.811 108.244 256.811 108.432C256.811 108.611 256.752 108.762 256.635 108.883C256.521 109.004 256.354 109.064 256.131 109.064C255.908 109.064 255.74 109.004 255.627 108.883C255.518 108.762 255.463 108.611 255.463 108.432ZM263.959 105.9C263.959 106.865 263.738 107.643 263.297 108.232C262.855 108.822 262.258 109.117 261.504 109.117C260.734 109.117 260.129 108.873 259.688 108.385V111.438H258.604V102.66H259.594L259.646 103.363C260.088 102.816 260.701 102.543 261.486 102.543C262.248 102.543 262.85 102.83 263.291 103.404C263.736 103.979 263.959 104.777 263.959 105.801V105.9ZM262.875 105.777C262.875 105.062 262.723 104.498 262.418 104.084C262.113 103.67 261.695 103.463 261.164 103.463C260.508 103.463 260.016 103.754 259.688 104.336V107.365C260.012 107.943 260.508 108.232 261.176 108.232C261.695 108.232 262.107 108.027 262.412 107.617C262.721 107.203 262.875 106.59 262.875 105.777ZM266.367 102.66L266.402 103.457C266.887 102.848 267.52 102.543 268.301 102.543C269.641 102.543 270.316 103.299 270.328 104.811V109H269.244V104.805C269.24 104.348 269.135 104.01 268.928 103.791C268.725 103.572 268.406 103.463 267.973 103.463C267.621 103.463 267.312 103.557 267.047 103.744C266.781 103.932 266.574 104.178 266.426 104.482V109H265.342V102.66H266.367ZM271.705 105.777C271.705 104.789 271.934 104.004 272.391 103.422C272.848 102.836 273.453 102.543 274.207 102.543C274.98 102.543 275.584 102.816 276.018 103.363L276.07 102.66H277.061V108.848C277.061 109.668 276.816 110.314 276.328 110.787C275.844 111.26 275.191 111.496 274.371 111.496C273.914 111.496 273.467 111.398 273.029 111.203C272.592 111.008 272.258 110.74 272.027 110.4L272.59 109.75C273.055 110.324 273.623 110.611 274.295 110.611C274.822 110.611 275.232 110.463 275.525 110.166C275.822 109.869 275.971 109.451 275.971 108.912V108.367C275.537 108.867 274.945 109.117 274.195 109.117C273.453 109.117 272.852 108.818 272.391 108.221C271.934 107.623 271.705 106.809 271.705 105.777ZM272.795 105.9C272.795 106.615 272.941 107.178 273.234 107.588C273.527 107.994 273.938 108.197 274.465 108.197C275.148 108.197 275.65 107.887 275.971 107.266V104.371C275.639 103.766 275.141 103.463 274.477 103.463C273.949 103.463 273.537 103.668 273.24 104.078C272.943 104.488 272.795 105.096 272.795 105.9ZM207.141 123H206.016V114.469H207.141V123ZM209.203 123V114.469H211.611C212.354 114.469 213.01 114.633 213.58 114.961C214.15 115.289 214.59 115.756 214.898 116.361C215.211 116.967 215.369 117.662 215.373 118.447V118.992C215.373 119.797 215.217 120.502 214.904 121.107C214.596 121.713 214.152 122.178 213.574 122.502C213 122.826 212.33 122.992 211.564 123H209.203ZM210.328 115.395V122.08H211.512C212.379 122.08 213.053 121.811 213.533 121.271C214.018 120.732 214.26 119.965 214.26 118.969V118.471C214.26 117.502 214.031 116.75 213.574 116.215C213.121 115.676 212.477 115.402 211.641 115.395H210.328ZM224.842 118.23H219.955V117.287H224.842V118.23ZM224.842 120.662H219.955V119.725H224.842V120.662ZM232.898 123H231.809V115.775L229.623 116.578V115.594L232.729 114.428H232.898V123ZM239.637 123H238.547V115.775L236.361 116.578V115.594L239.467 114.428H239.637V123ZM246.375 123H245.285V115.775L243.1 116.578V115.594L246.205 114.428H246.375V123ZM253.113 123H252.023V115.775L249.838 116.578V115.594L252.943 114.428H253.113V123ZM259.852 123H258.762V115.775L256.576 116.578V115.594L259.682 114.428H259.852V123ZM266.59 123H265.5V115.775L263.314 116.578V115.594L266.42 114.428H266.59V123Z" fill="black"/>
<rect x="184.5" y="70.5" width="90.1465" height="28" fill="white" stroke="black"/>
<path d="M184.5 70.5H289.5V98.5H184.5V70.5Z" fill="#D6FFD6" stroke="black"/>
<path d="M199.277 77.0332L198.234 78.1172V81H197.109V72.4688H198.234V76.6875L202.025 72.4688H203.385L200.027 76.2363L203.648 81H202.301L199.277 77.0332ZM206.941 81.1172C206.082 81.1172 205.383 80.8359 204.844 80.2734C204.305 79.707 204.035 78.9512 204.035 78.0059V77.8066C204.035 77.1777 204.154 76.6172 204.393 76.125C204.635 75.6289 204.971 75.2422 205.4 74.9648C205.834 74.6836 206.303 74.543 206.807 74.543C207.631 74.543 208.271 74.8145 208.729 75.3574C209.186 75.9004 209.414 76.6777 209.414 77.6895V78.1406H205.119C205.135 78.7656 205.316 79.2715 205.664 79.6582C206.016 80.041 206.461 80.2324 207 80.2324C207.383 80.2324 207.707 80.1543 207.973 79.998C208.238 79.8418 208.471 79.6348 208.67 79.377L209.332 79.8926C208.801 80.709 208.004 81.1172 206.941 81.1172ZM206.807 75.4336C206.369 75.4336 206.002 75.5938 205.705 75.9141C205.408 76.2305 205.225 76.6758 205.154 77.25H208.33V77.168C208.299 76.6172 208.15 76.1914 207.885 75.8906C207.619 75.5859 207.26 75.4336 206.807 75.4336ZM212.666 79.4121L214.143 74.6602H215.303L212.754 81.9785C212.359 83.0332 211.732 83.5605 210.873 83.5605L210.668 83.543L210.264 83.4668V82.5879L210.557 82.6113C210.924 82.6113 211.209 82.5371 211.412 82.3887C211.619 82.2402 211.789 81.9688 211.922 81.5742L212.162 80.9297L209.9 74.6602H211.084L212.666 79.4121ZM221.232 76.2305H216.346V75.2871H221.232V76.2305ZM221.232 78.6621H216.346V77.7246H221.232V78.6621ZM225.58 77.7773C225.58 76.7891 225.809 76.0039 226.266 75.4219C226.723 74.8359 227.328 74.543 228.082 74.543C228.855 74.543 229.459 74.8164 229.893 75.3633L229.945 74.6602H230.936V80.8477C230.936 81.668 230.691 82.3145 230.203 82.7871C229.719 83.2598 229.066 83.4961 228.246 83.4961C227.789 83.4961 227.342 83.3984 226.904 83.2031C226.467 83.0078 226.133 82.7402 225.902 82.4004L226.465 81.75C226.93 82.3242 227.498 82.6113 228.17 82.6113C228.697 82.6113 229.107 82.4629 229.4 82.166C229.697 81.8691 229.846 81.4512 229.846 80.9121V80.3672C229.412 80.8672 228.82 81.1172 228.07 81.1172C227.328 81.1172 226.727 80.8184 226.266 80.2207C225.809 79.623 225.58 78.8086 225.58 77.7773ZM226.67 77.9004C226.67 78.6152 226.816 79.1777 227.109 79.5879C227.402 79.9941 227.812 80.1973 228.34 80.1973C229.023 80.1973 229.525 79.8867 229.846 79.2656V76.3711C229.514 75.7656 229.016 75.4629 228.352 75.4629C227.824 75.4629 227.412 75.668 227.115 76.0781C226.818 76.4883 226.67 77.0957 226.67 77.9004ZM233.754 81H232.67V72H233.754V81ZM235.207 77.7715C235.207 77.1504 235.328 76.5918 235.57 76.0957C235.816 75.5996 236.156 75.2168 236.59 74.9473C237.027 74.6777 237.525 74.543 238.084 74.543C238.947 74.543 239.645 74.8418 240.176 75.4395C240.711 76.0371 240.979 76.832 240.979 77.8242V77.9004C240.979 78.5176 240.859 79.0723 240.621 79.5645C240.387 80.0527 240.049 80.4336 239.607 80.707C239.17 80.9805 238.666 81.1172 238.096 81.1172C237.236 81.1172 236.539 80.8184 236.004 80.2207C235.473 79.623 235.207 78.832 235.207 77.8477V77.7715ZM236.297 77.9004C236.297 78.6035 236.459 79.168 236.783 79.5938C237.111 80.0195 237.549 80.2324 238.096 80.2324C238.646 80.2324 239.084 80.0176 239.408 79.5879C239.732 79.1543 239.895 78.5488 239.895 77.7715C239.895 77.0762 239.729 76.5137 239.396 76.084C239.068 75.6504 238.631 75.4336 238.084 75.4336C237.549 75.4336 237.117 75.6465 236.789 76.0723C236.461 76.498 236.297 77.1074 236.297 77.9004ZM247.705 77.9004C247.705 78.8691 247.482 79.6484 247.037 80.2383C246.592 80.8242 245.994 81.1172 245.244 81.1172C244.443 81.1172 243.824 80.834 243.387 80.2676L243.334 81H242.338V72H243.422V75.3574C243.859 74.8145 244.463 74.543 245.232 74.543C246.002 74.543 246.605 74.834 247.043 75.416C247.484 75.998 247.705 76.7949 247.705 77.8066V77.9004ZM246.621 77.7773C246.621 77.0391 246.479 76.4688 246.193 76.0664C245.908 75.6641 245.498 75.4629 244.963 75.4629C244.248 75.4629 243.734 75.7949 243.422 76.459V79.2012C243.754 79.8652 244.271 80.1973 244.975 80.1973C245.494 80.1973 245.898 79.9961 246.188 79.5938C246.477 79.1914 246.621 78.5859 246.621 77.7773ZM251.707 81.1172C250.848 81.1172 250.148 80.8359 249.609 80.2734C249.07 79.707 248.801 78.9512 248.801 78.0059V77.8066C248.801 77.1777 248.92 76.6172 249.158 76.125C249.4 75.6289 249.736 75.2422 250.166 74.9648C250.6 74.6836 251.068 74.543 251.572 74.543C252.396 74.543 253.037 74.8145 253.494 75.3574C253.951 75.9004 254.18 76.6777 254.18 77.6895V78.1406H249.885C249.9 78.7656 250.082 79.2715 250.43 79.6582C250.781 80.041 251.227 80.2324 251.766 80.2324C252.148 80.2324 252.473 80.1543 252.738 79.998C253.004 79.8418 253.236 79.6348 253.436 79.377L254.098 79.8926C253.566 80.709 252.77 81.1172 251.707 81.1172ZM251.572 75.4336C251.135 75.4336 250.768 75.5938 250.471 75.9141C250.174 76.2305 249.99 76.6758 249.92 77.25H253.096V77.168C253.064 76.6172 252.916 76.1914 252.65 75.8906C252.385 75.5859 252.025 75.4336 251.572 75.4336ZM255.463 80.4316C255.463 80.2441 255.518 80.0879 255.627 79.9629C255.74 79.8379 255.908 79.7754 256.131 79.7754C256.354 79.7754 256.521 79.8379 256.635 79.9629C256.752 80.0879 256.811 80.2441 256.811 80.4316C256.811 80.6113 256.752 80.7617 256.635 80.8828C256.521 81.0039 256.354 81.0645 256.131 81.0645C255.908 81.0645 255.74 81.0039 255.627 80.8828C255.518 80.7617 255.463 80.6113 255.463 80.4316ZM263.959 77.9004C263.959 78.8652 263.738 79.6426 263.297 80.2324C262.855 80.8223 262.258 81.1172 261.504 81.1172C260.734 81.1172 260.129 80.873 259.688 80.3848V83.4375H258.604V74.6602H259.594L259.646 75.3633C260.088 74.8164 260.701 74.543 261.486 74.543C262.248 74.543 262.85 74.8301 263.291 75.4043C263.736 75.9785 263.959 76.7773 263.959 77.8008V77.9004ZM262.875 77.7773C262.875 77.0625 262.723 76.498 262.418 76.084C262.113 75.6699 261.695 75.4629 261.164 75.4629C260.508 75.4629 260.016 75.7539 259.688 76.3359V79.3652C260.012 79.9434 260.508 80.2324 261.176 80.2324C261.695 80.2324 262.107 80.0273 262.412 79.6172C262.721 79.2031 262.875 78.5898 262.875 77.7773ZM266.367 74.6602L266.402 75.457C266.887 74.8477 267.52 74.543 268.301 74.543C269.641 74.543 270.316 75.2988 270.328 76.8105V81H269.244V76.8047C269.24 76.3477 269.135 76.0098 268.928 75.791C268.725 75.5723 268.406 75.4629 267.973 75.4629C267.621 75.4629 267.312 75.5566 267.047 75.7441C266.781 75.9316 266.574 76.1777 266.426 76.4824V81H265.342V74.6602H266.367ZM271.705 77.7773C271.705 76.7891 271.934 76.0039 272.391 75.4219C272.848 74.8359 273.453 74.543 274.207 74.543C274.98 74.543 275.584 74.8164 276.018 75.3633L276.07 74.6602H277.061V80.8477C277.061 81.668 276.816 82.3145 276.328 82.7871C275.844 83.2598 275.191 83.4961 274.371 83.4961C273.914 83.4961 273.467 83.3984 273.029 83.2031C272.592 83.0078 272.258 82.7402 272.027 82.4004L272.59 81.75C273.055 82.3242 273.623 82.6113 274.295 82.6113C274.822 82.6113 275.232 82.4629 275.525 82.166C275.822 81.8691 275.971 81.4512 275.971 80.9121V80.3672C275.537 80.8672 274.945 81.1172 274.195 81.1172C273.453 81.1172 272.852 80.8184 272.391 80.2207C271.934 79.623 271.705 78.8086 271.705 77.7773ZM272.795 77.9004C272.795 78.6152 272.941 79.1777 273.234 79.5879C273.527 79.9941 273.938 80.1973 274.465 80.1973C275.148 80.1973 275.65 79.8867 275.971 79.2656V76.3711C275.639 75.7656 275.141 75.4629 274.477 75.4629C273.949 75.4629 273.537 75.668 273.24 76.0781C272.943 76.4883 272.795 77.0957 272.795 77.9004ZM207.141 95H206.016V86.4688H207.141V95ZM209.203 95V86.4688H211.611C212.354 86.4688 213.01 86.6328 213.58 86.9609C214.15 87.2891 214.59 87.7559 214.898 88.3613C215.211 88.9668 215.369 89.6621 215.373 90.4473V90.9922C215.373 91.7969 215.217 92.502 214.904 93.1074C214.596 93.7129 214.152 94.1777 213.574 94.502C213 94.8262 212.33 94.9922 211.564 95H209.203ZM210.328 87.3945V94.0801H211.512C212.379 94.0801 213.053 93.8105 213.533 93.2715C214.018 92.7324 214.26 91.9648 214.26 90.9688V90.4707C214.26 89.502 214.031 88.75 213.574 88.2148C213.121 87.6758 212.477 87.4023 211.641 87.3945H210.328ZM224.842 90.2305H219.955V89.2871H224.842V90.2305ZM224.842 92.6621H219.955V91.7246H224.842V92.6621ZM232.898 95H231.809V87.7754L229.623 88.5781V87.5938L232.729 86.4277H232.898V95ZM241.664 95H236.074V94.2207L239.027 90.9395C239.465 90.4434 239.766 90.041 239.93 89.7324C240.098 89.4199 240.182 89.0977 240.182 88.7656C240.182 88.3203 240.047 87.9551 239.777 87.6699C239.508 87.3848 239.148 87.2422 238.699 87.2422C238.16 87.2422 237.74 87.3965 237.439 87.7051C237.143 88.0098 236.994 88.4355 236.994 88.9824H235.91C235.91 88.1973 236.162 87.5625 236.666 87.0781C237.174 86.5938 237.852 86.3516 238.699 86.3516C239.492 86.3516 240.119 86.5605 240.58 86.9785C241.041 87.3926 241.271 87.9453 241.271 88.6367C241.271 89.4766 240.736 90.4766 239.666 91.6367L237.381 94.1152H241.664V95ZM246.375 95H245.285V87.7754L243.1 88.5781V87.5938L246.205 86.4277H246.375V95ZM255.141 95H249.551V94.2207L252.504 90.9395C252.941 90.4434 253.242 90.041 253.406 89.7324C253.574 89.4199 253.658 89.0977 253.658 88.7656C253.658 88.3203 253.523 87.9551 253.254 87.6699C252.984 87.3848 252.625 87.2422 252.176 87.2422C251.637 87.2422 251.217 87.3965 250.916 87.7051C250.619 88.0098 250.471 88.4355 250.471 88.9824H249.387C249.387 88.1973 249.639 87.5625 250.143 87.0781C250.65 86.5938 251.328 86.3516 252.176 86.3516C252.969 86.3516 253.596 86.5605 254.057 86.9785C254.518 87.3926 254.748 87.9453 254.748 88.6367C254.748 89.4766 254.213 90.4766 253.143 91.6367L250.857 94.1152H255.141V95ZM259.852 95H258.762V87.7754L256.576 88.5781V87.5938L259.682 86.4277H259.852V95ZM268.617 95H263.027V94.2207L265.98 90.9395C266.418 90.4434 266.719 90.041 266.883 89.7324C267.051 89.4199 267.135 89.0977 267.135 88.7656C267.135 88.3203 267 87.9551 266.73 87.6699C266.461 87.3848 266.102 87.2422 265.652 87.2422C265.113 87.2422 264.693 87.3965 264.393 87.7051C264.096 88.0098 263.947 88.4355 263.947 88.9824H262.863C262.863 88.1973 263.115 87.5625 263.619 87.0781C264.127 86.5938 264.805 86.3516 265.652 86.3516C266.445 86.3516 267.072 86.5605 267.533 86.9785C267.994 87.3926 268.225 87.9453 268.225 88.6367C268.225 89.4766 267.689 90.4766 266.619 91.6367L264.334 94.1152H268.617V95Z" fill="black"/>
<rect x="184.5" y="34.5" width="90.1465" height="36" fill="white" stroke="black"/>
<path d="M184.5 34.5H289.5V70.5H184.5V34.5Z" fill="#FBBDBD" stroke="black"/>
<path d="M199.277 42.0332L198.234 43.1172V46H197.109V37.4688H198.234V41.6875L202.025 37.4688H203.385L200.027 41.2363L203.648 46H202.301L199.277 42.0332ZM206.941 46.1172C206.082 46.1172 205.383 45.8359 204.844 45.2734C204.305 44.707 204.035 43.9512 204.035 43.0059V42.8066C204.035 42.1777 204.154 41.6172 204.393 41.125C204.635 40.6289 204.971 40.2422 205.4 39.9648C205.834 39.6836 206.303 39.543 206.807 39.543C207.631 39.543 208.271 39.8145 208.729 40.3574C209.186 40.9004 209.414 41.6777 209.414 42.6895V43.1406H205.119C205.135 43.7656 205.316 44.2715 205.664 44.6582C206.016 45.041 206.461 45.2324 207 45.2324C207.383 45.2324 207.707 45.1543 207.973 44.998C208.238 44.8418 208.471 44.6348 208.67 44.377L209.332 44.8926C208.801 45.709 208.004 46.1172 206.941 46.1172ZM206.807 40.4336C206.369 40.4336 206.002 40.5938 205.705 40.9141C205.408 41.2305 205.225 41.6758 205.154 42.25H208.33V42.168C208.299 41.6172 208.15 41.1914 207.885 40.8906C207.619 40.5859 207.26 40.4336 206.807 40.4336ZM212.666 44.4121L214.143 39.6602H215.303L212.754 46.9785C212.359 48.0332 211.732 48.5605 210.873 48.5605L210.668 48.543L210.264 48.4668V47.5879L210.557 47.6113C210.924 47.6113 211.209 47.5371 211.412 47.3887C211.619 47.2402 211.789 46.9688 211.922 46.5742L212.162 45.9297L209.9 39.6602H211.084L212.666 44.4121ZM221.232 41.2305H216.346V40.2871H221.232V41.2305ZM221.232 43.6621H216.346V42.7246H221.232V43.6621ZM225.58 42.7773C225.58 41.7891 225.809 41.0039 226.266 40.4219C226.723 39.8359 227.328 39.543 228.082 39.543C228.855 39.543 229.459 39.8164 229.893 40.3633L229.945 39.6602H230.936V45.8477C230.936 46.668 230.691 47.3145 230.203 47.7871C229.719 48.2598 229.066 48.4961 228.246 48.4961C227.789 48.4961 227.342 48.3984 226.904 48.2031C226.467 48.0078 226.133 47.7402 225.902 47.4004L226.465 46.75C226.93 47.3242 227.498 47.6113 228.17 47.6113C228.697 47.6113 229.107 47.4629 229.4 47.166C229.697 46.8691 229.846 46.4512 229.846 45.9121V45.3672C229.412 45.8672 228.82 46.1172 228.07 46.1172C227.328 46.1172 226.727 45.8184 226.266 45.2207C225.809 44.623 225.58 43.8086 225.58 42.7773ZM226.67 42.9004C226.67 43.6152 226.816 44.1777 227.109 44.5879C227.402 44.9941 227.812 45.1973 228.34 45.1973C229.023 45.1973 229.525 44.8867 229.846 44.2656V41.3711C229.514 40.7656 229.016 40.4629 228.352 40.4629C227.824 40.4629 227.412 40.668 227.115 41.0781C226.818 41.4883 226.67 42.0957 226.67 42.9004ZM233.754 46H232.67V37H233.754V46ZM235.207 42.7715C235.207 42.1504 235.328 41.5918 235.57 41.0957C235.816 40.5996 236.156 40.2168 236.59 39.9473C237.027 39.6777 237.525 39.543 238.084 39.543C238.947 39.543 239.645 39.8418 240.176 40.4395C240.711 41.0371 240.979 41.832 240.979 42.8242V42.9004C240.979 43.5176 240.859 44.0723 240.621 44.5645C240.387 45.0527 240.049 45.4336 239.607 45.707C239.17 45.9805 238.666 46.1172 238.096 46.1172C237.236 46.1172 236.539 45.8184 236.004 45.2207C235.473 44.623 235.207 43.832 235.207 42.8477V42.7715ZM236.297 42.9004C236.297 43.6035 236.459 44.168 236.783 44.5938C237.111 45.0195 237.549 45.2324 238.096 45.2324C238.646 45.2324 239.084 45.0176 239.408 44.5879C239.732 44.1543 239.895 43.5488 239.895 42.7715C239.895 42.0762 239.729 41.5137 239.396 41.084C239.068 40.6504 238.631 40.4336 238.084 40.4336C237.549 40.4336 237.117 40.6465 236.789 41.0723C236.461 41.498 236.297 42.1074 236.297 42.9004ZM247.705 42.9004C247.705 43.8691 247.482 44.6484 247.037 45.2383C246.592 45.8242 245.994 46.1172 245.244 46.1172C244.443 46.1172 243.824 45.834 243.387 45.2676L243.334 46H242.338V37H243.422V40.3574C243.859 39.8145 244.463 39.543 245.232 39.543C246.002 39.543 246.605 39.834 247.043 40.416C247.484 40.998 247.705 41.7949 247.705 42.8066V42.9004ZM246.621 42.7773C246.621 42.0391 246.479 41.4688 246.193 41.0664C245.908 40.6641 245.498 40.4629 244.963 40.4629C244.248 40.4629 243.734 40.7949 243.422 41.459V44.2012C243.754 44.8652 244.271 45.1973 244.975 45.1973C245.494 45.1973 245.898 44.9961 246.188 44.5938C246.477 44.1914 246.621 43.5859 246.621 42.7773ZM251.707 46.1172C250.848 46.1172 250.148 45.8359 249.609 45.2734C249.07 44.707 248.801 43.9512 248.801 43.0059V42.8066C248.801 42.1777 248.92 41.6172 249.158 41.125C249.4 40.6289 249.736 40.2422 250.166 39.9648C250.6 39.6836 251.068 39.543 251.572 39.543C252.396 39.543 253.037 39.8145 253.494 40.3574C253.951 40.9004 254.18 41.6777 254.18 42.6895V43.1406H249.885C249.9 43.7656 250.082 44.2715 250.43 44.6582C250.781 45.041 251.227 45.2324 251.766 45.2324C252.148 45.2324 252.473 45.1543 252.738 44.998C253.004 44.8418 253.236 44.6348 253.436 44.377L254.098 44.8926C253.566 45.709 252.77 46.1172 251.707 46.1172ZM251.572 40.4336C251.135 40.4336 250.768 40.5938 250.471 40.9141C250.174 41.2305 249.99 41.6758 249.92 42.25H253.096V42.168C253.064 41.6172 252.916 41.1914 252.65 40.8906C252.385 40.5859 252.025 40.4336 251.572 40.4336ZM255.463 45.4316C255.463 45.2441 255.518 45.0879 255.627 44.9629C255.74 44.8379 255.908 44.7754 256.131 44.7754C256.354 44.7754 256.521 44.8379 256.635 44.9629C256.752 45.0879 256.811 45.2441 256.811 45.4316C256.811 45.6113 256.752 45.7617 256.635 45.8828C256.521 46.0039 256.354 46.0645 256.131 46.0645C255.908 46.0645 255.74 46.0039 255.627 45.8828C255.518 45.7617 255.463 45.6113 255.463 45.4316ZM263.959 42.9004C263.959 43.8652 263.738 44.6426 263.297 45.2324C262.855 45.8223 262.258 46.1172 261.504 46.1172C260.734 46.1172 260.129 45.873 259.688 45.3848V48.4375H258.604V39.6602H259.594L259.646 40.3633C260.088 39.8164 260.701 39.543 261.486 39.543C262.248 39.543 262.85 39.8301 263.291 40.4043C263.736 40.9785 263.959 41.7773 263.959 42.8008V42.9004ZM262.875 42.7773C262.875 42.0625 262.723 41.498 262.418 41.084C262.113 40.6699 261.695 40.4629 261.164 40.4629C260.508 40.4629 260.016 40.7539 259.688 41.3359V44.3652C260.012 44.9434 260.508 45.2324 261.176 45.2324C261.695 45.2324 262.107 45.0273 262.412 44.6172C262.721 44.2031 262.875 43.5898 262.875 42.7773ZM266.367 39.6602L266.402 40.457C266.887 39.8477 267.52 39.543 268.301 39.543C269.641 39.543 270.316 40.2988 270.328 41.8105V46H269.244V41.8047C269.24 41.3477 269.135 41.0098 268.928 40.791C268.725 40.5723 268.406 40.4629 267.973 40.4629C267.621 40.4629 267.312 40.5566 267.047 40.7441C266.781 40.9316 266.574 41.1777 266.426 41.4824V46H265.342V39.6602H266.367ZM271.705 42.7773C271.705 41.7891 271.934 41.0039 272.391 40.4219C272.848 39.8359 273.453 39.543 274.207 39.543C274.98 39.543 275.584 39.8164 276.018 40.3633L276.07 39.6602H277.061V45.8477C277.061 46.668 276.816 47.3145 276.328 47.7871C275.844 48.2598 275.191 48.4961 274.371 48.4961C273.914 48.4961 273.467 48.3984 273.029 48.2031C272.592 48.0078 272.258 47.7402 272.027 47.4004L272.59 46.75C273.055 47.3242 273.623 47.6113 274.295 47.6113C274.822 47.6113 275.232 47.4629 275.525 47.166C275.822 46.8691 275.971 46.4512 275.971 45.9121V45.3672C275.537 45.8672 274.945 46.1172 274.195 46.1172C273.453 46.1172 272.852 45.8184 272.391 45.2207C271.934 44.623 271.705 43.8086 271.705 42.7773ZM272.795 42.9004C272.795 43.6152 272.941 44.1777 273.234 44.5879C273.527 44.9941 273.938 45.1973 274.465 45.1973C275.148 45.1973 275.65 44.8867 275.971 44.2656V41.3711C275.639 40.7656 275.141 40.4629 274.477 40.4629C273.949 40.4629 273.537 40.668 273.24 41.0781C272.943 41.4883 272.795 42.0957 272.795 42.9004ZM207.141 60H206.016V51.4688H207.141V60ZM209.203 60V51.4688H211.611C212.354 51.4688 213.01 51.6328 213.58 51.9609C214.15 52.2891 214.59 52.7559 214.898 53.3613C215.211 53.9668 215.369 54.6621 215.373 55.4473V55.9922C215.373 56.7969 215.217 57.502 214.904 58.1074C214.596 58.7129 214.152 59.1777 213.574 59.502C213 59.8262 212.33 59.9922 211.564 60H209.203ZM210.328 52.3945V59.0801H211.512C212.379 59.0801 213.053 58.8105 213.533 58.2715C214.018 57.7324 214.26 56.9648 214.26 55.9688V55.4707C214.26 54.502 214.031 53.75 213.574 53.2148C213.121 52.6758 212.477 52.4023 211.641 52.3945H210.328ZM224.842 55.2305H219.955V54.2871H224.842V55.2305ZM224.842 57.6621H219.955V56.7246H224.842V57.6621ZM233.912 57.1348H235.096V58.0195H233.912V60H232.822V58.0195H228.938V57.3809L232.758 51.4688H233.912V57.1348ZM230.168 57.1348H232.822V52.9512L232.693 53.1855L230.168 57.1348ZM236.572 55.7227L237.006 51.4688H241.377V52.4707H237.926L237.668 54.7969C238.086 54.5508 238.561 54.4277 239.092 54.4277C239.869 54.4277 240.486 54.6855 240.943 55.2012C241.4 55.7129 241.629 56.4062 241.629 57.2812C241.629 58.1602 241.391 58.8535 240.914 59.3613C240.441 59.8652 239.779 60.1172 238.928 60.1172C238.174 60.1172 237.559 59.9082 237.082 59.4902C236.605 59.0723 236.334 58.4941 236.268 57.7559H237.293C237.359 58.2441 237.533 58.6133 237.814 58.8633C238.096 59.1094 238.467 59.2324 238.928 59.2324C239.432 59.2324 239.826 59.0605 240.111 58.7168C240.4 58.373 240.545 57.8984 240.545 57.293C240.545 56.7227 240.389 56.2656 240.076 55.9219C239.768 55.5742 239.355 55.4004 238.84 55.4004C238.367 55.4004 237.996 55.5039 237.727 55.7109L237.439 55.9453L236.572 55.7227ZM247.066 51.4629V52.3828H246.867C246.023 52.3984 245.352 52.6484 244.852 53.1328C244.352 53.6172 244.062 54.2988 243.984 55.1777C244.434 54.6621 245.047 54.4043 245.824 54.4043C246.566 54.4043 247.158 54.666 247.6 55.1895C248.045 55.7129 248.268 56.3887 248.268 57.2168C248.268 58.0957 248.027 58.7988 247.547 59.3262C247.07 59.8535 246.43 60.1172 245.625 60.1172C244.809 60.1172 244.146 59.8047 243.639 59.1797C243.131 58.5508 242.877 57.7422 242.877 56.7539V56.3379C242.877 54.7676 243.211 53.5684 243.879 52.7402C244.551 51.9082 245.549 51.4824 246.873 51.4629H247.066ZM245.643 55.3066C245.271 55.3066 244.93 55.418 244.617 55.6406C244.305 55.8633 244.088 56.1426 243.967 56.4785V56.877C243.967 57.5801 244.125 58.1465 244.441 58.5762C244.758 59.0059 245.152 59.2207 245.625 59.2207C246.113 59.2207 246.496 59.041 246.773 58.6816C247.055 58.3223 247.195 57.8516 247.195 57.2695C247.195 56.6836 247.053 56.2109 246.768 55.8516C246.486 55.4883 246.111 55.3066 245.643 55.3066ZM254.725 53.6953C254.725 54.1211 254.611 54.5 254.385 54.832C254.162 55.1641 253.859 55.4238 253.477 55.6113C253.922 55.8027 254.273 56.082 254.531 56.4492C254.793 56.8164 254.924 57.2324 254.924 57.6973C254.924 58.4355 254.674 59.0234 254.174 59.4609C253.678 59.8984 253.023 60.1172 252.211 60.1172C251.391 60.1172 250.732 59.8984 250.236 59.4609C249.744 59.0195 249.498 58.4316 249.498 57.6973C249.498 57.2363 249.623 56.8203 249.873 56.4492C250.127 56.0781 250.477 55.7969 250.922 55.6055C250.543 55.418 250.244 55.1582 250.025 54.8262C249.807 54.4941 249.697 54.1172 249.697 53.6953C249.697 52.9766 249.928 52.4062 250.389 51.9844C250.85 51.5625 251.457 51.3516 252.211 51.3516C252.961 51.3516 253.566 51.5625 254.027 51.9844C254.492 52.4062 254.725 52.9766 254.725 53.6953ZM253.84 57.6738C253.84 57.1973 253.688 56.8086 253.383 56.5078C253.082 56.207 252.688 56.0566 252.199 56.0566C251.711 56.0566 251.318 56.2051 251.021 56.502C250.729 56.7988 250.582 57.1895 250.582 57.6738C250.582 58.1582 250.725 58.5391 251.01 58.8164C251.299 59.0938 251.699 59.2324 252.211 59.2324C252.719 59.2324 253.117 59.0938 253.406 58.8164C253.695 58.5352 253.84 58.1543 253.84 57.6738ZM252.211 52.2422C251.785 52.2422 251.439 52.375 251.174 52.6406C250.912 52.9023 250.781 53.2598 250.781 53.7129C250.781 54.1465 250.91 54.498 251.168 54.7676C251.43 55.0332 251.777 55.166 252.211 55.166C252.645 55.166 252.99 55.0332 253.248 54.7676C253.51 54.498 253.641 54.1465 253.641 53.7129C253.641 53.2793 253.506 52.9258 253.236 52.6523C252.967 52.3789 252.625 52.2422 252.211 52.2422ZM260.443 56.25C260.217 56.5195 259.945 56.7363 259.629 56.9004C259.316 57.0645 258.973 57.1465 258.598 57.1465C258.105 57.1465 257.676 57.0254 257.309 56.7832C256.945 56.541 256.664 56.2012 256.465 55.7637C256.266 55.3223 256.166 54.8359 256.166 54.3047C256.166 53.7344 256.273 53.2207 256.488 52.7637C256.707 52.3066 257.016 51.957 257.414 51.7148C257.812 51.4727 258.277 51.3516 258.809 51.3516C259.652 51.3516 260.316 51.668 260.801 52.3008C261.289 52.9297 261.533 53.7891 261.533 54.8789V55.1953C261.533 56.8555 261.205 58.0684 260.549 58.834C259.893 59.5957 258.902 59.9863 257.578 60.0059H257.367V59.0918H257.596C258.49 59.0762 259.178 58.8438 259.658 58.3945C260.139 57.9414 260.4 57.2266 260.443 56.25ZM258.773 56.25C259.137 56.25 259.471 56.1387 259.775 55.916C260.084 55.6934 260.309 55.418 260.449 55.0898V54.6562C260.449 53.9453 260.295 53.3672 259.986 52.9219C259.678 52.4766 259.287 52.2539 258.814 52.2539C258.338 52.2539 257.955 52.4375 257.666 52.8047C257.377 53.168 257.232 53.6484 257.232 54.2461C257.232 54.8281 257.371 55.3086 257.648 55.6875C257.93 56.0625 258.305 56.25 258.773 56.25ZM267.281 51.4629V52.3828H267.082C266.238 52.3984 265.566 52.6484 265.066 53.1328C264.566 53.6172 264.277 54.2988 264.199 55.1777C264.648 54.6621 265.262 54.4043 266.039 54.4043C266.781 54.4043 267.373 54.666 267.814 55.1895C268.26 55.7129 268.482 56.3887 268.482 57.2168C268.482 58.0957 268.242 58.7988 267.762 59.3262C267.285 59.8535 266.645 60.1172 265.84 60.1172C265.023 60.1172 264.361 59.8047 263.854 59.1797C263.346 58.5508 263.092 57.7422 263.092 56.7539V56.3379C263.092 54.7676 263.426 53.5684 264.094 52.7402C264.766 51.9082 265.764 51.4824 267.088 51.4629H267.281ZM265.857 55.3066C265.486 55.3066 265.145 55.418 264.832 55.6406C264.52 55.8633 264.303 56.1426 264.182 56.4785V56.877C264.182 57.5801 264.34 58.1465 264.656 58.5762C264.973 59.0059 265.367 59.2207 265.84 59.2207C266.328 59.2207 266.711 59.041 266.988 58.6816C267.27 58.3223 267.41 57.8516 267.41 57.2695C267.41 56.6836 267.268 56.2109 266.982 55.8516C266.701 55.4883 266.326 55.3066 265.857 55.3066ZM212.895 69V63.3125H214.5C214.995 63.3125 215.432 63.4219 215.812 63.6406C216.193 63.8594 216.486 64.1706 216.691 64.5742C216.9 64.9779 217.005 65.4414 217.008 65.9648V66.3281C217.008 66.8646 216.904 67.3346 216.695 67.7383C216.49 68.1419 216.194 68.4518 215.809 68.668C215.426 68.8841 214.979 68.9948 214.469 69H212.895ZM213.645 63.9297V68.3867H214.434C215.012 68.3867 215.461 68.207 215.781 67.8477C216.104 67.4883 216.266 66.9766 216.266 66.3125V65.9805C216.266 65.3346 216.113 64.8333 215.809 64.4766C215.507 64.1172 215.077 63.9349 214.52 63.9297H213.645ZM219.785 69.0781C219.212 69.0781 218.746 68.8906 218.387 68.5156C218.027 68.138 217.848 67.6341 217.848 67.0039V66.8711C217.848 66.4518 217.927 66.0781 218.086 65.75C218.247 65.4193 218.471 65.1615 218.758 64.9766C219.047 64.7891 219.359 64.6953 219.695 64.6953C220.245 64.6953 220.672 64.8763 220.977 65.2383C221.281 65.6003 221.434 66.1185 221.434 66.793V67.0938H218.57C218.581 67.5104 218.702 67.8477 218.934 68.1055C219.168 68.3607 219.465 68.4883 219.824 68.4883C220.079 68.4883 220.296 68.4362 220.473 68.332C220.65 68.2279 220.805 68.0898 220.938 67.918L221.379 68.2617C221.025 68.806 220.493 69.0781 219.785 69.0781ZM219.695 65.2891C219.404 65.2891 219.159 65.3958 218.961 65.6094C218.763 65.8203 218.641 66.1172 218.594 66.5H220.711V66.4453C220.69 66.0781 220.591 65.7943 220.414 65.5938C220.237 65.3906 219.997 65.2891 219.695 65.2891ZM223.059 69H222.336V63H223.059V69ZM225.973 69.0781C225.4 69.0781 224.934 68.8906 224.574 68.5156C224.215 68.138 224.035 67.6341 224.035 67.0039V66.8711C224.035 66.4518 224.115 66.0781 224.273 65.75C224.435 65.4193 224.659 65.1615 224.945 64.9766C225.234 64.7891 225.547 64.6953 225.883 64.6953C226.432 64.6953 226.859 64.8763 227.164 65.2383C227.469 65.6003 227.621 66.1185 227.621 66.793V67.0938H224.758C224.768 67.5104 224.889 67.8477 225.121 68.1055C225.355 68.3607 225.652 68.4883 226.012 68.4883C226.267 68.4883 226.483 68.4362 226.66 68.332C226.837 68.2279 226.992 68.0898 227.125 67.918L227.566 68.2617C227.212 68.806 226.681 69.0781 225.973 69.0781ZM225.883 65.2891C225.591 65.2891 225.346 65.3958 225.148 65.6094C224.951 65.8203 224.828 66.1172 224.781 66.5H226.898V66.4453C226.878 66.0781 226.779 65.7943 226.602 65.5938C226.424 65.3906 226.185 65.2891 225.883 65.2891ZM229.441 63.75V64.7734H230.23V65.332H229.441V67.9531C229.441 68.1224 229.477 68.25 229.547 68.3359C229.617 68.4193 229.737 68.4609 229.906 68.4609C229.99 68.4609 230.104 68.4453 230.25 68.4141V69C230.06 69.0521 229.875 69.0781 229.695 69.0781C229.372 69.0781 229.129 68.9805 228.965 68.7852C228.801 68.5898 228.719 68.3125 228.719 67.9531V65.332H227.949V64.7734H228.719V63.75H229.441ZM232.832 69.0781C232.259 69.0781 231.793 68.8906 231.434 68.5156C231.074 68.138 230.895 67.6341 230.895 67.0039V66.8711C230.895 66.4518 230.974 66.0781 231.133 65.75C231.294 65.4193 231.518 65.1615 231.805 64.9766C232.094 64.7891 232.406 64.6953 232.742 64.6953C233.292 64.6953 233.719 64.8763 234.023 65.2383C234.328 65.6003 234.48 66.1185 234.48 66.793V67.0938H231.617C231.628 67.5104 231.749 67.8477 231.98 68.1055C232.215 68.3607 232.512 68.4883 232.871 68.4883C233.126 68.4883 233.342 68.4362 233.52 68.332C233.697 68.2279 233.852 68.0898 233.984 67.918L234.426 68.2617C234.072 68.806 233.54 69.0781 232.832 69.0781ZM232.742 65.2891C232.451 65.2891 232.206 65.3958 232.008 65.6094C231.81 65.8203 231.688 66.1172 231.641 66.5H233.758V66.4453C233.737 66.0781 233.638 65.7943 233.461 65.5938C233.284 65.3906 233.044 65.2891 232.742 65.2891ZM237.984 64.7734L238.004 65.2422C238.314 64.8776 238.732 64.6953 239.258 64.6953C239.849 64.6953 240.251 64.9219 240.465 65.375C240.605 65.1719 240.788 65.0078 241.012 64.8828C241.238 64.7578 241.505 64.6953 241.812 64.6953C242.74 64.6953 243.211 65.1862 243.227 66.168V69H242.504V66.2109C242.504 65.9089 242.435 65.6836 242.297 65.5352C242.159 65.3841 241.927 65.3086 241.602 65.3086C241.333 65.3086 241.111 65.3893 240.934 65.5508C240.757 65.7096 240.654 65.9245 240.625 66.1953V69H239.898V66.2305C239.898 65.6159 239.598 65.3086 238.996 65.3086C238.522 65.3086 238.198 65.5104 238.023 65.9141V69H237.301V64.7734H237.984ZM246.93 69C246.888 68.9167 246.854 68.7682 246.828 68.5547C246.492 68.9036 246.091 69.0781 245.625 69.0781C245.208 69.0781 244.866 68.9609 244.598 68.7266C244.332 68.4896 244.199 68.1901 244.199 67.8281C244.199 67.388 244.366 67.0469 244.699 66.8047C245.035 66.5599 245.507 66.4375 246.113 66.4375H246.816V66.1055C246.816 65.8529 246.741 65.6523 246.59 65.5039C246.439 65.3529 246.216 65.2773 245.922 65.2773C245.664 65.2773 245.448 65.3424 245.273 65.4727C245.099 65.6029 245.012 65.7604 245.012 65.9453H244.285C244.285 65.7344 244.359 65.5312 244.508 65.3359C244.659 65.138 244.862 64.9818 245.117 64.8672C245.375 64.7526 245.658 64.6953 245.965 64.6953C246.452 64.6953 246.833 64.8177 247.109 65.0625C247.385 65.3047 247.529 65.6393 247.539 66.0664V68.0117C247.539 68.3997 247.589 68.7083 247.688 68.9375V69H246.93ZM245.73 68.4492C245.957 68.4492 246.172 68.3906 246.375 68.2734C246.578 68.1562 246.725 68.0039 246.816 67.8164V66.9492H246.25C245.365 66.9492 244.922 67.2083 244.922 67.7266C244.922 67.9531 244.997 68.1302 245.148 68.2578C245.299 68.3854 245.493 68.4492 245.73 68.4492ZM250.715 65.4219C250.605 65.4036 250.487 65.3945 250.359 65.3945C249.885 65.3945 249.564 65.5964 249.395 66V69H248.672V64.7734H249.375L249.387 65.2617C249.624 64.8841 249.96 64.6953 250.395 64.6953C250.535 64.6953 250.642 64.7135 250.715 64.75V65.4219ZM252.562 67.043L252.109 67.5156V69H251.387V63H252.109V66.6289L252.496 66.1641L253.812 64.7734H254.691L253.047 66.5391L254.883 69H254.035L252.562 67.043ZM257.113 69.0781C256.54 69.0781 256.074 68.8906 255.715 68.5156C255.355 68.138 255.176 67.6341 255.176 67.0039V66.8711C255.176 66.4518 255.255 66.0781 255.414 65.75C255.576 65.4193 255.799 65.1615 256.086 64.9766C256.375 64.7891 256.688 64.6953 257.023 64.6953C257.573 64.6953 258 64.8763 258.305 65.2383C258.609 65.6003 258.762 66.1185 258.762 66.793V67.0938H255.898C255.909 67.5104 256.03 67.8477 256.262 68.1055C256.496 68.3607 256.793 68.4883 257.152 68.4883C257.408 68.4883 257.624 68.4362 257.801 68.332C257.978 68.2279 258.133 68.0898 258.266 67.918L258.707 68.2617C258.353 68.806 257.822 69.0781 257.113 69.0781ZM257.023 65.2891C256.732 65.2891 256.487 65.3958 256.289 65.6094C256.091 65.8203 255.969 66.1172 255.922 66.5H258.039V66.4453C258.018 66.0781 257.919 65.7943 257.742 65.5938C257.565 65.3906 257.326 65.2891 257.023 65.2891ZM261.645 65.4219C261.535 65.4036 261.417 65.3945 261.289 65.3945C260.815 65.3945 260.493 65.5964 260.324 66V69H259.602V64.7734H260.305L260.316 65.2617C260.553 64.8841 260.889 64.6953 261.324 64.6953C261.465 64.6953 261.572 64.7135 261.645 64.75V65.4219Z" fill="black"/>
<rect x="23.5" y="99.5" width="58" height="20" fill="#D6FFD6" stroke="black"/>
<path d="M25.5625 109.777C25.5625 108.789 25.791 108.004 26.248 107.422C26.7051 106.836 27.3105 106.543 28.0645 106.543C28.8379 106.543 29.4414 106.816 29.875 107.363L29.9277 106.66H30.918V112.848C30.918 113.668 30.6738 114.314 30.1855 114.787C29.7012 115.26 29.0488 115.496 28.2285 115.496C27.7715 115.496 27.3242 115.398 26.8867 115.203C26.4492 115.008 26.1152 114.74 25.8848 114.4L26.4473 113.75C26.9121 114.324 27.4805 114.611 28.1523 114.611C28.6797 114.611 29.0898 114.463 29.3828 114.166C29.6797 113.869 29.8281 113.451 29.8281 112.912V112.367C29.3945 112.867 28.8027 113.117 28.0527 113.117C27.3105 113.117 26.709 112.818 26.248 112.221C25.791 111.623 25.5625 110.809 25.5625 109.777ZM26.6523 109.9C26.6523 110.615 26.7988 111.178 27.0918 111.588C27.3848 111.994 27.7949 112.197 28.3223 112.197C29.0059 112.197 29.5078 111.887 29.8281 111.266V108.371C29.4961 107.766 28.998 107.463 28.334 107.463C27.8066 107.463 27.3945 107.668 27.0977 108.078C26.8008 108.488 26.6523 109.096 26.6523 109.9ZM33.7363 113H32.6523V104H33.7363V113ZM35.1895 109.771C35.1895 109.15 35.3105 108.592 35.5527 108.096C35.7988 107.6 36.1387 107.217 36.5723 106.947C37.0098 106.678 37.5078 106.543 38.0664 106.543C38.9297 106.543 39.627 106.842 40.1582 107.439C40.6934 108.037 40.9609 108.832 40.9609 109.824V109.9C40.9609 110.518 40.8418 111.072 40.6035 111.564C40.3691 112.053 40.0312 112.434 39.5898 112.707C39.1523 112.98 38.6484 113.117 38.0781 113.117C37.2188 113.117 36.5215 112.818 35.9863 112.221C35.4551 111.623 35.1895 110.832 35.1895 109.848V109.771ZM36.2793 109.9C36.2793 110.604 36.4414 111.168 36.7656 111.594C37.0938 112.02 37.5312 112.232 38.0781 112.232C38.6289 112.232 39.0664 112.018 39.3906 111.588C39.7148 111.154 39.877 110.549 39.877 109.771C39.877 109.076 39.7109 108.514 39.3789 108.084C39.0508 107.65 38.6133 107.434 38.0664 107.434C37.5312 107.434 37.0996 107.646 36.7715 108.072C36.4434 108.498 36.2793 109.107 36.2793 109.9ZM47.6875 109.9C47.6875 110.869 47.4648 111.648 47.0195 112.238C46.5742 112.824 45.9766 113.117 45.2266 113.117C44.4258 113.117 43.8066 112.834 43.3691 112.268L43.3164 113H42.3203V104H43.4043V107.357C43.8418 106.814 44.4453 106.543 45.2148 106.543C45.9844 106.543 46.5879 106.834 47.0254 107.416C47.4668 107.998 47.6875 108.795 47.6875 109.807V109.9ZM46.6035 109.777C46.6035 109.039 46.4609 108.469 46.1758 108.066C45.8906 107.664 45.4805 107.463 44.9453 107.463C44.2305 107.463 43.7168 107.795 43.4043 108.459V111.201C43.7363 111.865 44.2539 112.197 44.957 112.197C45.4766 112.197 45.8809 111.996 46.1699 111.594C46.459 111.191 46.6035 110.586 46.6035 109.777ZM51.6895 113.117C50.8301 113.117 50.1309 112.836 49.5918 112.273C49.0527 111.707 48.7832 110.951 48.7832 110.006V109.807C48.7832 109.178 48.9023 108.617 49.1406 108.125C49.3828 107.629 49.7188 107.242 50.1484 106.965C50.582 106.684 51.0508 106.543 51.5547 106.543C52.3789 106.543 53.0195 106.814 53.4766 107.357C53.9336 107.9 54.1621 108.678 54.1621 109.689V110.141H49.8672C49.8828 110.766 50.0645 111.271 50.4121 111.658C50.7637 112.041 51.209 112.232 51.748 112.232C52.1309 112.232 52.4551 112.154 52.7207 111.998C52.9863 111.842 53.2188 111.635 53.418 111.377L54.0801 111.893C53.5488 112.709 52.752 113.117 51.6895 113.117ZM51.5547 107.434C51.1172 107.434 50.75 107.594 50.4531 107.914C50.1562 108.23 49.9727 108.676 49.9023 109.25H53.0781V109.168C53.0469 108.617 52.8984 108.191 52.6328 107.891C52.3672 107.586 52.0078 107.434 51.5547 107.434ZM55.4453 112.432C55.4453 112.244 55.5 112.088 55.6094 111.963C55.7227 111.838 55.8906 111.775 56.1133 111.775C56.3359 111.775 56.5039 111.838 56.6172 111.963C56.7344 112.088 56.793 112.244 56.793 112.432C56.793 112.611 56.7344 112.762 56.6172 112.883C56.5039 113.004 56.3359 113.064 56.1133 113.064C55.8906 113.064 55.7227 113.004 55.6094 112.883C55.5 112.762 55.4453 112.611 55.4453 112.432ZM63.9414 109.9C63.9414 110.865 63.7207 111.643 63.2793 112.232C62.8379 112.822 62.2402 113.117 61.4863 113.117C60.7168 113.117 60.1113 112.873 59.6699 112.385V115.438H58.5859V106.66H59.5762L59.6289 107.363C60.0703 106.816 60.6836 106.543 61.4688 106.543C62.2305 106.543 62.832 106.83 63.2734 107.404C63.7188 107.979 63.9414 108.777 63.9414 109.801V109.9ZM62.8574 109.777C62.8574 109.062 62.7051 108.498 62.4004 108.084C62.0957 107.67 61.6777 107.463 61.1465 107.463C60.4902 107.463 59.998 107.754 59.6699 108.336V111.365C59.9941 111.943 60.4902 112.232 61.1582 112.232C61.6777 112.232 62.0898 112.027 62.3945 111.617C62.7031 111.203 62.8574 110.59 62.8574 109.777ZM66.3496 106.66L66.3848 107.457C66.8691 106.848 67.502 106.543 68.2832 106.543C69.623 106.543 70.2988 107.299 70.3105 108.811V113H69.2266V108.805C69.2227 108.348 69.1172 108.01 68.9102 107.791C68.707 107.572 68.3887 107.463 67.9551 107.463C67.6035 107.463 67.2949 107.557 67.0293 107.744C66.7637 107.932 66.5566 108.178 66.4082 108.482V113H65.3242V106.66H66.3496ZM71.6875 109.777C71.6875 108.789 71.916 108.004 72.373 107.422C72.8301 106.836 73.4355 106.543 74.1895 106.543C74.9629 106.543 75.5664 106.816 76 107.363L76.0527 106.66H77.043V112.848C77.043 113.668 76.7988 114.314 76.3105 114.787C75.8262 115.26 75.1738 115.496 74.3535 115.496C73.8965 115.496 73.4492 115.398 73.0117 115.203C72.5742 115.008 72.2402 114.74 72.0098 114.4L72.5723 113.75C73.0371 114.324 73.6055 114.611 74.2773 114.611C74.8047 114.611 75.2148 114.463 75.5078 114.166C75.8047 113.869 75.9531 113.451 75.9531 112.912V112.367C75.5195 112.867 74.9277 113.117 74.1777 113.117C73.4355 113.117 72.834 112.818 72.373 112.221C71.916 111.623 71.6875 110.809 71.6875 109.777ZM72.7773 109.9C72.7773 110.615 72.9238 111.178 73.2168 111.588C73.5098 111.994 73.9199 112.197 74.4473 112.197C75.1309 112.197 75.6328 111.887 75.9531 111.266V108.371C75.6211 107.766 75.123 107.463 74.459 107.463C73.9316 107.463 73.5195 107.668 73.2227 108.078C72.9258 108.488 72.7773 109.096 72.7773 109.9Z" fill="black"/>
<path d="M76.1348 159.762C76.1348 159.43 76.0176 159.176 75.7832 159C75.5488 158.82 75.127 158.633 74.5176 158.438C73.9082 158.238 73.4258 158.043 73.0703 157.852C72.1016 157.328 71.6172 156.623 71.6172 155.736C71.6172 155.275 71.7461 154.865 72.0039 154.506C72.2656 154.143 72.6387 153.859 73.123 153.656C73.6113 153.453 74.1582 153.352 74.7637 153.352C75.373 153.352 75.916 153.463 76.3926 153.686C76.8691 153.904 77.2383 154.215 77.5 154.617C77.7656 155.02 77.8984 155.477 77.8984 155.988H76.1406C76.1406 155.598 76.0176 155.295 75.7715 155.08C75.5254 154.861 75.1797 154.752 74.7344 154.752C74.3047 154.752 73.9707 154.844 73.7324 155.027C73.4941 155.207 73.375 155.445 73.375 155.742C73.375 156.02 73.5137 156.252 73.791 156.439C74.0723 156.627 74.4844 156.803 75.0273 156.967C76.0273 157.268 76.7559 157.641 77.2129 158.086C77.6699 158.531 77.8984 159.086 77.8984 159.75C77.8984 160.488 77.6191 161.068 77.0605 161.49C76.502 161.908 75.75 162.117 74.8047 162.117C74.1484 162.117 73.5508 161.998 73.0117 161.76C72.4727 161.518 72.0605 161.188 71.7754 160.77C71.4941 160.352 71.3535 159.867 71.3535 159.316H73.1172C73.1172 160.258 73.6797 160.729 74.8047 160.729C75.2227 160.729 75.5488 160.645 75.7832 160.477C76.0176 160.305 76.1348 160.066 76.1348 159.762ZM80.6348 156.984H81.5371C81.9668 156.984 82.2852 156.877 82.4922 156.662C82.6992 156.447 82.8027 156.162 82.8027 155.807C82.8027 155.463 82.6992 155.195 82.4922 155.004C82.2891 154.812 82.0078 154.717 81.6484 154.717C81.3242 154.717 81.0527 154.807 80.834 154.986C80.6152 155.162 80.5059 155.393 80.5059 155.678H78.8125C78.8125 155.232 78.9316 154.834 79.1699 154.482C79.4121 154.127 79.748 153.85 80.1777 153.65C80.6113 153.451 81.0879 153.352 81.6074 153.352C82.5098 153.352 83.2168 153.568 83.7285 154.002C84.2402 154.432 84.4961 155.025 84.4961 155.783C84.4961 156.174 84.377 156.533 84.1387 156.861C83.9004 157.189 83.5879 157.441 83.2012 157.617C83.6816 157.789 84.0391 158.047 84.2734 158.391C84.5117 158.734 84.6309 159.141 84.6309 159.609C84.6309 160.367 84.3535 160.975 83.7988 161.432C83.248 161.889 82.5176 162.117 81.6074 162.117C80.7559 162.117 80.0586 161.893 79.5156 161.443C78.9766 160.994 78.707 160.4 78.707 159.662H80.4004C80.4004 159.982 80.5195 160.244 80.7578 160.447C81 160.65 81.2969 160.752 81.6484 160.752C82.0508 160.752 82.3652 160.646 82.5918 160.436C82.8223 160.221 82.9375 159.938 82.9375 159.586C82.9375 158.734 82.4688 158.309 81.5312 158.309H80.6348V156.984ZM94.5742 158.889C94.5742 159.904 94.3574 160.697 93.9238 161.268C93.4902 161.834 92.8848 162.117 92.1074 162.117C91.4199 162.117 90.8711 161.854 90.4609 161.326L90.3848 162H88.8613V153H90.5547V156.229C90.9453 155.771 91.459 155.543 92.0957 155.543C92.8691 155.543 93.4746 155.828 93.9121 156.398C94.3535 156.965 94.5742 157.764 94.5742 158.795V158.889ZM92.8809 158.766C92.8809 158.125 92.7793 157.658 92.5762 157.365C92.373 157.068 92.0703 156.92 91.668 156.92C91.1289 156.92 90.7578 157.141 90.5547 157.582V160.084C90.7617 160.529 91.1367 160.752 91.6797 160.752C92.2266 160.752 92.5859 160.482 92.7578 159.943C92.8398 159.686 92.8809 159.293 92.8809 158.766ZM99.4199 161.355C99.002 161.863 98.4238 162.117 97.6855 162.117C97.0059 162.117 96.4863 161.922 96.127 161.531C95.7715 161.141 95.5898 160.568 95.582 159.814V155.66H97.2754V159.756C97.2754 160.416 97.5762 160.746 98.1777 160.746C98.752 160.746 99.1465 160.547 99.3613 160.148V155.66H101.061V162H99.4668L99.4199 161.355ZM104.975 160.752C105.287 160.752 105.541 160.666 105.736 160.494C105.932 160.322 106.033 160.094 106.041 159.809H107.629C107.625 160.238 107.508 160.633 107.277 160.992C107.047 161.348 106.73 161.625 106.328 161.824C105.93 162.02 105.488 162.117 105.004 162.117C104.098 162.117 103.383 161.83 102.859 161.256C102.336 160.678 102.074 159.881 102.074 158.865V158.754C102.074 157.777 102.334 156.998 102.854 156.416C103.373 155.834 104.086 155.543 104.992 155.543C105.785 155.543 106.42 155.77 106.896 156.223C107.377 156.672 107.621 157.271 107.629 158.021H106.041C106.033 157.693 105.932 157.428 105.736 157.225C105.541 157.018 105.283 156.914 104.963 156.914C104.568 156.914 104.27 157.059 104.066 157.348C103.867 157.633 103.768 158.098 103.768 158.742V158.918C103.768 159.57 103.867 160.039 104.066 160.324C104.266 160.609 104.568 160.752 104.975 160.752ZM110.898 159.457L110.289 160.066V162H108.596V153H110.289V157.986L110.617 157.564L112.24 155.66H114.273L111.982 158.303L114.473 162H112.527L110.898 159.457ZM117.807 162.117C116.877 162.117 116.119 161.832 115.533 161.262C114.951 160.691 114.66 159.932 114.66 158.982V158.818C114.66 158.182 114.783 157.613 115.029 157.113C115.275 156.609 115.623 156.223 116.072 155.953C116.525 155.68 117.041 155.543 117.619 155.543C118.486 155.543 119.168 155.816 119.664 156.363C120.164 156.91 120.414 157.686 120.414 158.689V159.381H116.377C116.432 159.795 116.596 160.127 116.869 160.377C117.146 160.627 117.496 160.752 117.918 160.752C118.57 160.752 119.08 160.516 119.447 160.043L120.279 160.975C120.025 161.334 119.682 161.615 119.248 161.818C118.814 162.018 118.334 162.117 117.807 162.117ZM117.613 156.914C117.277 156.914 117.004 157.027 116.793 157.254C116.586 157.48 116.453 157.805 116.395 158.227H118.75V158.092C118.742 157.717 118.641 157.428 118.445 157.225C118.25 157.018 117.973 156.914 117.613 156.914ZM123.408 154.102V155.66H124.492V156.902H123.408V160.066C123.408 160.301 123.453 160.469 123.543 160.57C123.633 160.672 123.805 160.723 124.059 160.723C124.246 160.723 124.412 160.709 124.557 160.682V161.965C124.225 162.066 123.883 162.117 123.531 162.117C122.344 162.117 121.738 161.518 121.715 160.318V156.902H120.789V155.66H121.715V154.102H123.408ZM133.938 159.697L134.77 155.66H136.404L134.787 162H133.369L132.168 158.01L130.967 162H129.555L127.938 155.66H129.572L130.398 159.691L131.559 155.66H132.783L133.938 159.697ZM139.035 162H137.336V155.66H139.035V162ZM137.236 154.02C137.236 153.766 137.32 153.557 137.488 153.393C137.66 153.229 137.893 153.146 138.186 153.146C138.475 153.146 138.705 153.229 138.877 153.393C139.049 153.557 139.135 153.766 139.135 154.02C139.135 154.277 139.047 154.488 138.871 154.652C138.699 154.816 138.471 154.898 138.186 154.898C137.9 154.898 137.67 154.816 137.494 154.652C137.322 154.488 137.236 154.277 137.236 154.02ZM142.463 154.102V155.66H143.547V156.902H142.463V160.066C142.463 160.301 142.508 160.469 142.598 160.57C142.688 160.672 142.859 160.723 143.113 160.723C143.301 160.723 143.467 160.709 143.611 160.682V161.965C143.279 162.066 142.938 162.117 142.586 162.117C141.398 162.117 140.793 161.518 140.77 160.318V156.902H139.844V155.66H140.77V154.102H142.463ZM146.143 156.352C146.592 155.812 147.156 155.543 147.836 155.543C149.211 155.543 149.908 156.342 149.928 157.939V162H148.234V157.986C148.234 157.623 148.156 157.355 148 157.184C147.844 157.008 147.584 156.92 147.221 156.92C146.725 156.92 146.365 157.111 146.143 157.494V162H144.449V153H146.143V156.352ZM156.566 159.932L157.744 155.66H159.514L157.375 162H155.758L153.619 155.66H155.389L156.566 159.932ZM163.1 162.117C162.17 162.117 161.412 161.832 160.826 161.262C160.244 160.691 159.953 159.932 159.953 158.982V158.818C159.953 158.182 160.076 157.613 160.322 157.113C160.568 156.609 160.916 156.223 161.365 155.953C161.818 155.68 162.334 155.543 162.912 155.543C163.779 155.543 164.461 155.816 164.957 156.363C165.457 156.91 165.707 157.686 165.707 158.689V159.381H161.67C161.725 159.795 161.889 160.127 162.162 160.377C162.439 160.627 162.789 160.752 163.211 160.752C163.863 160.752 164.373 160.516 164.74 160.043L165.572 160.975C165.318 161.334 164.975 161.615 164.541 161.818C164.107 162.018 163.627 162.117 163.1 162.117ZM162.906 156.914C162.57 156.914 162.297 157.027 162.086 157.254C161.879 157.48 161.746 157.805 161.688 158.227H164.043V158.092C164.035 157.717 163.934 157.428 163.738 157.225C163.543 157.018 163.266 156.914 162.906 156.914ZM170.236 157.248C170.006 157.217 169.803 157.201 169.627 157.201C168.986 157.201 168.566 157.418 168.367 157.852V162H166.674V155.66H168.273L168.32 156.416C168.66 155.834 169.131 155.543 169.732 155.543C169.92 155.543 170.096 155.568 170.26 155.619L170.236 157.248ZM174.49 160.248C174.49 160.041 174.387 159.879 174.18 159.762C173.977 159.641 173.648 159.533 173.195 159.439C171.688 159.123 170.934 158.482 170.934 157.518C170.934 156.955 171.166 156.486 171.631 156.111C172.1 155.732 172.711 155.543 173.465 155.543C174.27 155.543 174.912 155.732 175.393 156.111C175.877 156.49 176.119 156.982 176.119 157.588H174.426C174.426 157.346 174.348 157.146 174.191 156.99C174.035 156.83 173.791 156.75 173.459 156.75C173.174 156.75 172.953 156.814 172.797 156.943C172.641 157.072 172.562 157.236 172.562 157.436C172.562 157.623 172.65 157.775 172.826 157.893C173.006 158.006 173.307 158.105 173.729 158.191C174.15 158.273 174.506 158.367 174.795 158.473C175.689 158.801 176.137 159.369 176.137 160.178C176.137 160.756 175.889 161.225 175.393 161.584C174.896 161.939 174.256 162.117 173.471 162.117C172.939 162.117 172.467 162.023 172.053 161.836C171.643 161.645 171.32 161.385 171.086 161.057C170.852 160.725 170.734 160.367 170.734 159.984H172.34C172.355 160.285 172.467 160.516 172.674 160.676C172.881 160.836 173.158 160.916 173.506 160.916C173.83 160.916 174.074 160.855 174.238 160.734C174.406 160.609 174.49 160.447 174.49 160.248ZM179.02 162H177.32V155.66H179.02V162ZM177.221 154.02C177.221 153.766 177.305 153.557 177.473 153.393C177.645 153.229 177.877 153.146 178.17 153.146C178.459 153.146 178.689 153.229 178.861 153.393C179.033 153.557 179.119 153.766 179.119 154.02C179.119 154.277 179.031 154.488 178.855 154.652C178.684 154.816 178.455 154.898 178.17 154.898C177.885 154.898 177.654 154.816 177.479 154.652C177.307 154.488 177.221 154.277 177.221 154.02ZM180.156 158.771C180.156 158.143 180.277 157.582 180.52 157.09C180.762 156.598 181.109 156.217 181.562 155.947C182.02 155.678 182.549 155.543 183.15 155.543C184.006 155.543 184.703 155.805 185.242 156.328C185.785 156.852 186.088 157.562 186.15 158.461L186.162 158.895C186.162 159.867 185.891 160.648 185.348 161.238C184.805 161.824 184.076 162.117 183.162 162.117C182.248 162.117 181.518 161.824 180.971 161.238C180.428 160.652 180.156 159.855 180.156 158.848V158.771ZM181.85 158.895C181.85 159.496 181.963 159.957 182.189 160.277C182.416 160.594 182.74 160.752 183.162 160.752C183.572 160.752 183.893 160.596 184.123 160.283C184.354 159.967 184.469 159.463 184.469 158.771C184.469 158.182 184.354 157.725 184.123 157.4C183.893 157.076 183.568 156.914 183.15 156.914C182.736 156.914 182.416 157.076 182.189 157.4C181.963 157.721 181.85 158.219 181.85 158.895ZM188.764 155.66L188.816 156.393C189.27 155.826 189.877 155.543 190.639 155.543C191.311 155.543 191.811 155.74 192.139 156.135C192.467 156.529 192.635 157.119 192.643 157.904V162H190.949V157.945C190.949 157.586 190.871 157.326 190.715 157.166C190.559 157.002 190.299 156.92 189.936 156.92C189.459 156.92 189.102 157.123 188.863 157.529V162H187.17V155.66H188.764ZM195.719 162H194.02V155.66H195.719V162ZM193.92 154.02C193.92 153.766 194.004 153.557 194.172 153.393C194.344 153.229 194.576 153.146 194.869 153.146C195.158 153.146 195.389 153.229 195.561 153.393C195.732 153.557 195.818 153.766 195.818 154.02C195.818 154.277 195.73 154.488 195.555 154.652C195.383 154.816 195.154 154.898 194.869 154.898C194.584 154.898 194.354 154.816 194.178 154.652C194.006 154.488 193.92 154.277 193.92 154.02ZM198.678 155.66L198.73 156.393C199.184 155.826 199.791 155.543 200.553 155.543C201.225 155.543 201.725 155.74 202.053 156.135C202.381 156.529 202.549 157.119 202.557 157.904V162H200.863V157.945C200.863 157.586 200.785 157.326 200.629 157.166C200.473 157.002 200.213 156.92 199.85 156.92C199.373 156.92 199.016 157.123 198.777 157.529V162H197.084V155.66H198.678ZM203.6 158.783C203.6 157.811 203.83 157.027 204.291 156.434C204.756 155.84 205.381 155.543 206.166 155.543C206.861 155.543 207.402 155.781 207.789 156.258L207.859 155.66H209.395V161.789C209.395 162.344 209.268 162.826 209.014 163.236C208.764 163.646 208.41 163.959 207.953 164.174C207.496 164.389 206.961 164.496 206.348 164.496C205.883 164.496 205.43 164.402 204.988 164.215C204.547 164.031 204.213 163.793 203.986 163.5L204.736 162.469C205.158 162.941 205.67 163.178 206.271 163.178C206.721 163.178 207.07 163.057 207.32 162.814C207.57 162.576 207.695 162.236 207.695 161.795V161.455C207.305 161.896 206.791 162.117 206.154 162.117C205.393 162.117 204.775 161.82 204.303 161.227C203.834 160.629 203.6 159.838 203.6 158.854V158.783ZM205.293 158.906C205.293 159.48 205.408 159.932 205.639 160.26C205.869 160.584 206.186 160.746 206.588 160.746C207.104 160.746 207.473 160.553 207.695 160.166V157.5C207.469 157.113 207.104 156.92 206.6 156.92C206.193 156.92 205.873 157.086 205.639 157.418C205.408 157.75 205.293 158.246 205.293 158.906ZM122.641 176.117C121.711 176.117 120.953 175.832 120.367 175.262C119.785 174.691 119.494 173.932 119.494 172.982V172.818C119.494 172.182 119.617 171.613 119.863 171.113C120.109 170.609 120.457 170.223 120.906 169.953C121.359 169.68 121.875 169.543 122.453 169.543C123.32 169.543 124.002 169.816 124.498 170.363C124.998 170.91 125.248 171.686 125.248 172.689V173.381H121.211C121.266 173.795 121.43 174.127 121.703 174.377C121.98 174.627 122.33 174.752 122.752 174.752C123.404 174.752 123.914 174.516 124.281 174.043L125.113 174.975C124.859 175.334 124.516 175.615 124.082 175.818C123.648 176.018 123.168 176.117 122.641 176.117ZM122.447 170.914C122.111 170.914 121.838 171.027 121.627 171.254C121.42 171.48 121.287 171.805 121.229 172.227H123.584V172.092C123.576 171.717 123.475 171.428 123.279 171.225C123.084 171.018 122.807 170.914 122.447 170.914ZM127.773 169.66L127.826 170.393C128.279 169.826 128.887 169.543 129.648 169.543C130.32 169.543 130.82 169.74 131.148 170.135C131.477 170.529 131.645 171.119 131.652 171.904V176H129.959V171.945C129.959 171.586 129.881 171.326 129.725 171.166C129.568 171.002 129.309 170.92 128.945 170.92C128.469 170.92 128.111 171.123 127.873 171.529V176H126.18V169.66H127.773ZM136.615 176C136.537 175.848 136.48 175.658 136.445 175.432C136.035 175.889 135.502 176.117 134.846 176.117C134.225 176.117 133.709 175.938 133.299 175.578C132.893 175.219 132.689 174.766 132.689 174.219C132.689 173.547 132.938 173.031 133.434 172.672C133.934 172.312 134.654 172.131 135.596 172.127H136.375V171.764C136.375 171.471 136.299 171.236 136.146 171.061C135.998 170.885 135.762 170.797 135.438 170.797C135.152 170.797 134.928 170.865 134.764 171.002C134.604 171.139 134.523 171.326 134.523 171.564H132.83C132.83 171.197 132.943 170.857 133.17 170.545C133.396 170.232 133.717 169.988 134.131 169.812C134.545 169.633 135.01 169.543 135.525 169.543C136.307 169.543 136.926 169.74 137.383 170.135C137.844 170.525 138.074 171.076 138.074 171.787V174.535C138.078 175.137 138.162 175.592 138.326 175.9V176H136.615ZM135.215 174.822C135.465 174.822 135.695 174.768 135.906 174.658C136.117 174.545 136.273 174.395 136.375 174.207V173.117H135.742C134.895 173.117 134.443 173.41 134.389 173.996L134.383 174.096C134.383 174.307 134.457 174.48 134.605 174.617C134.754 174.754 134.957 174.822 135.215 174.822ZM145.088 172.889C145.088 173.904 144.871 174.697 144.438 175.268C144.004 175.834 143.398 176.117 142.621 176.117C141.934 176.117 141.385 175.854 140.975 175.326L140.898 176H139.375V167H141.068V170.229C141.459 169.771 141.973 169.543 142.609 169.543C143.383 169.543 143.988 169.828 144.426 170.398C144.867 170.965 145.088 171.764 145.088 172.795V172.889ZM143.395 172.766C143.395 172.125 143.293 171.658 143.09 171.365C142.887 171.068 142.584 170.92 142.182 170.92C141.643 170.92 141.271 171.141 141.068 171.582V174.084C141.275 174.529 141.65 174.752 142.193 174.752C142.74 174.752 143.1 174.482 143.271 173.943C143.354 173.686 143.395 173.293 143.395 172.766ZM147.924 176H146.225V167H147.924V176ZM152.242 176.117C151.312 176.117 150.555 175.832 149.969 175.262C149.387 174.691 149.096 173.932 149.096 172.982V172.818C149.096 172.182 149.219 171.613 149.465 171.113C149.711 170.609 150.059 170.223 150.508 169.953C150.961 169.68 151.477 169.543 152.055 169.543C152.922 169.543 153.604 169.816 154.1 170.363C154.6 170.91 154.85 171.686 154.85 172.689V173.381H150.812C150.867 173.795 151.031 174.127 151.305 174.377C151.582 174.627 151.932 174.752 152.354 174.752C153.006 174.752 153.516 174.516 153.883 174.043L154.715 174.975C154.461 175.334 154.117 175.615 153.684 175.818C153.25 176.018 152.77 176.117 152.242 176.117ZM152.049 170.914C151.713 170.914 151.439 171.027 151.229 171.254C151.021 171.48 150.889 171.805 150.83 172.227H153.186V172.092C153.178 171.717 153.076 171.428 152.881 171.225C152.686 171.018 152.408 170.914 152.049 170.914ZM155.553 172.783C155.553 171.795 155.773 171.008 156.215 170.422C156.66 169.836 157.268 169.543 158.037 169.543C158.654 169.543 159.164 169.773 159.566 170.234V167H161.266V176H159.736L159.654 175.326C159.232 175.854 158.689 176.117 158.025 176.117C157.279 176.117 156.68 175.824 156.227 175.238C155.777 174.648 155.553 173.83 155.553 172.783ZM157.246 172.906C157.246 173.5 157.35 173.955 157.557 174.271C157.764 174.588 158.064 174.746 158.459 174.746C158.982 174.746 159.352 174.525 159.566 174.084V171.582C159.355 171.141 158.99 170.92 158.471 170.92C157.654 170.92 157.246 171.582 157.246 172.906Z" fill="black"/>
<path d="M181.468 67.1765C181.565 66.9182 181.435 66.6297 181.177 66.5322L176.966 64.9434C176.708 64.8459 176.419 64.9764 176.322 65.2347C176.224 65.4931 176.355 65.7815 176.613 65.879L180.356 67.2913L178.943 71.0337C178.846 71.292 178.976 71.5805 179.235 71.678C179.493 71.7755 179.782 71.6451 179.879 71.3867L181.468 67.1765ZM108.206 100.456L181.206 67.4556L180.794 66.5444L107.794 99.5444L108.206 100.456Z" fill="#EE1A1A"/>
<path d="M133.843 103.066L130.567 95.1893L132.79 94.2643C133.475 93.9792 134.144 93.8786 134.797 93.9625C135.449 94.0464 136.034 94.3086 136.552 94.7491C137.073 95.1881 137.486 95.7693 137.791 96.4927L138.001 96.9959C138.31 97.7388 138.436 98.4498 138.38 99.1289C138.328 99.8064 138.097 100.406 137.688 100.927C137.282 101.447 136.727 101.858 136.024 102.159L133.843 103.066ZM131.961 95.6119L134.529 101.785L135.622 101.33C136.422 100.997 136.941 100.489 137.177 99.807C137.418 99.1232 137.346 98.3215 136.964 97.4018L136.772 96.942C136.4 96.0475 135.9 95.441 135.273 95.1225C134.648 94.7988 133.947 94.7939 133.173 95.1078L131.961 95.6119ZM143.431 99.2043C142.638 99.5344 141.884 99.5433 141.171 99.231C140.455 98.9151 139.916 98.3207 139.553 97.4479L139.477 97.264C139.235 96.6833 139.13 96.12 139.161 95.574C139.194 95.023 139.355 94.5369 139.646 94.1158C139.938 93.6896 140.317 93.3797 140.782 93.1861C141.543 92.8695 142.239 92.8741 142.869 93.1999C143.5 93.5257 144.009 94.1556 144.398 95.0897L144.571 95.5063L140.606 97.156C140.86 97.727 141.222 98.1243 141.692 98.3478C142.163 98.5662 142.648 98.5719 143.146 98.3649C143.499 98.2178 143.768 98.0212 143.954 97.7749C144.139 97.5286 144.274 97.2482 144.359 96.9336L145.168 97.1554C144.991 98.1132 144.412 98.7962 143.431 99.2043ZM141.124 94.0084C140.72 94.1765 140.443 94.4654 140.291 94.8751C140.139 95.2813 140.14 95.763 140.296 96.3202L143.228 95.1003L143.197 95.0246C142.956 94.5281 142.656 94.192 142.295 94.0163C141.933 93.837 141.542 93.8344 141.124 94.0084ZM147.92 97.2101L146.919 97.6265L143.462 89.3168L144.463 88.9005L147.92 97.2101ZM152.001 95.6394C151.207 95.9694 150.454 95.9783 149.74 95.666C149.025 95.3501 148.485 94.7558 148.122 93.883L148.046 93.699C147.804 93.1184 147.699 92.5551 147.73 92.0091C147.763 91.4581 147.925 90.972 148.215 90.5509C148.507 90.1246 148.886 89.8148 149.351 89.6212C150.112 89.3046 150.808 89.3092 151.438 89.635C152.069 89.9608 152.579 90.5907 152.967 91.5248L153.14 91.9414L149.175 93.5911C149.429 94.1621 149.791 94.5594 150.261 94.7829C150.733 95.0013 151.217 95.007 151.715 94.8C152.068 94.6529 152.338 94.4563 152.523 94.21C152.708 93.9637 152.843 93.6833 152.928 93.3687L153.738 93.5905C153.561 94.5483 152.982 95.2313 152.001 95.6394ZM149.693 90.4435C149.289 90.6116 149.012 90.9005 148.861 91.3102C148.708 91.7164 148.71 92.1981 148.865 92.7552L151.798 91.5354L151.766 91.4597C151.526 90.9632 151.225 90.6271 150.864 90.4514C150.502 90.2721 150.112 90.2695 149.693 90.4435ZM153.735 86.2617L154.325 87.6791L155.417 87.2245L155.739 87.9981L154.646 88.4527L156.157 92.0828C156.254 92.3172 156.376 92.4737 156.523 92.5522C156.669 92.6271 156.859 92.6158 157.093 92.5183C157.208 92.4703 157.358 92.3826 157.542 92.2553L157.88 93.0668C157.646 93.2484 157.405 93.391 157.156 93.4946C156.709 93.6806 156.316 93.6856 155.976 93.5097C155.636 93.3337 155.363 92.9969 155.156 92.4992L153.646 88.8691L152.58 89.3125L152.258 88.5388L153.324 88.0955L152.734 86.6781L153.735 86.2617ZM161.501 91.6873C160.707 92.0174 159.953 92.0263 159.24 91.714C158.524 91.3981 157.985 90.8038 157.622 89.931L157.546 89.747C157.304 89.1664 157.199 88.6031 157.23 88.0571C157.263 87.506 157.424 87.02 157.715 86.5988C158.007 86.1726 158.386 85.8627 158.851 85.6692C159.612 85.3526 160.308 85.3572 160.938 85.683C161.569 86.0087 162.078 86.6387 162.467 87.5728L162.64 87.9894L158.675 89.639C158.929 90.2101 159.291 90.6074 159.761 90.8309C160.232 91.0493 160.717 91.055 161.215 90.8479C161.568 90.7009 161.838 90.5042 162.023 90.258C162.208 90.0117 162.343 89.7312 162.428 89.4167L163.237 89.6384C163.061 90.5963 162.482 91.2792 161.501 91.6873ZM159.193 86.4915C158.789 86.6595 158.512 86.9484 158.361 87.3582C158.208 87.7644 158.21 88.2461 158.365 88.8032L161.297 87.5834L161.266 87.5077C161.025 87.0111 160.725 86.675 160.364 86.4994C160.002 86.3201 159.611 86.3174 159.193 86.4915Z" fill="#EE1A1A"/>
</svg>
