<svg width="130" height="130" viewBox="0 0 130 130" fill="none" xmlns="http://www.w3.org/2000/svg">
<path d="M0 65C0 100.899 29.1015 130 65 130C100.899 130 130 100.899 130 65C130 29.1015 100.899 0 65 0C29.1015 0 0 29.1015 0 65Z" fill="url(#paint0_linear)"/>
<path d="M90.7015 88.0424H46.073C42.5342 88.0889 39.1106 86.7852 36.4991 84.3966C33.8876 82.0081 32.2844 78.7141 32.0158 75.1852C32.0158 74.8138 32.0158 74.4424 32.0158 74.0709C31.8717 71.1495 32.7149 68.2645 34.4097 65.8804C36.1044 63.4964 38.5521 61.752 41.3587 60.9281C41.3587 60.5281 41.3587 60.1281 41.3587 59.7567C41.4617 56.1513 42.5561 52.644 44.5218 49.6198C46.4875 46.5957 49.2485 44.1716 52.5015 42.6138C56.0216 41.0475 59.9398 40.6076 63.7196 41.3543C67.4993 42.1011 70.9559 43.998 73.6158 46.7852C75.4334 48.6366 76.8957 50.8059 77.9301 53.1852C78.9679 52.3247 80.1993 51.7294 81.5183 51.4506C82.8373 51.1719 84.2043 51.2181 85.5015 51.5852C87.4063 52.2549 89.0653 53.4824 90.2628 55.108C91.4603 56.7335 92.1408 58.6819 92.2158 60.6995C95.3861 61.2433 98.2585 62.9001 100.317 65.372C102.375 67.8439 103.484 70.9689 103.444 74.1852C103.444 86.8424 90.8444 88.0138 90.7015 88.0424ZM43.073 63.2709C40.6431 63.798 38.4815 65.176 36.978 67.1562C35.4744 69.1365 34.7279 71.5888 34.873 74.0709C34.873 74.3852 34.873 74.6995 34.873 75.0138C35.1126 77.8553 36.4298 80.4975 38.5546 82.3992C40.6794 84.3009 43.451 85.3181 46.3015 85.2424H90.8444C93.6273 84.9979 96.2176 83.7196 98.1046 81.6596C99.9915 79.5996 101.038 76.9074 101.038 74.1138C101.038 71.3202 99.9915 68.628 98.1046 66.568C96.2176 64.508 93.6273 63.2297 90.8444 62.9852C90.6698 62.9574 90.5023 62.8954 90.3517 62.8028C90.2011 62.7101 90.0703 62.5886 89.9667 62.4453C89.8632 62.3019 89.789 62.1395 89.7484 61.9674C89.7078 61.7953 89.7016 61.6169 89.7301 61.4424C89.7843 59.862 89.3497 58.3034 88.4856 56.9791C87.6214 55.6548 86.3699 54.6293 84.9015 54.0424C83.7645 53.7285 82.5581 53.7742 81.448 54.1732C80.338 54.5722 79.3786 55.305 78.7015 56.2709C78.553 56.4729 78.352 56.6303 78.1203 56.726C77.8885 56.8217 77.635 56.8521 77.3873 56.8138C77.1423 56.7692 76.9133 56.6614 76.7228 56.501C76.5324 56.3407 76.3871 56.1333 76.3015 55.8995C75.3045 53.1911 73.7131 50.7406 71.6444 48.7281C69.3743 46.3282 66.4147 44.6928 63.1748 44.0479C59.935 43.403 56.5748 43.7805 53.5587 45.1281C50.793 46.5067 48.4514 48.6072 46.7816 51.2075C45.1118 53.8077 44.1759 56.811 44.073 59.8995C44.0303 60.5655 44.0303 61.2335 44.073 61.8995C44.116 62.2423 44.028 62.5886 43.8268 62.8694C43.6255 63.1501 43.3257 63.3445 42.9873 63.4138L43.073 63.2709Z" fill="#232F3E"/>
<defs>
<linearGradient id="paint0_linear" x1="-26.9239" y1="156.929" x2="156.924" y2="-26.9187" gradientUnits="userSpaceOnUse">
<stop stop-color="#48D145" stop-opacity="0.31"/>
<stop offset="1" stop-color="#027200"/>
</linearGradient>
</defs>
</svg>
